{
copyright = "This work is licensed under the Creative Commons Attribution 3.0 Unported License. To view a copy of this license, visit http://creativecommons.org/licenses/by/3.0/.";
date = "2013-06-18 01:35:54 +0000";
designer = "Ali Mihandoost";
designerURL = "http://ali.md/";
familyName = "Encrypted Persian";
fontMaster = (
{
ascender = 1000;
capHeight = 700;
customParameters = (
{
name = "typoAscender";
value = "1000";
},
{
name = "typoDescender";
value = "0";
},
{
name = "typoLineGap";
value = "90";
}
);
descender = "-800";
id = "3D323242-F336-407C-B164-DE86AA499667";
weightValue = 500;
widthValue = 5;
xHeight = 500;
}
);
glyphs = (
{
glyphname = "ain-ar";
lastChange = "2013-06-18 10:59:11 +0330";
layers = (
{
layerId = "3D323242-F336-407C-B164-DE86AA499667";
name = "Regular";
paths = (
{
closed = 1;
nodes = (
"40 245 OFFCURVE",
"140 370 OFFCURVE",
"277 370 CURVE SMOOTH",
"380 370 OFFCURVE",
"455 278 OFFCURVE",
"455 174 CURVE SMOOTH",
"455 80 OFFCURVE",
"395 2 OFFCURVE",
"315 2 CURVE SMOOTH",
"313 2 LINE SMOOTH",
"257 2 OFFCURVE",
"208 53 OFFCURVE",
"208 135 CURVE SMOOTH",
"208 151 OFFCURVE",
"224 167 OFFCURVE",
"243 167 CURVE SMOOTH",
"259 167 OFFCURVE",
"274 151 OFFCURVE",
"274 135 CURVE SMOOTH",
"274 112 OFFCURVE",
"280 93 OFFCURVE",
"292 79 CURVE SMOOTH",
"298 72 OFFCURVE",
"304 68 OFFCURVE",
"313 68 CURVE SMOOTH",
"357 68 OFFCURVE",
"389 115 OFFCURVE",
"389 174 CURVE SMOOTH",
"389 245 OFFCURVE",
"340 304 OFFCURVE",
"277 304 CURVE SMOOTH",
"182 304 OFFCURVE",
"106 213 OFFCURVE",
"106 106 CURVE SMOOTH",
"106 49 OFFCURVE",
"115 3 OFFCURVE",
"142 -46 CURVE SMOOTH",
"171 -93 OFFCURVE",
"183 -116 OFFCURVE",
"236 -166 CURVE SMOOTH",
"262 -191 OFFCURVE",
"283 -208 OFFCURVE",
"296 -218 CURVE",
"309 -228 OFFCURVE",
"332 -249 OFFCURVE",
"367 -278 CURVE SMOOTH",
"376 -285 OFFCURVE",
"379 -294 OFFCURVE",
"379 -303 CURVE SMOOTH",
"379 -321 OFFCURVE",
"366 -337 OFFCURVE",
"345 -337 CURVE SMOOTH",
"336 -337 OFFCURVE",
"329 -334 OFFCURVE",
"324 -329 CURVE",
"309 -315 OFFCURVE",
"292 -302 OFFCURVE",
"277 -290 CURVE SMOOTH",
"246 -265 OFFCURVE",
"215 -237 OFFCURVE",
"189 -211 CURVE SMOOTH",
"160 -184 OFFCURVE",
"134 -153 OFFCURVE",
"113 -122 CURVE SMOOTH",
"91 -92 OFFCURVE",
"73 -56 OFFCURVE",
"61 -19 CURVE SMOOTH",
"49 17 OFFCURVE",
"40 60 OFFCURVE",
"40 106 CURVE SMOOTH"
);
}
);
width = 495;
}
);
unicode = 0639;
},
{
glyphname = "alef-ar";
lastChange = "2013-06-18 10:59:26 +0330";
layers = (
{
layerId = "3D323242-F336-407C-B164-DE86AA499667";
name = "Regular";
paths = (
{
closed = 1;
nodes = (
"105 834 LINE SMOOTH",
"105 847 OFFCURVE",
"117 859 OFFCURVE",
"130 859 CURVE SMOOTH",
"143 859 OFFCURVE",
"155 847 OFFCURVE",
"155 834 CURVE SMOOTH",
"155 696 LINE",
"204 653 OFFCURVE",
"224 628 OFFCURVE",
"224 581 CURVE SMOOTH",
"224 530 OFFCURVE",
"205 504 OFFCURVE",
"153 452 CURVE",
"153 -1 LINE SMOOTH",
"153 -14 OFFCURVE",
"141 -26 OFFCURVE",
"128 -26 CURVE SMOOTH",
"115 -26 OFFCURVE",
"103 -14 OFFCURVE",
"103 -1 CURVE SMOOTH",
"103 455 LINE",
"72 490 OFFCURVE",
"61 503 OFFCURVE",
"49 533 CURVE SMOOTH",
"43 548 OFFCURVE",
"40 564 OFFCURVE",
"40 581 CURVE SMOOTH",
"40 628 OFFCURVE",
"60 658 OFFCURVE",
"105 699 CURVE"
);
},
{
closed = 1;
nodes = (
"167 516 OFFCURVE",
"184 541 OFFCURVE",
"184 581 CURVE SMOOTH",
"184 618 OFFCURVE",
"169 639 OFFCURVE",
"129 674 CURVE",
"96 644 OFFCURVE",
"80 613 OFFCURVE",
"80 581 CURVE SMOOTH",
"80 542 OFFCURVE",
"94 518 OFFCURVE",
"130 478 CURVE"
);
}
);
width = 264;
}
);
unicode = 0627;
},
{
glyphname = "alefHamzaabove-ar";
lastChange = "2013-06-18 10:59:41 +0330";
layers = (
{
layerId = "3D323242-F336-407C-B164-DE86AA499667";
name = "Regular";
paths = (
{
closed = 1;
nodes = (
"105 834 LINE SMOOTH",
"105 847 OFFCURVE",
"117 859 OFFCURVE",
"130 859 CURVE SMOOTH",
"143 859 OFFCURVE",
"155 847 OFFCURVE",
"155 834 CURVE SMOOTH",
"155 696 LINE",
"204 653 OFFCURVE",
"224 628 OFFCURVE",
"224 581 CURVE SMOOTH",
"224 530 OFFCURVE",
"205 504 OFFCURVE",
"153 452 CURVE",
"153 -1 LINE SMOOTH",
"153 -14 OFFCURVE",
"141 -26 OFFCURVE",
"128 -26 CURVE SMOOTH",
"115 -26 OFFCURVE",
"103 -14 OFFCURVE",
"103 -1 CURVE SMOOTH",
"103 455 LINE",
"72 490 OFFCURVE",
"61 503 OFFCURVE",
"49 533 CURVE SMOOTH",
"43 548 OFFCURVE",
"40 564 OFFCURVE",
"40 581 CURVE SMOOTH",
"40 628 OFFCURVE",
"60 658 OFFCURVE",
"105 699 CURVE"
);
},
{
closed = 1;
nodes = (
"167 516 OFFCURVE",
"184 541 OFFCURVE",
"184 581 CURVE SMOOTH",
"184 618 OFFCURVE",
"169 639 OFFCURVE",
"129 674 CURVE",
"96 644 OFFCURVE",
"80 613 OFFCURVE",
"80 581 CURVE SMOOTH",
"80 542 OFFCURVE",
"94 518 OFFCURVE",
"130 478 CURVE"
);
}
);
width = 264;
}
);
unicode = 0623;
},
{
glyphname = "alefHamzabelow-ar";
lastChange = "2013-06-18 10:59:47 +0330";
layers = (
{
layerId = "3D323242-F336-407C-B164-DE86AA499667";
name = "Regular";
paths = (
{
closed = 1;
nodes = (
"105 834 LINE SMOOTH",
"105 847 OFFCURVE",
"117 859 OFFCURVE",
"130 859 CURVE SMOOTH",
"143 859 OFFCURVE",
"155 847 OFFCURVE",
"155 834 CURVE SMOOTH",
"155 696 LINE",
"204 653 OFFCURVE",
"224 628 OFFCURVE",
"224 581 CURVE SMOOTH",
"224 530 OFFCURVE",
"205 504 OFFCURVE",
"153 452 CURVE",
"153 -1 LINE SMOOTH",
"153 -14 OFFCURVE",
"141 -26 OFFCURVE",
"128 -26 CURVE SMOOTH",
"115 -26 OFFCURVE",
"103 -14 OFFCURVE",
"103 -1 CURVE SMOOTH",
"103 455 LINE",
"72 490 OFFCURVE",
"61 503 OFFCURVE",
"49 533 CURVE SMOOTH",
"43 548 OFFCURVE",
"40 564 OFFCURVE",
"40 581 CURVE SMOOTH",
"40 628 OFFCURVE",
"60 658 OFFCURVE",
"105 699 CURVE"
);
},
{
closed = 1;
nodes = (
"167 516 OFFCURVE",
"184 541 OFFCURVE",
"184 581 CURVE SMOOTH",
"184 618 OFFCURVE",
"169 639 OFFCURVE",
"129 674 CURVE",
"96 644 OFFCURVE",
"80 613 OFFCURVE",
"80 581 CURVE SMOOTH",
"80 542 OFFCURVE",
"94 518 OFFCURVE",
"130 478 CURVE"
);
}
);
width = 264;
}
);
unicode = 0625;
},
{
glyphname = "alefMadda-ar";
lastChange = "2013-06-18 10:59:56 +0330";
layers = (
{
layerId = "3D323242-F336-407C-B164-DE86AA499667";
name = "Regular";
paths = (
{
closed = 1;
nodes = (
"105 834 LINE SMOOTH",
"105 847 OFFCURVE",
"117 859 OFFCURVE",
"130 859 CURVE SMOOTH",
"143 859 OFFCURVE",
"155 847 OFFCURVE",
"155 834 CURVE SMOOTH",
"155 696 LINE",
"204 653 OFFCURVE",
"224 628 OFFCURVE",
"224 581 CURVE SMOOTH",
"224 530 OFFCURVE",
"205 504 OFFCURVE",
"153 452 CURVE",
"153 -1 LINE SMOOTH",
"153 -14 OFFCURVE",
"141 -26 OFFCURVE",
"128 -26 CURVE SMOOTH",
"115 -26 OFFCURVE",
"103 -14 OFFCURVE",
"103 -1 CURVE SMOOTH",
"103 455 LINE",
"72 490 OFFCURVE",
"61 503 OFFCURVE",
"49 533 CURVE SMOOTH",
"43 548 OFFCURVE",
"40 564 OFFCURVE",
"40 581 CURVE SMOOTH",
"40 628 OFFCURVE",
"60 658 OFFCURVE",
"105 699 CURVE"
);
},
{
closed = 1;
nodes = (
"167 516 OFFCURVE",
"184 541 OFFCURVE",
"184 581 CURVE SMOOTH",
"184 618 OFFCURVE",
"169 639 OFFCURVE",
"129 674 CURVE",
"96 644 OFFCURVE",
"80 613 OFFCURVE",
"80 581 CURVE SMOOTH",
"80 542 OFFCURVE",
"94 518 OFFCURVE",
"130 478 CURVE"
);
}
);
width = 264;
}
);
unicode = 0622;
},
{
glyphname = "beh-ar";
lastChange = "2013-06-18 11:00:07 +0330";
layers = (
{
layerId = "3D323242-F336-407C-B164-DE86AA499667";
name = "Regular";
paths = (
{
closed = 1;
nodes = (
"94 208 LINE",
"173 75 OFFCURVE",
"325 -2 OFFCURVE",
"504 -2 CURVE SMOOTH",
"509 -2 LINE SMOOTH",
"598 -1 OFFCURVE",
"673 20 OFFCURVE",
"730 60 CURVE SMOOTH",
"787 100 OFFCURVE",
"827 143 OFFCURVE",
"872 208 CURVE"
);
},
{
closed = 1;
nodes = (
"910 248 LINE SMOOTH",
"918 248 OFFCURVE",
"924 244 OFFCURVE",
"927 237 CURVE",
"928 237 LINE",
"936 232 LINE",
"948 227 OFFCURVE",
"963 219 OFFCURVE",
"981 203 CURVE SMOOTH",
"999 186 OFFCURVE",
"1015 168 OFFCURVE",
"1025 138 CURVE SMOOTH",
"1030 123 OFFCURVE",
"1032 106 OFFCURVE",
"1032 89 CURVE SMOOTH",
"1032 86 LINE SMOOTH",
"1031 33 OFFCURVE",
"995 6 OFFCURVE",
"964 6 CURVE SMOOTH",
"931 6 OFFCURVE",
"877 63 OFFCURVE",
"869 136 CURVE",
"778 23 OFFCURVE",
"672 -41 OFFCURVE",
"509 -42 CURVE SMOOTH",
"504 -42 LINE SMOOTH",
"300 -42 OFFCURVE",
"122 52 OFFCURVE",
"42 219 CURVE",
"41 223 OFFCURVE",
"40 226 OFFCURVE",
"40 228 CURVE SMOOTH",
"40 232 OFFCURVE",
"41 235 OFFCURVE",
"44 238 CURVE",
"47 245 OFFCURVE",
"53 248 OFFCURVE",
"60 248 CURVE SMOOTH"
);
},
{
closed = 1;
nodes = (
"914 198 LINE",
"902 180 LINE",
"903 175 OFFCURVE",
"904 168 OFFCURVE",
"906 159 CURVE",
"909 141 OFFCURVE",
"918 94 OFFCURVE",
"938 69 CURVE",
"947 56 OFFCURVE",
"958 50 OFFCURVE",
"971 50 CURVE SMOOTH",
"984 50 OFFCURVE",
"991 62 OFFCURVE",
"992 86 CURVE",
"992 89 LINE SMOOTH",
"992 126 OFFCURVE",
"973 159 OFFCURVE",
"953 175 CURVE",
"943 182 OFFCURVE",
"934 188 OFFCURVE",
"926 192 CURVE SMOOTH"
);
}
);
width = 1072;
}
);
unicode = 0628;
},
{
glyphname = "dad-ar";
lastChange = "2013-06-18 11:00:16 +0330";
layers = (
{
layerId = "3D323242-F336-407C-B164-DE86AA499667";
name = "Regular";
paths = (
{
closed = 1;
nodes = (
"338 0 LINE SMOOTH",
"304 0 OFFCURVE",
"267 11 OFFCURVE",
"227 32 CURVE",
"192 14 OFFCURVE",
"158 2 OFFCURVE",
"127 -5 CURVE SMOOTH",
"123 -6 OFFCURVE",
"119 -7 OFFCURVE",
"114 -7 CURVE SMOOTH",
"79 -7 OFFCURVE",
"56 20 OFFCURVE",
"48 41 CURVE",
"45 47 OFFCURVE",
"43 57 OFFCURVE",
"40 70 CURVE",
"40 75 LINE SMOOTH",
"40 112 OFFCURVE",
"72 142 OFFCURVE",
"107 142 CURVE SMOOTH",
"108 142 OFFCURVE",
"109 142 OFFCURVE",
"112 142 CURVE",
"115 141 OFFCURVE",
"116 141 OFFCURVE",
"117 141 CURVE",
"146 136 OFFCURVE",
"183 121 OFFCURVE",
"227 96 CURVE",
"249 109 OFFCURVE",
"269 121 OFFCURVE",
"288 133 CURVE SMOOTH",
"324 156 OFFCURVE",
"378 176 OFFCURVE",
"434 177 CURVE",
"439 178 OFFCURVE",
"447 178 OFFCURVE",
"458 178 CURVE SMOOTH",
"546 178 OFFCURVE",
"630 158 OFFCURVE",
"710 117 CURVE",
"768 133 OFFCURVE",
"828 147 OFFCURVE",
"891 159 CURVE",
"896 159 LINE SMOOTH",
"911 159 OFFCURVE",
"920 152 OFFCURVE",
"923 137 CURVE",
"923 132 LINE SMOOTH",
"923 117 OFFCURVE",
"916 108 OFFCURVE",
"901 105 CURVE SMOOTH",
"866 99 OFFCURVE",
"826 90 OFFCURVE",
"781 79 CURVE",
"802 66 LINE SMOOTH",
"875 21 OFFCURVE",
"901 -28 OFFCURVE",
"934 -129 CURVE SMOOTH",
"943 -156 OFFCURVE",
"947 -186 OFFCURVE",
"947 -217 CURVE SMOOTH",
"947 -228 OFFCURVE",
"947 -242 OFFCURVE",
"946 -261 CURVE SMOOTH",
"945 -280 OFFCURVE",
"944 -295 OFFCURVE",
"944 -304 CURVE SMOOTH",
"944 -348 OFFCURVE",
"953 -382 OFFCURVE",
"967 -415 CURVE SMOOTH",
"974 -432 OFFCURVE",
"983 -451 OFFCURVE",
"994 -472 CURVE SMOOTH",
"1005 -493 OFFCURVE",
"1014 -511 OFFCURVE",
"1020 -524 CURVE",
"1021 -529 OFFCURVE",
"1022 -533 OFFCURVE",
"1022 -535 CURVE SMOOTH",
"1022 -548 OFFCURVE",
"1016 -556 OFFCURVE",
"1005 -560 CURVE",
"1003 -561 OFFCURVE",
"1000 -562 OFFCURVE",
"995 -562 CURVE SMOOTH",
"983 -562 OFFCURVE",
"974 -557 OFFCURVE",
"969 -546 CURVE",
"966 -540 OFFCURVE",
"955 -517 OFFCURVE",
"935 -476 CURVE SMOOTH",
"895 -396 OFFCURVE",
"889 -349 OFFCURVE",
"889 -304 CURVE SMOOTH",
"889 -293 OFFCURVE",
"890 -277 OFFCURVE",
"891 -258 CURVE SMOOTH",
"892 -239 OFFCURVE",
"893 -226 OFFCURVE",
"893 -217 CURVE SMOOTH",
"893 -166 OFFCURVE",
"867 -91 OFFCURVE",
"839 -43 CURVE SMOOTH",
"825 -20 OFFCURVE",
"803 1 OFFCURVE",
"774 19 CURVE",
"704 59 LINE",
"600 32 OFFCURVE",
"574 24 OFFCURVE",
"482 11 CURVE SMOOTH",
"435 4 OFFCURVE",
"389 1 OFFCURVE",
"343 0 CURVE SMOOTH"
);
},
{
closed = 1;
nodes = (
"301 59 OFFCURVE",
"319 55 OFFCURVE",
"338 55 CURVE SMOOTH",
"342 55 LINE SMOOTH",
"427 56 OFFCURVE",
"521 70 OFFCURVE",
"624 95 CURVE",
"575 114 OFFCURVE",
"519 123 OFFCURVE",
"458 123 CURVE SMOOTH",
"436 123 LINE SMOOTH",
"392 122 OFFCURVE",
"341 103 OFFCURVE",
"283 66 CURVE"
);
},
{
closed = 1;
nodes = (
"149 76 OFFCURVE",
"128 84 OFFCURVE",
"108 87 CURVE",
"107 87 LINE SMOOTH",
"102 87 OFFCURVE",
"95 80 OFFCURVE",
"95 75 CURVE",
"96 69 OFFCURVE",
"97 65 OFFCURVE",
"98 63 CURVE",
"102 53 OFFCURVE",
"107 48 OFFCURVE",
"114 48 CURVE SMOOTH",
"116 48 LINE",
"133 51 OFFCURVE",
"151 57 OFFCURVE",
"170 65 CURVE"
);
}
);
width = 1032;
}
);
unicode = 0636;
},
{
glyphname = "dal-ar";
lastChange = "2013-06-18 11:15:44 +0330";
layers = (
{
layerId = "3D323242-F336-407C-B164-DE86AA499667";
name = "Regular";
paths = (
{
closed = 1;
nodes = (
"391 -34 LINE",
"385 -41 OFFCURVE",
"382 -45 OFFCURVE",
"381 -45 CURVE SMOOTH",
"380 -45 OFFCURVE",
"375 -43 OFFCURVE",
"370 -35 CURVE",
"44 370 LINE",
"41 374 OFFCURVE",
"40 378 OFFCURVE",
"40 380 CURVE SMOOTH",
"40 385 OFFCURVE",
"42 389 OFFCURVE",
"47 392 CURVE SMOOTH",
"104 437 LINE",
"104 440 OFFCURVE",
"109 442 OFFCURVE",
"112 442 CURVE SMOOTH",
"117 442 OFFCURVE",
"121 440 OFFCURVE",
"124 437 CURVE",
"369 133 LINE",
"380 122 LINE",
"381 122 OFFCURVE",
"382 123 OFFCURVE",
"385 126 CURVE",
"387 129 OFFCURVE",
"390 132 OFFCURVE",
"392 136 CURVE",
"636 437 LINE",
"639 440 OFFCURVE",
"643 442 OFFCURVE",
"648 442 CURVE SMOOTH",
"651 442 OFFCURVE",
"656 440 OFFCURVE",
"656 437 CURVE",
"713 392 LINE SMOOTH",
"718 389 OFFCURVE",
"720 385 OFFCURVE",
"720 380 CURVE SMOOTH",
"720 378 OFFCURVE",
"719 374 OFFCURVE",
"716 370 CURVE"
);
},
{
closed = 1;
nodes = (
"375 7 OFFCURVE",
"379 3 OFFCURVE",
"380 3 CURVE",
"390 16 LINE",
"684 378 LINE",
"650 406 LINE",
"391 87 LINE",
"385 80 OFFCURVE",
"381 75 OFFCURVE",
"380 75 CURVE SMOOTH",
"379 75 OFFCURVE",
"373 81 OFFCURVE",
"370 85 CURVE",
"110 406 LINE",
"76 378 LINE",
"370 15 LINE SMOOTH"
);
}
);
width = 760;
}
);
unicode = 062F;
},
{
glyphname = "feh-ar";
lastChange = "2013-06-18 11:00:41 +0330";
layers = (
{
layerId = "3D323242-F336-407C-B164-DE86AA499667";
name = "Regular";
paths = (
{
closed = 1;
nodes = (
"40 447 LINE SMOOTH",
"40 460 OFFCURVE",
"50 470 OFFCURVE",
"63 470 CURVE SMOOTH",
"673 470 LINE SMOOTH",
"686 470 OFFCURVE",
"696 460 OFFCURVE",
"696 447 CURVE SMOOTH",
"696 23 LINE SMOOTH",
"696 10 OFFCURVE",
"686 0 OFFCURVE",
"673 0 CURVE SMOOTH",
"409 0 LINE",
"409 45 LINE",
"651 45 LINE",
"651 425 LINE",
"85 425 LINE",
"85 19 LINE",
"40 19 LINE"
);
}
);
width = 736;
}
);
unicode = 0641;
},
{
glyphname = "gaf-ar";
lastChange = "2013-06-18 11:00:52 +0330";
layers = (
{
layerId = "3D323242-F336-407C-B164-DE86AA499667";
name = "Regular";
paths = (
{
closed = 1;
nodes = (
"1024 51 LINE SMOOTH",
"1037 51 OFFCURVE",
"1048 39 OFFCURVE",
"1048 26 CURVE SMOOTH",
"1048 13 OFFCURVE",
"1037 1 OFFCURVE",
"1024 1 CURVE SMOOTH",
"514 1 LINE",
"563 -54 OFFCURVE",
"588 -84 OFFCURVE",
"615 -144 CURVE SMOOTH",
"628 -175 OFFCURVE",
"635 -205 OFFCURVE",
"635 -234 CURVE SMOOTH",
"635 -247 OFFCURVE",
"625 -258 OFFCURVE",
"612 -258 CURVE SMOOTH",
"599 -258 OFFCURVE",
"588 -247 OFFCURVE",
"588 -234 CURVE SMOOTH",
"588 -190 OFFCURVE",
"569 -145 OFFCURVE",
"542 -109 CURVE SMOOTH",
"515 -73 OFFCURVE",
"482 -32 OFFCURVE",
"450 1 CURVE",
"64 1 LINE SMOOTH",
"51 1 OFFCURVE",
"40 13 OFFCURVE",
"40 26 CURVE SMOOTH",
"40 39 OFFCURVE",
"51 51 OFFCURVE",
"64 51 CURVE SMOOTH",
"410 51 LINE",
"379 92 OFFCURVE",
"363 131 OFFCURVE",
"363 168 CURVE SMOOTH",
"363 225 OFFCURVE",
"386 271 OFFCURVE",
"418 295 CURVE SMOOTH",
"449 318 OFFCURVE",
"483 330 OFFCURVE",
"514 330 CURVE SMOOTH",
"565 330 OFFCURVE",
"607 302 OFFCURVE",
"627 267 CURVE SMOOTH",
"646 231 OFFCURVE",
"655 201 OFFCURVE",
"655 185 CURVE SMOOTH",
"655 140 OFFCURVE",
"613 81 OFFCURVE",
"562 81 CURVE",
"534 84 OFFCURVE",
"495 122 OFFCURVE",
"479 153 CURVE",
"473 169 OFFCURVE",
"470 179 OFFCURVE",
"470 184 CURVE SMOOTH",
"470 197 OFFCURVE",
"476 205 OFFCURVE",
"480 206 CURVE SMOOTH",
"484 207 LINE",
"492 207 OFFCURVE",
"503 181 OFFCURVE",
"507 170 CURVE",
"516 151 OFFCURVE",
"542 129 OFFCURVE",
"562 129 CURVE SMOOTH",
"585 129 OFFCURVE",
"608 163 OFFCURVE",
"608 186 CURVE SMOOTH",
"608 189 OFFCURVE",
"607 194 OFFCURVE",
"604 203 CURVE SMOOTH",
"598 220 OFFCURVE",
"588 249 OFFCURVE",
"561 269 CURVE SMOOTH",
"548 278 OFFCURVE",
"532 283 OFFCURVE",
"514 283 CURVE SMOOTH",
"497 283 OFFCURVE",
"475 277 OFFCURVE",
"451 262 CURVE SMOOTH",
"427 246 OFFCURVE",
"410 212 OFFCURVE",
"410 168 CURVE SMOOTH",
"410 137 OFFCURVE",
"430 98 OFFCURVE",
"470 51 CURVE"
);
},
{
closed = 1;
nodes = (
"1015 -31 LINE",
"1028 -31 OFFCURVE",
"1039 -40 OFFCURVE",
"1039 -49 CURVE SMOOTH",
"1039 -59 OFFCURVE",
"1028 -68 OFFCURVE",
"1015 -68 CURVE",
"705 -68 LINE",
"692 -68 OFFCURVE",
"681 -59 OFFCURVE",
"681 -49 CURVE SMOOTH",
"681 -40 OFFCURVE",
"692 -31 OFFCURVE",
"705 -31 CURVE"
);
}
);
width = 1088;
}
);
unicode = 06AF;
},
{
glyphname = "ghain-ar";
lastChange = "2013-06-18 11:01:12 +0330";
layers = (
{
layerId = "3D323242-F336-407C-B164-DE86AA499667";
name = "Regular";
paths = (
{
closed = 1;
nodes = (
"40 245 OFFCURVE",
"140 370 OFFCURVE",
"277 370 CURVE SMOOTH",
"380 370 OFFCURVE",
"455 278 OFFCURVE",
"455 174 CURVE SMOOTH",
"455 80 OFFCURVE",
"395 2 OFFCURVE",
"315 2 CURVE SMOOTH",
"313 2 LINE SMOOTH",
"257 2 OFFCURVE",
"208 53 OFFCURVE",
"208 135 CURVE SMOOTH",
"208 151 OFFCURVE",
"224 167 OFFCURVE",
"243 167 CURVE SMOOTH",
"259 167 OFFCURVE",
"274 151 OFFCURVE",
"274 135 CURVE SMOOTH",
"274 112 OFFCURVE",
"280 93 OFFCURVE",
"292 79 CURVE SMOOTH",
"298 72 OFFCURVE",
"304 68 OFFCURVE",
"313 68 CURVE SMOOTH",
"357 68 OFFCURVE",
"389 115 OFFCURVE",
"389 174 CURVE SMOOTH",
"389 245 OFFCURVE",
"340 304 OFFCURVE",
"277 304 CURVE SMOOTH",
"182 304 OFFCURVE",
"106 213 OFFCURVE",
"106 106 CURVE SMOOTH",
"106 49 OFFCURVE",
"115 3 OFFCURVE",
"142 -46 CURVE SMOOTH",
"171 -93 OFFCURVE",
"183 -116 OFFCURVE",
"236 -166 CURVE SMOOTH",
"262 -191 OFFCURVE",
"283 -208 OFFCURVE",
"296 -218 CURVE",
"309 -228 OFFCURVE",
"332 -249 OFFCURVE",
"367 -278 CURVE SMOOTH",
"376 -285 OFFCURVE",
"379 -294 OFFCURVE",
"379 -303 CURVE SMOOTH",
"379 -321 OFFCURVE",
"366 -337 OFFCURVE",
"345 -337 CURVE SMOOTH",
"336 -337 OFFCURVE",
"329 -334 OFFCURVE",
"324 -329 CURVE",
"309 -315 OFFCURVE",
"292 -302 OFFCURVE",
"277 -290 CURVE SMOOTH",
"246 -265 OFFCURVE",
"215 -237 OFFCURVE",
"189 -211 CURVE SMOOTH",
"160 -184 OFFCURVE",
"134 -153 OFFCURVE",
"113 -122 CURVE SMOOTH",
"91 -92 OFFCURVE",
"73 -56 OFFCURVE",
"61 -19 CURVE SMOOTH",
"49 17 OFFCURVE",
"40 60 OFFCURVE",
"40 106 CURVE SMOOTH"
);
},
{
closed = 1;
nodes = (
"362 453 OFFCURVE",
"323 415 OFFCURVE",
"277 415 CURVE SMOOTH",
"231 415 OFFCURVE",
"191 453 OFFCURVE",
"191 497 CURVE SMOOTH",
"191 546 OFFCURVE",
"231 586 OFFCURVE",
"280 586 CURVE SMOOTH",
"325 586 OFFCURVE",
"362 546 OFFCURVE",
"362 498 CURVE SMOOTH"
);
}
);
width = 495;
}
);
unicode = 063A;
},
{
glyphname = "hah-ar";
lastChange = "2013-06-18 11:03:28 +0330";
layers = (
{
layerId = "3D323242-F336-407C-B164-DE86AA499667";
name = "Regular";
paths = (
{
closed = 1;
nodes = (
"301 337 LINE",
"301 340 LINE",
"301 401 OFFCURVE",
"276 445 OFFCURVE",
"222 451 CURVE",
"170 451 OFFCURVE",
"126 439 OFFCURVE",
"89 411 CURVE SMOOTH",
"54 386 OFFCURVE",
"40 396 OFFCURVE",
"40 414 CURVE",
"40 446 OFFCURVE",
"136 507 OFFCURVE",
"209 507 CURVE SMOOTH",
"269 507 OFFCURVE",
"364 460 OFFCURVE",
"364 340 CURVE SMOOTH",
"364 337 LINE",
"331 -255 LINE",
"330 -268 OFFCURVE",
"319 -280 OFFCURVE",
"306 -280 CURVE SMOOTH",
"293 -280 OFFCURVE",
"281 -268 OFFCURVE",
"281 -255 CURVE"
);
}
);
width = 404;
}
);
unicode = 062D;
},
{
glyphname = "hamza-ar";
lastChange = "2013-06-18 11:02:13 +0330";
layers = (
{
layerId = "3D323242-F336-407C-B164-DE86AA499667";
name = "Regular";
paths = (
{
closed = 1;
nodes = (
"83 -199 LINE SMOOTH",
"79 -208 OFFCURVE",
"72 -212 OFFCURVE",
"62 -212 CURVE SMOOTH",
"58 -212 OFFCURVE",
"55 -211 OFFCURVE",
"53 -210 CURVE",
"44 -206 OFFCURVE",
"40 -199 OFFCURVE",
"40 -190 CURVE SMOOTH",
"40 -187 OFFCURVE",
"41 -184 OFFCURVE",
"42 -180 CURVE",
"145 38 LINE",
"89 78 OFFCURVE",
"53 146 OFFCURVE",
"53 219 CURVE SMOOTH",
"53 334 OFFCURVE",
"145 427 OFFCURVE",
"260 427 CURVE SMOOTH",
"377 427 OFFCURVE",
"467 328 OFFCURVE",
"467 209 CURVE SMOOTH",
"467 138 OFFCURVE",
"432 73 OFFCURVE",
"375 36 CURVE",
"478 -181 LINE",
"479 -185 OFFCURVE",
"480 -188 OFFCURVE",
"480 -190 CURVE SMOOTH",
"480 -200 OFFCURVE",
"476 -207 OFFCURVE",
"467 -210 CURVE",
"464 -212 OFFCURVE",
"460 -213 OFFCURVE",
"457 -213 CURVE SMOOTH",
"448 -213 OFFCURVE",
"442 -209 OFFCURVE",
"437 -200 CURVE",
"335 15 LINE",
"320 8 OFFCURVE",
"303 4 OFFCURVE",
"282 2 CURVE",
"284 -217 LINE",
"284 -218 LINE SMOOTH",
"284 -230 OFFCURVE",
"274 -240 OFFCURVE",
"262 -240 CURVE SMOOTH",
"250 -240 OFFCURVE",
"239 -230 OFFCURVE",
"239 -218 CURVE",
"237 3 LINE",
"220 5 OFFCURVE",
"203 9 OFFCURVE",
"185 16 CURVE"
);
},
{
closed = 1;
nodes = (
"339 45 OFFCURVE",
"426 110 OFFCURVE",
"427 209 CURVE",
"424 312 OFFCURVE",
"353 387 OFFCURVE",
"260 387 CURVE SMOOTH",
"168 387 OFFCURVE",
"93 311 OFFCURVE",
"93 219 CURVE SMOOTH",
"93 130 OFFCURVE",
"185 42 OFFCURVE",
"262 41 CURVE"
);
}
);
width = 520;
}
);
unicode = 0621;
},
{
glyphname = "heh-ar";
lastChange = "2013-06-18 11:02:27 +0330";
layers = (
{
layerId = "3D323242-F336-407C-B164-DE86AA499667";
name = "Regular";
paths = (
{
closed = 1;
nodes = (
"393 136 LINE SMOOTH",
"393 125 OFFCURVE",
"384 116 OFFCURVE",
"373 116 CURVE SMOOTH",
"362 116 OFFCURVE",
"353 125 OFFCURVE",
"353 136 CURVE SMOOTH",
"353 391 LINE SMOOTH",
"353 402 OFFCURVE",
"362 411 OFFCURVE",
"373 411 CURVE SMOOTH",
"384 411 OFFCURVE",
"393 402 OFFCURVE",
"393 391 CURVE SMOOTH"
);
},
{
closed = 1;
nodes = (
"283 139 LINE SMOOTH",
"283 128 OFFCURVE",
"274 119 OFFCURVE",
"263 119 CURVE SMOOTH",
"252 119 OFFCURVE",
"243 128 OFFCURVE",
"243 139 CURVE SMOOTH",
"243 394 LINE SMOOTH",
"243 405 OFFCURVE",
"252 414 OFFCURVE",
"263 414 CURVE SMOOTH",
"274 414 OFFCURVE",
"283 405 OFFCURVE",
"283 394 CURVE SMOOTH"
);
},
{
closed = 1;
nodes = (
"579 123 OFFCURVE",
"459 0 OFFCURVE",
"308 0 CURVE SMOOTH",
"160 0 OFFCURVE",
"40 118 OFFCURVE",
"40 265 CURVE SMOOTH",
"40 413 OFFCURVE",
"165 530 OFFCURVE",
"314 530 CURVE SMOOTH",
"458 530 OFFCURVE",
"579 418 OFFCURVE",
"579 274 CURVE SMOOTH"
);
},
{
closed = 1;
nodes = (
"186 490 OFFCURVE",
"80 390 OFFCURVE",
"80 265 CURVE SMOOTH",
"80 141 OFFCURVE",
"183 40 OFFCURVE",
"308 40 CURVE SMOOTH",
"436 40 OFFCURVE",
"539 145 OFFCURVE",
"539 274 CURVE SMOOTH",
"539 394 OFFCURVE",
"438 490 OFFCURVE",
"314 490 CURVE SMOOTH"
);
}
);
width = 619;
}
);
unicode = 0647;
},
{
glyphname = "hehDoachashmee-ar";
lastChange = "2013-06-18 11:02:39 +0330";
layers = (
{
layerId = "3D323242-F336-407C-B164-DE86AA499667";
name = "Regular";
paths = (
{
closed = 1;
nodes = (
"393 136 LINE SMOOTH",
"393 125 OFFCURVE",
"384 116 OFFCURVE",
"373 116 CURVE SMOOTH",
"362 116 OFFCURVE",
"353 125 OFFCURVE",
"353 136 CURVE SMOOTH",
"353 391 LINE SMOOTH",
"353 402 OFFCURVE",
"362 411 OFFCURVE",
"373 411 CURVE SMOOTH",
"384 411 OFFCURVE",
"393 402 OFFCURVE",
"393 391 CURVE SMOOTH"
);
},
{
closed = 1;
nodes = (
"283 139 LINE SMOOTH",
"283 128 OFFCURVE",
"274 119 OFFCURVE",
"263 119 CURVE SMOOTH",
"252 119 OFFCURVE",
"243 128 OFFCURVE",
"243 139 CURVE SMOOTH",
"243 394 LINE SMOOTH",
"243 405 OFFCURVE",
"252 414 OFFCURVE",
"263 414 CURVE SMOOTH",
"274 414 OFFCURVE",
"283 405 OFFCURVE",
"283 394 CURVE SMOOTH"
);
},
{
closed = 1;
nodes = (
"579 123 OFFCURVE",
"459 0 OFFCURVE",
"308 0 CURVE SMOOTH",
"160 0 OFFCURVE",
"40 118 OFFCURVE",
"40 265 CURVE SMOOTH",
"40 413 OFFCURVE",
"165 530 OFFCURVE",
"314 530 CURVE SMOOTH",
"458 530 OFFCURVE",
"579 418 OFFCURVE",
"579 274 CURVE SMOOTH"
);
},
{
closed = 1;
nodes = (
"186 490 OFFCURVE",
"80 390 OFFCURVE",
"80 265 CURVE SMOOTH",
"80 141 OFFCURVE",
"183 40 OFFCURVE",
"308 40 CURVE SMOOTH",
"436 40 OFFCURVE",
"539 145 OFFCURVE",
"539 274 CURVE SMOOTH",
"539 394 OFFCURVE",
"438 490 OFFCURVE",
"314 490 CURVE SMOOTH"
);
}
);
width = 619;
}
);
unicode = 06BE;
},
{
glyphname = "jeem-ar";
lastChange = "2013-06-18 11:05:00 +0330";
layers = (
{
layerId = "3D323242-F336-407C-B164-DE86AA499667";
name = "Regular";
paths = (
{
closed = 1;
nodes = (
"301 337 LINE",
"301 340 LINE",
"301 401 OFFCURVE",
"276 445 OFFCURVE",
"222 451 CURVE",
"170 451 OFFCURVE",
"126 439 OFFCURVE",
"89 411 CURVE SMOOTH",
"54 386 OFFCURVE",
"40 396 OFFCURVE",
"40 414 CURVE",
"40 446 OFFCURVE",
"136 507 OFFCURVE",
"209 507 CURVE SMOOTH",
"269 507 OFFCURVE",
"364 460 OFFCURVE",
"364 340 CURVE SMOOTH",
"364 337 LINE",
"340 -36 LINE",
"337 -105 LINE",
"331 -255 LINE SMOOTH",
"330 -268 OFFCURVE",
"319 -280 OFFCURVE",
"306 -280 CURVE SMOOTH",
"293 -280 OFFCURVE",
"281 -268 OFFCURVE",
"281 -255 CURVE"
);
},
{
closed = 1;
nodes = (
"338 -90 OFFCURVE",
"381 -48 OFFCURVE",
"445 -41 CURVE",
"471 -40 OFFCURVE",
"482 -44 OFFCURVE",
"498 -54 CURVE SMOOTH",
"512 -63 OFFCURVE",
"523 -61 OFFCURVE",
"527 -53 CURVE",
"532 -38 OFFCURVE",
"512 -2 OFFCURVE",
"454 -2 CURVE",
"454 -2 OFFCURVE",
"454 -2 OFFCURVE",
"453 -2 CURVE SMOOTH",
"452 -2 OFFCURVE",
"452 -2 OFFCURVE",
"452 -2 CURVE",
"448 -2 LINE",
"410 -4 OFFCURVE",
"374 -17 OFFCURVE",
"340 -36 CURVE",
"337 -105 LINE SMOOTH"
);
}
);
width = 568;
}
);
unicode = 062C;
},
{
glyphname = "jeh-ar";
lastChange = "2013-06-18 11:04:46 +0330";
layers = (
{
layerId = "3D323242-F336-407C-B164-DE86AA499667";
name = "Regular";
paths = (
{
closed = 1;
nodes = (
"642 807 LINE",
"644 635 OFFCURVE",
"646 504 OFFCURVE",
"648 414 CURVE SMOOTH",
"648 410 LINE SMOOTH",
"648 387 OFFCURVE",
"647 358 OFFCURVE",
"646 323 CURVE SMOOTH",
"644 288 OFFCURVE",
"643 261 OFFCURVE",
"643 243 CURVE SMOOTH",
"643 223 OFFCURVE",
"643 207 OFFCURVE",
"644 196 CURVE SMOOTH",
"649 112 OFFCURVE",
"653 76 OFFCURVE",
"678 13 CURVE",
"689 -18 OFFCURVE",
"708 -36 OFFCURVE",
"735 -41 CURVE",
"738 -42 OFFCURVE",
"744 -42 OFFCURVE",
"751 -42 CURVE SMOOTH",
"766 -42 OFFCURVE",
"788 -40 OFFCURVE",
"817 -36 CURVE SMOOTH",
"845 -32 OFFCURVE",
"867 -30 OFFCURVE",
"882 -30 CURVE SMOOTH",
"883 -30 OFFCURVE",
"886 -30 OFFCURVE",
"889 -30 CURVE",
"892 -31 OFFCURVE",
"895 -31 OFFCURVE",
"897 -31 CURVE SMOOTH",
"926 -31 OFFCURVE",
"956 -44 OFFCURVE",
"987 -71 CURVE",
"1003 -86 OFFCURVE",
"1013 -100 OFFCURVE",
"1022 -123 CURVE",
"1027 -134 OFFCURVE",
"1031 -144 OFFCURVE",
"1036 -151 CURVE",
"924 -102 OFFCURVE",
"911 -98 OFFCURVE",
"843 -89 CURVE SMOOTH",
"834 -88 OFFCURVE",
"821 -87 OFFCURVE",
"806 -87 CURVE SMOOTH",
"800 -87 OFFCURVE",
"792 -87 OFFCURVE",
"782 -87 CURVE",
"772 -88 OFFCURVE",
"764 -88 OFFCURVE",
"759 -88 CURVE SMOOTH",
"741 -88 OFFCURVE",
"724 -86 OFFCURVE",
"707 -83 CURVE SMOOTH",
"688 -79 OFFCURVE",
"676 -72 OFFCURVE",
"658 -60 CURVE",
"649 -55 OFFCURVE",
"641 -50 OFFCURVE",
"634 -47 CURVE",
"629 -54 OFFCURVE",
"607 -81 OFFCURVE",
"594 -93 CURVE SMOOTH",
"530 -152 OFFCURVE",
"493 -174 OFFCURVE",
"442 -183 CURVE SMOOTH",
"429 -185 OFFCURVE",
"417 -186 OFFCURVE",
"408 -186 CURVE SMOOTH",
"385 -186 OFFCURVE",
"352 -182 OFFCURVE",
"324 -170 CURVE SMOOTH",
"309 -164 OFFCURVE",
"297 -160 OFFCURVE",
"287 -159 CURVE SMOOTH",
"278 -158 OFFCURVE",
"272 -157 OFFCURVE",
"269 -157 CURVE SMOOTH",
"254 -157 OFFCURVE",
"240 -163 OFFCURVE",
"229 -169 CURVE",
"224 -172 OFFCURVE",
"218 -176 OFFCURVE",
"212 -180 CURVE",
"205 -184 OFFCURVE",
"200 -187 OFFCURVE",
"195 -190 CURVE",
"196 -188 OFFCURVE",
"196 -184 OFFCURVE",
"196 -179 CURVE SMOOTH",
"196 -176 OFFCURVE",
"196 -171 OFFCURVE",
"196 -165 CURVE",
"195 -159 OFFCURVE",
"195 -155 OFFCURVE",
"195 -152 CURVE SMOOTH",
"195 -147 OFFCURVE",
"197 -145 OFFCURVE",
"202 -142 CURVE",
"205 -141 OFFCURVE",
"207 -139 OFFCURVE",
"209 -137 CURVE SMOOTH",
"226 -120 OFFCURVE",
"252 -111 OFFCURVE",
"287 -111 CURVE SMOOTH",
"298 -111 LINE SMOOTH",
"311 -111 OFFCURVE",
"329 -113 OFFCURVE",
"350 -117 CURVE SMOOTH",
"392 -126 OFFCURVE",
"427 -127 OFFCURVE",
"438 -127 CURVE SMOOTH",
"462 -127 OFFCURVE",
"493 -122 OFFCURVE",
"505 -105 CURVE SMOOTH",
"511 -96 OFFCURVE",
"516 -88 OFFCURVE",
"520 -79 CURVE",
"522 -76 OFFCURVE",
"523 -72 OFFCURVE",
"523 -69 CURVE SMOOTH",
"523 -60 OFFCURVE",
"519 -54 OFFCURVE",
"512 -53 CURVE SMOOTH",
"493 -50 OFFCURVE",
"473 -49 OFFCURVE",
"453 -49 CURVE SMOOTH",
"442 -49 OFFCURVE",
"424 -50 OFFCURVE",
"400 -51 CURVE SMOOTH",
"376 -52 OFFCURVE",
"356 -53 OFFCURVE",
"341 -53 CURVE SMOOTH",
"326 -53 OFFCURVE",
"306 -52 OFFCURVE",
"282 -49 CURVE SMOOTH",
"258 -46 OFFCURVE",
"241 -45 OFFCURVE",
"230 -45 CURVE SMOOTH",
"191 -45 OFFCURVE",
"154 -57 OFFCURVE",
"127 -73 CURVE",
"113 -82 OFFCURVE",
"98 -93 OFFCURVE",
"82 -106 CURVE SMOOTH",
"66 -119 OFFCURVE",
"52 -130 OFFCURVE",
"40 -137 CURVE",
"67 -59 LINE",
"96 -22 OFFCURVE",
"110 -15 OFFCURVE",
"175 6 CURVE",
"192 9 OFFCURVE",
"210 11 OFFCURVE",
"229 11 CURVE SMOOTH",
"248 11 OFFCURVE",
"273 9 OFFCURVE",
"302 6 CURVE SMOOTH",
"331 2 OFFCURVE",
"355 0 OFFCURVE",
"374 -1 CURVE",
"381 -1 OFFCURVE",
"392 -2 OFFCURVE",
"406 -3 CURVE SMOOTH",
"419 -4 OFFCURVE",
"430 -5 OFFCURVE",
"437 -5 CURVE SMOOTH",
"484 -5 OFFCURVE",
"514 -3 OFFCURVE",
"529 1 CURVE SMOOTH",
"543 5 OFFCURVE",
"554 14 OFFCURVE",
"562 29 CURVE",
"570 56 OFFCURVE",
"576 95 OFFCURVE",
"580 146 CURVE SMOOTH",
"585 221 LINE",
"585 244 OFFCURVE",
"583 275 OFFCURVE",
"580 316 CURVE SMOOTH",
"576 357 OFFCURVE",
"574 390 OFFCURVE",
"574 416 CURVE SMOOTH",
"574 458 LINE SMOOTH",
"574 557 OFFCURVE",
"579 751 OFFCURVE",
"580 808 CURVE"
);
}
);
width = 1076;
}
);
unicode = 0698;
},
{
glyphname = "kaf-ar";
lastChange = "2013-06-18 11:04:53 +0330";
layers = (
{
layerId = "3D323242-F336-407C-B164-DE86AA499667";
name = "Regular";
paths = (
{
closed = 1;
nodes = (
"1024 51 LINE SMOOTH",
"1037 51 OFFCURVE",
"1048 39 OFFCURVE",
"1048 26 CURVE SMOOTH",
"1048 13 OFFCURVE",
"1037 1 OFFCURVE",
"1024 1 CURVE SMOOTH",
"514 1 LINE",
"563 -54 OFFCURVE",
"588 -84 OFFCURVE",
"615 -144 CURVE SMOOTH",
"628 -175 OFFCURVE",
"635 -205 OFFCURVE",
"635 -234 CURVE SMOOTH",
"635 -247 OFFCURVE",
"625 -258 OFFCURVE",
"612 -258 CURVE SMOOTH",
"599 -258 OFFCURVE",
"588 -247 OFFCURVE",
"588 -234 CURVE SMOOTH",
"588 -190 OFFCURVE",
"569 -145 OFFCURVE",
"542 -109 CURVE SMOOTH",
"515 -73 OFFCURVE",
"482 -32 OFFCURVE",
"450 1 CURVE",
"64 1 LINE SMOOTH",
"51 1 OFFCURVE",
"40 13 OFFCURVE",
"40 26 CURVE SMOOTH",
"40 39 OFFCURVE",
"51 51 OFFCURVE",
"64 51 CURVE SMOOTH",
"410 51 LINE",
"379 92 OFFCURVE",
"363 131 OFFCURVE",
"363 168 CURVE SMOOTH",
"363 225 OFFCURVE",
"386 271 OFFCURVE",
"418 295 CURVE SMOOTH",
"449 318 OFFCURVE",
"483 330 OFFCURVE",
"514 330 CURVE SMOOTH",
"565 330 OFFCURVE",
"607 302 OFFCURVE",
"627 267 CURVE SMOOTH",
"646 231 OFFCURVE",
"655 201 OFFCURVE",
"655 185 CURVE SMOOTH",
"655 140 OFFCURVE",
"613 81 OFFCURVE",
"562 81 CURVE",
"534 84 OFFCURVE",
"495 122 OFFCURVE",
"479 153 CURVE",
"473 169 OFFCURVE",
"470 179 OFFCURVE",
"470 184 CURVE SMOOTH",
"470 197 OFFCURVE",
"476 205 OFFCURVE",
"480 206 CURVE SMOOTH",
"484 207 LINE",
"492 207 OFFCURVE",
"503 181 OFFCURVE",
"507 170 CURVE",
"516 151 OFFCURVE",
"542 129 OFFCURVE",
"562 129 CURVE SMOOTH",
"585 129 OFFCURVE",
"608 163 OFFCURVE",
"608 186 CURVE SMOOTH",
"608 189 OFFCURVE",
"607 194 OFFCURVE",
"604 203 CURVE SMOOTH",
"598 220 OFFCURVE",
"588 249 OFFCURVE",
"561 269 CURVE SMOOTH",
"548 278 OFFCURVE",
"532 283 OFFCURVE",
"514 283 CURVE SMOOTH",
"497 283 OFFCURVE",
"475 277 OFFCURVE",
"451 262 CURVE SMOOTH",
"427 246 OFFCURVE",
"410 212 OFFCURVE",
"410 168 CURVE SMOOTH",
"410 137 OFFCURVE",
"430 98 OFFCURVE",
"470 51 CURVE"
);
}
);
width = 1088;
}
);
unicode = 0643;
},
{
glyphname = "keheh-ar";
lastChange = "2013-06-18 11:05:24 +0330";
layers = (
{
layerId = "3D323242-F336-407C-B164-DE86AA499667";
name = "Regular";
paths = (
{
closed = 1;
nodes = (
"1024 51 LINE SMOOTH",
"1037 51 OFFCURVE",
"1048 39 OFFCURVE",
"1048 26 CURVE SMOOTH",
"1048 13 OFFCURVE",
"1037 1 OFFCURVE",
"1024 1 CURVE SMOOTH",
"514 1 LINE",
"563 -54 OFFCURVE",
"588 -84 OFFCURVE",
"615 -144 CURVE SMOOTH",
"628 -175 OFFCURVE",
"635 -205 OFFCURVE",
"635 -234 CURVE SMOOTH",
"635 -247 OFFCURVE",
"625 -258 OFFCURVE",
"612 -258 CURVE SMOOTH",
"599 -258 OFFCURVE",
"588 -247 OFFCURVE",
"588 -234 CURVE SMOOTH",
"588 -190 OFFCURVE",
"569 -145 OFFCURVE",
"542 -109 CURVE SMOOTH",
"515 -73 OFFCURVE",
"482 -32 OFFCURVE",
"450 1 CURVE",
"64 1 LINE SMOOTH",
"51 1 OFFCURVE",
"40 13 OFFCURVE",
"40 26 CURVE SMOOTH",
"40 39 OFFCURVE",
"51 51 OFFCURVE",
"64 51 CURVE SMOOTH",
"410 51 LINE",
"379 92 OFFCURVE",
"363 131 OFFCURVE",
"363 168 CURVE SMOOTH",
"363 225 OFFCURVE",
"386 271 OFFCURVE",
"418 295 CURVE SMOOTH",
"449 318 OFFCURVE",
"483 330 OFFCURVE",
"514 330 CURVE SMOOTH",
"565 330 OFFCURVE",
"607 302 OFFCURVE",
"627 267 CURVE SMOOTH",
"646 231 OFFCURVE",
"655 201 OFFCURVE",
"655 185 CURVE SMOOTH",
"655 140 OFFCURVE",
"613 81 OFFCURVE",
"562 81 CURVE",
"534 84 OFFCURVE",
"495 122 OFFCURVE",
"479 153 CURVE",
"473 169 OFFCURVE",
"470 179 OFFCURVE",
"470 184 CURVE SMOOTH",
"470 197 OFFCURVE",
"476 205 OFFCURVE",
"480 206 CURVE SMOOTH",
"484 207 LINE",
"492 207 OFFCURVE",
"503 181 OFFCURVE",
"507 170 CURVE",
"516 151 OFFCURVE",
"542 129 OFFCURVE",
"562 129 CURVE SMOOTH",
"585 129 OFFCURVE",
"608 163 OFFCURVE",
"608 186 CURVE SMOOTH",
"608 189 OFFCURVE",
"607 194 OFFCURVE",
"604 203 CURVE SMOOTH",
"598 220 OFFCURVE",
"588 249 OFFCURVE",
"561 269 CURVE SMOOTH",
"548 278 OFFCURVE",
"532 283 OFFCURVE",
"514 283 CURVE SMOOTH",
"497 283 OFFCURVE",
"475 277 OFFCURVE",
"451 262 CURVE SMOOTH",
"427 246 OFFCURVE",
"410 212 OFFCURVE",
"410 168 CURVE SMOOTH",
"410 137 OFFCURVE",
"430 98 OFFCURVE",
"470 51 CURVE"
);
}
);
width = 1088;
}
);
unicode = 06A9;
},
{
glyphname = "khah-ar";
lastChange = "2013-06-18 11:03:53 +0330";
layers = (
{
layerId = "3D323242-F336-407C-B164-DE86AA499667";
name = "Regular";
paths = (
{
closed = 1;
nodes = (
"285 -102 LINE",
"287 -33 LINE",
"301 330 LINE",
"301 333 LINE",
"301 394 OFFCURVE",
"276 438 OFFCURVE",
"222 444 CURVE",
"170 444 OFFCURVE",
"126 432 OFFCURVE",
"89 404 CURVE SMOOTH",
"54 379 OFFCURVE",
"40 389 OFFCURVE",
"40 407 CURVE",
"40 439 OFFCURVE",
"136 500 OFFCURVE",
"209 500 CURVE SMOOTH",
"269 500 OFFCURVE",
"364 453 OFFCURVE",
"364 333 CURVE SMOOTH",
"364 330 LINE",
"331 -250 LINE",
"330 -263 OFFCURVE",
"319 -275 OFFCURVE",
"306 -275 CURVE SMOOTH",
"293 -275 OFFCURVE",
"281 -263 OFFCURVE",
"281 -250 CURVE"
);
},
{
closed = 1;
nodes = (
"287 -33 LINE SMOOTH",
"287 -33 OFFCURVE",
"211 -2 OFFCURVE",
"173 0 CURVE",
"169 0 LINE",
"169 0 OFFCURVE",
"169 0 OFFCURVE",
"168 0 CURVE SMOOTH",
"167 0 OFFCURVE",
"167 0 OFFCURVE",
"167 0 CURVE",
"109 0 OFFCURVE",
"89 -36 OFFCURVE",
"94 -51 CURVE",
"98 -59 OFFCURVE",
"109 -61 OFFCURVE",
"123 -52 CURVE SMOOTH",
"139 -42 OFFCURVE",
"150 -38 OFFCURVE",
"176 -39 CURVE",
"240 -46 OFFCURVE",
"285 -87 OFFCURVE",
"285 -102 CURVE SMOOTH"
);
}
);
width = 404;
}
);
unicode = 062E;
},
{
glyphname = "lam-ar";
lastChange = "2013-06-18 11:05:43 +0330";
layers = (
{
layerId = "3D323242-F336-407C-B164-DE86AA499667";
name = "Regular";
paths = (
{
closed = 1;
nodes = (
"466 283 OFFCURVE",
"461 286 OFFCURVE",
"454 289 CURVE",
"356 289 LINE",
"350 288 OFFCURVE",
"343 285 OFFCURVE",
"335 281 CURVE SMOOTH",
"288 256 OFFCURVE",
"265 219 OFFCURVE",
"265 170 CURVE SMOOTH",
"265 94 OFFCURVE",
"328 31 OFFCURVE",
"405 31 CURVE SMOOTH",
"480 31 OFFCURVE",
"540 94 OFFCURVE",
"540 170 CURVE SMOOTH",
"540 218 OFFCURVE",
"517 255 OFFCURVE",
"470 280 CURVE"
);
},
{
closed = 1;
nodes = (
"460 368 LINE SMOOTH",
"481 368 OFFCURVE",
"500 350 OFFCURVE",
"500 329 CURVE SMOOTH",
"500 322 OFFCURVE",
"499 317 OFFCURVE",
"496 312 CURVE",
"553 280 OFFCURVE",
"581 233 OFFCURVE",
"581 172 CURVE SMOOTH",
"581 97 OFFCURVE",
"537 32 OFFCURVE",
"470 5 CURVE",
"514 -140 OFFCURVE",
"541 -225 OFFCURVE",
"553 -330 CURVE SMOOTH",
"570 -473 LINE",
"570 -475 OFFCURVE",
"571 -484 OFFCURVE",
"572 -501 CURVE SMOOTH",
"573 -518 OFFCURVE",
"573 -530 OFFCURVE",
"573 -537 CURVE SMOOTH",
"573 -560 OFFCURVE",
"574 -578 OFFCURVE",
"532 -580 CURVE SMOOTH",
"511 -581 OFFCURVE",
"458 -582 OFFCURVE",
"373 -582 CURVE SMOOTH",
"372 -582 OFFCURVE",
"370 -582 OFFCURVE",
"367 -582 CURVE",
"364 -583 OFFCURVE",
"361 -583 OFFCURVE",
"360 -583 CURVE SMOOTH",
"353 -583 OFFCURVE",
"349 -578 OFFCURVE",
"349 -567 CURVE SMOOTH",
"349 -532 OFFCURVE",
"389 -518 OFFCURVE",
"429 -518 CURVE SMOOTH",
"468 -519 OFFCURVE",
"508 -513 OFFCURVE",
"508 -489 CURVE SMOOTH",
"508 -422 OFFCURVE",
"489 -304 OFFCURVE",
"476 -254 CURVE SMOOTH",
"466 -217 OFFCURVE",
"439 -120 OFFCURVE",
"438 -116 CURVE SMOOTH",
"430 -87 OFFCURVE",
"422 -70 OFFCURVE",
"415 -65 CURVE",
"405 -65 LINE",
"398 -72 OFFCURVE",
"386 -115 OFFCURVE",
"369 -172 CURVE SMOOTH",
"347 -247 OFFCURVE",
"342 -274 OFFCURVE",
"338 -287 CURVE",
"336 -299 OFFCURVE",
"326 -342 OFFCURVE",
"297 -409 CURVE SMOOTH",
"271 -469 OFFCURVE",
"256 -516 OFFCURVE",
"251 -539 CURVE",
"251 -540 OFFCURVE",
"251 -543 OFFCURVE",
"252 -547 CURVE",
"252 -551 OFFCURVE",
"252 -554 OFFCURVE",
"252 -555 CURVE SMOOTH",
"252 -570 OFFCURVE",
"248 -577 OFFCURVE",
"239 -577 CURVE",
"225 -580 OFFCURVE",
"209 -582 OFFCURVE",
"191 -582 CURVE SMOOTH",
"184 -582 OFFCURVE",
"167 -581 OFFCURVE",
"140 -580 CURVE SMOOTH",
"113 -579 OFFCURVE",
"86 -578 OFFCURVE",
"60 -578 CURVE SMOOTH",
"49 -578 OFFCURVE",
"42 -571 OFFCURVE",
"41 -564 CURVE",
"40 -559 LINE",
"40 -551 OFFCURVE",
"42 -545 OFFCURVE",
"45 -542 CURVE SMOOTH",
"55 -532 OFFCURVE",
"70 -526 OFFCURVE",
"89 -523 CURVE SMOOTH",
"127 -518 OFFCURVE",
"170 -512 OFFCURVE",
"199 -481 CURVE",
"268 -295 LINE SMOOTH",
"278 -269 OFFCURVE",
"287 -227 OFFCURVE",
"312 -135 CURVE SMOOTH",
"332 -62 OFFCURVE",
"343 -9 OFFCURVE",
"346 2 CURVE",
"274 26 OFFCURVE",
"224 93 OFFCURVE",
"224 172 CURVE SMOOTH",
"224 232 OFFCURVE",
"258 285 OFFCURVE",
"310 314 CURVE",
"309 321 OFFCURVE",
"308 326 OFFCURVE",
"308 329 CURVE SMOOTH",
"308 350 OFFCURVE",
"326 368 OFFCURVE",
"347 368 CURVE SMOOTH"
);
},
{
closed = 1;
nodes = (
"345 342 LINE SMOOTH",
"336 342 OFFCURVE",
"332 338 OFFCURVE",
"332 329 CURVE SMOOTH",
"332 320 OFFCURVE",
"336 316 OFFCURVE",
"345 316 CURVE SMOOTH",
"459 316 LINE SMOOTH",
"468 316 OFFCURVE",
"472 320 OFFCURVE",
"472 329 CURVE SMOOTH",
"472 338 OFFCURVE",
"468 342 OFFCURVE",
"459 342 CURVE SMOOTH"
);
}
);
width = 621;
}
);
unicode = 0644;
},
{
glyphname = "meem-ar";
lastChange = "2013-06-18 11:06:04 +0330";
layers = (
{
layerId = "3D323242-F336-407C-B164-DE86AA499667";
name = "Regular";
paths = (
{
closed = 1;
nodes = (
"306 154 OFFCURVE",
"321 162 OFFCURVE",
"331 171 CURVE",
"328 217 OFFCURVE",
"326 252 OFFCURVE",
"323 277 CURVE",
"321 269 OFFCURVE",
"317 253 OFFCURVE",
"312 230 CURVE SMOOTH",
"306 206 OFFCURVE",
"300 186 OFFCURVE",
"295 171 CURVE",
"294 167 OFFCURVE",
"290 159 OFFCURVE",
"285 146 CURVE"
);
},
{
closed = 1;
nodes = (
"366 35 LINE",
"391 55 OFFCURVE",
"400 64 OFFCURVE",
"412 96 CURVE",
"413 101 OFFCURVE",
"415 108 OFFCURVE",
"416 117 CURVE",
"416 121 OFFCURVE",
"416 124 OFFCURVE",
"417 127 CURVE",
"417 283 LINE",
"415 276 OFFCURVE",
"413 265 OFFCURVE",
"410 249 CURVE SMOOTH",
"405 217 OFFCURVE",
"398 195 OFFCURVE",
"381 170 CURVE SMOOTH",
"357 134 OFFCURVE",
"333 119 OFFCURVE",
"285 104 CURVE SMOOTH",
"260 96 OFFCURVE",
"225 91 OFFCURVE",
"182 88 CURVE SMOOTH",
"138 85 OFFCURVE",
"104 78 OFFCURVE",
"80 68 CURVE",
"81 64 OFFCURVE",
"84 57 OFFCURVE",
"90 46 CURVE",
"90 45 OFFCURVE",
"93 44 OFFCURVE",
"98 43 CURVE",
"107 42 OFFCURVE",
"113 40 OFFCURVE",
"116 39 CURVE"
);
},
{
closed = 1;
nodes = (
"113 -1 LINE SMOOTH",
"112 -1 OFFCURVE",
"110 0 OFFCURVE",
"106 1 CURVE",
"103 2 OFFCURVE",
"98 3 OFFCURVE",
"91 4 CURVE SMOOTH",
"62 9 OFFCURVE",
"42 42 OFFCURVE",
"41 65 CURVE",
"40 63 LINE",
"40 70 LINE SMOOTH",
"40 103 OFFCURVE",
"83 114 OFFCURVE",
"121 121 CURVE SMOOTH",
"140 124 OFFCURVE",
"160 127 OFFCURVE",
"182 128 CURVE SMOOTH",
"204 129 OFFCURVE",
"221 131 OFFCURVE",
"234 133 CURVE",
"255 173 OFFCURVE",
"261 190 OFFCURVE",
"276 254 CURVE SMOOTH",
"283 286 OFFCURVE",
"291 312 OFFCURVE",
"300 331 CURVE",
"301 332 OFFCURVE",
"303 334 OFFCURVE",
"304 336 CURVE",
"309 342 OFFCURVE",
"314 346 OFFCURVE",
"321 347 CURVE",
"322 348 OFFCURVE",
"324 348 OFFCURVE",
"328 348 CURVE SMOOTH",
"344 348 OFFCURVE",
"353 341 OFFCURVE",
"356 327 CURVE",
"360 304 OFFCURVE",
"362 276 OFFCURVE",
"362 244 CURVE SMOOTH",
"362 241 OFFCURVE",
"362 238 OFFCURVE",
"362 233 CURVE SMOOTH",
"362 228 OFFCURVE",
"362 224 OFFCURVE",
"362 221 CURVE",
"365 228 OFFCURVE",
"369 245 OFFCURVE",
"374 270 CURVE SMOOTH",
"379 295 OFFCURVE",
"385 316 OFFCURVE",
"393 333 CURVE SMOOTH",
"398 344 OFFCURVE",
"407 349 OFFCURVE",
"418 349 CURVE SMOOTH",
"421 349 OFFCURVE",
"425 349 OFFCURVE",
"429 348 CURVE",
"432 347 OFFCURVE",
"434 346 OFFCURVE",
"435 346 CURVE",
"447 347 OFFCURVE",
"457 337 OFFCURVE",
"457 326 CURVE SMOOTH",
"457 125 LINE",
"456 124 LINE",
"456 123 OFFCURVE",
"456 123 OFFCURVE",
"456 122 CURVE",
"451 78 OFFCURVE",
"443 58 OFFCURVE",
"422 33 CURVE",
"414 22 OFFCURVE",
"407 17 OFFCURVE",
"398 10 CURVE",
"393 7 OFFCURVE",
"389 3 OFFCURVE",
"386 0 CURVE",
"375 0 LINE",
"357 0 LINE",
"352 0 LINE",
"350 -576 LINE",
"350 -577 LINE SMOOTH",
"350 -589 OFFCURVE",
"343 -596 OFFCURVE",
"330 -597 CURVE",
"319 -597 OFFCURVE",
"310 -588 OFFCURVE",
"310 -577 CURVE SMOOTH",
"312 -1 LINE"
);
}
);
width = 497;
}
);
unicode = 0645;
},
{
glyphname = "noon-ar";
lastChange = "2013-06-18 11:09:33 +0330";
layers = (
{
layerId = "3D323242-F336-407C-B164-DE86AA499667";
name = "Regular";
paths = (
{
closed = 1;
nodes = (
"84 49 LINE",
"350 49 LINE",
"350 475 LINE SMOOTH",
"350 488 OFFCURVE",
"360 498 OFFCURVE",
"372 498 CURVE SMOOTH",
"682 498 LINE SMOOTH",
"695 498 OFFCURVE",
"704 488 OFFCURVE",
"704 475 CURVE SMOOTH",
"704 0 LINE",
"659 0 LINE",
"659 453 LINE",
"395 453 LINE",
"395 27 LINE",
"394 27 LINE",
"394 12 OFFCURVE",
"387 4 OFFCURVE",
"373 4 CURVE SMOOTH",
"62 4 LINE SMOOTH",
"49 4 OFFCURVE",
"40 14 OFFCURVE",
"40 27 CURVE SMOOTH",
"40 502 LINE",
"84 502 LINE"
);
}
);
width = 744;
}
);
unicode = 0646;
},
{
glyphname = "peh-ar";
lastChange = "2013-06-18 11:09:39 +0330";
layers = (
{
layerId = "3D323242-F336-407C-B164-DE86AA499667";
name = "Regular";
paths = (
{
closed = 1;
nodes = (
"80 8 OFFCURVE",
"80 5 OFFCURVE",
"81 3 CURVE",
"85 3 LINE SMOOTH",
"91 3 OFFCURVE",
"98 5 OFFCURVE",
"105 8 CURVE SMOOTH",
"112 11 OFFCURVE",
"119 14 OFFCURVE",
"124 15 CURVE",
"128 16 OFFCURVE",
"146 20 OFFCURVE",
"179 28 CURVE SMOOTH",
"212 35 OFFCURVE",
"237 40 OFFCURVE",
"254 41 CURVE SMOOTH",
"267 42 OFFCURVE",
"288 44 OFFCURVE",
"317 47 CURVE SMOOTH",
"346 50 OFFCURVE",
"369 52 OFFCURVE",
"388 52 CURVE SMOOTH",
"401 52 OFFCURVE",
"412 52 OFFCURVE",
"419 51 CURVE",
"530 43 OFFCURVE",
"639 28 OFFCURVE",
"748 7 CURVE SMOOTH",
"787 -1 OFFCURVE",
"821 -16 OFFCURVE",
"850 -39 CURVE SMOOTH",
"862 -48 OFFCURVE",
"872 -60 OFFCURVE",
"881 -73 CURVE",
"897 -101 OFFCURVE",
"907 -122 OFFCURVE",
"928 -130 CURVE",
"931 -130 LINE SMOOTH",
"934 -130 OFFCURVE",
"937 -128 OFFCURVE",
"939 -125 CURVE",
"948 -116 OFFCURVE",
"984 -53 OFFCURVE",
"984 -30 CURVE SMOOTH",
"984 -25 OFFCURVE",
"983 -19 OFFCURVE",
"981 -12 CURVE",
"977 -5 OFFCURVE",
"970 -6 OFFCURVE",
"961 -6 CURVE SMOOTH",
"952 -6 OFFCURVE",
"943 -5 OFFCURVE",
"927 0 CURVE SMOOTH",
"906 7 OFFCURVE",
"882 15 OFFCURVE",
"855 26 CURVE SMOOTH",
"802 47 OFFCURVE",
"762 60 OFFCURVE",
"711 71 CURVE SMOOTH",
"642 85 OFFCURVE",
"558 92 OFFCURVE",
"461 93 CURVE SMOOTH",
"436 93 LINE SMOOTH",
"280 93 OFFCURVE",
"172 71 OFFCURVE",
"80 12 CURVE"
);
},
{
closed = 1;
nodes = (
"43 -12 LINE SMOOTH",
"43 -9 OFFCURVE",
"43 -5 OFFCURVE",
"42 0 CURVE SMOOTH",
"41 5 OFFCURVE",
"40 10 OFFCURVE",
"40 13 CURVE SMOOTH",
"40 27 OFFCURVE",
"45 37 OFFCURVE",
"55 44 CURVE",
"114 81 OFFCURVE",
"151 97 OFFCURVE",
"222 112 CURVE SMOOTH",
"287 126 OFFCURVE",
"358 133 OFFCURVE",
"436 133 CURVE SMOOTH",
"461 133 LINE SMOOTH",
"562 132 OFFCURVE",
"648 124 OFFCURVE",
"718 110 CURVE SMOOTH",
"771 99 OFFCURVE",
"814 85 OFFCURVE",
"868 64 CURVE SMOOTH",
"895 53 OFFCURVE",
"919 45 OFFCURVE",
"940 38 CURVE",
"941 38 OFFCURVE",
"1006 37 OFFCURVE",
"1018 2 CURVE SMOOTH",
"1022 -9 OFFCURVE",
"1024 -19 OFFCURVE",
"1024 -30 CURVE SMOOTH",
"1024 -51 OFFCURVE",
"1014 -77 OFFCURVE",
"995 -110 CURVE SMOOTH",
"971 -155 OFFCURVE",
"958 -170 OFFCURVE",
"931 -170 CURVE SMOOTH",
"928 -170 OFFCURVE",
"923 -169 OFFCURVE",
"916 -168 CURVE",
"884 -157 OFFCURVE",
"866 -130 OFFCURVE",
"850 -101 CURVE SMOOTH",
"842 -87 OFFCURVE",
"834 -77 OFFCURVE",
"826 -71 CURVE",
"805 -54 OFFCURVE",
"782 -43 OFFCURVE",
"757 -36 CURVE",
"754 -40 OFFCURVE",
"752 -42 OFFCURVE",
"749 -43 CURVE",
"744 -45 OFFCURVE",
"738 -48 OFFCURVE",
"729 -53 CURVE SMOOTH",
"711 -63 OFFCURVE",
"695 -72 OFFCURVE",
"676 -76 CURVE",
"665 -79 OFFCURVE",
"648 -84 OFFCURVE",
"627 -91 CURVE SMOOTH",
"584 -106 OFFCURVE",
"555 -113 OFFCURVE",
"523 -113 CURVE SMOOTH",
"499 -113 OFFCURVE",
"453 -106 OFFCURVE",
"414 -83 CURVE SMOOTH",
"395 -72 OFFCURVE",
"374 -57 OFFCURVE",
"353 -39 CURVE",
"331 -22 OFFCURVE",
"313 -9 OFFCURVE",
"298 0 CURVE",
"297 0 OFFCURVE",
"297 1 OFFCURVE",
"296 2 CURVE SMOOTH",
"295 3 OFFCURVE",
"294 4 OFFCURVE",
"293 4 CURVE",
"282 3 OFFCURVE",
"270 2 OFFCURVE",
"257 1 CURVE SMOOTH",
"246 0 OFFCURVE",
"204 -8 OFFCURVE",
"132 -25 CURVE",
"131 -25 OFFCURVE",
"126 -27 OFFCURVE",
"117 -31 CURVE",
"107 -35 OFFCURVE",
"96 -37 OFFCURVE",
"85 -37 CURVE SMOOTH",
"77 -37 OFFCURVE",
"42 -38 OFFCURVE",
"42 -15 CURVE SMOOTH",
"42 -14 OFFCURVE",
"42 -14 OFFCURVE",
"43 -13 CURVE"
);
},
{
closed = 1;
nodes = (
"499 -72 OFFCURVE",
"511 -73 OFFCURVE",
"523 -73 CURVE SMOOTH",
"551 -73 OFFCURVE",
"575 -66 OFFCURVE",
"615 -53 CURVE SMOOTH",
"635 -46 OFFCURVE",
"652 -41 OFFCURVE",
"667 -37 CURVE SMOOTH",
"679 -34 OFFCURVE",
"690 -30 OFFCURVE",
"699 -24 CURVE",
"614 -8 OFFCURVE",
"519 4 OFFCURVE",
"416 11 CURVE",
"409 12 OFFCURVE",
"400 12 OFFCURVE",
"388 12 CURVE SMOOTH",
"384 12 OFFCURVE",
"378 12 OFFCURVE",
"371 12 CURVE",
"363 11 OFFCURVE",
"357 11 OFFCURVE",
"354 11 CURVE",
"391 -22 OFFCURVE",
"437 -58 OFFCURVE",
"488 -69 CURVE"
);
}
);
width = 1064;
}
);
unicode = 067E;
},
{
glyphname = "qaf-ar";
lastChange = "2013-06-18 11:09:47 +0330";
layers = (
{
layerId = "3D323242-F336-407C-B164-DE86AA499667";
name = "Regular";
paths = (
{
closed = 1;
nodes = (
"40 447 LINE SMOOTH",
"40 460 OFFCURVE",
"50 470 OFFCURVE",
"63 470 CURVE SMOOTH",
"673 470 LINE SMOOTH",
"686 470 OFFCURVE",
"696 460 OFFCURVE",
"696 447 CURVE SMOOTH",
"696 23 LINE SMOOTH",
"696 10 OFFCURVE",
"686 0 OFFCURVE",
"673 0 CURVE SMOOTH",
"386 0 LINE SMOOTH",
"373 0 OFFCURVE",
"364 10 OFFCURVE",
"364 23 CURVE SMOOTH",
"364 259 LINE",
"409 259 LINE",
"409 45 LINE",
"651 45 LINE",
"651 425 LINE",
"85 425 LINE",
"85 19 LINE",
"40 19 LINE"
);
}
);
width = 736;
}
);
unicode = 0642;
},
{
glyphname = "reh-ar";
lastChange = "2013-06-18 11:11:17 +0330";
layers = (
{
layerId = "3D323242-F336-407C-B164-DE86AA499667";
name = "Regular";
paths = (
{
closed = 1;
nodes = (
"487 867 LINE",
"489 695 OFFCURVE",
"491 564 OFFCURVE",
"493 474 CURVE SMOOTH",
"493 470 LINE SMOOTH",
"493 447 OFFCURVE",
"492 418 OFFCURVE",
"491 383 CURVE SMOOTH",
"489 348 OFFCURVE",
"488 321 OFFCURVE",
"488 303 CURVE SMOOTH",
"488 283 OFFCURVE",
"488 267 OFFCURVE",
"489 256 CURVE SMOOTH",
"501 55 OFFCURVE",
"472 9 OFFCURVE",
"439 -33 CURVE SMOOTH",
"385 -102 OFFCURVE",
"338 -114 OFFCURVE",
"287 -123 CURVE SMOOTH",
"274 -125 OFFCURVE",
"262 -126 OFFCURVE",
"253 -126 CURVE SMOOTH",
"230 -126 OFFCURVE",
"197 -122 OFFCURVE",
"169 -110 CURVE SMOOTH",
"154 -104 OFFCURVE",
"142 -100 OFFCURVE",
"132 -99 CURVE SMOOTH",
"123 -98 OFFCURVE",
"117 -97 OFFCURVE",
"114 -97 CURVE SMOOTH",
"99 -97 OFFCURVE",
"85 -103 OFFCURVE",
"74 -109 CURVE",
"69 -112 OFFCURVE",
"63 -116 OFFCURVE",
"57 -120 CURVE",
"50 -124 OFFCURVE",
"45 -127 OFFCURVE",
"40 -130 CURVE",
"41 -128 OFFCURVE",
"41 -124 OFFCURVE",
"41 -119 CURVE SMOOTH",
"41 -116 OFFCURVE",
"41 -111 OFFCURVE",
"41 -105 CURVE",
"40 -99 OFFCURVE",
"40 -95 OFFCURVE",
"40 -92 CURVE SMOOTH",
"40 -87 OFFCURVE",
"42 -85 OFFCURVE",
"47 -82 CURVE",
"50 -81 OFFCURVE",
"52 -79 OFFCURVE",
"54 -77 CURVE SMOOTH",
"71 -60 OFFCURVE",
"97 -51 OFFCURVE",
"132 -51 CURVE SMOOTH",
"143 -51 LINE SMOOTH",
"156 -51 OFFCURVE",
"174 -53 OFFCURVE",
"195 -57 CURVE SMOOTH",
"237 -66 OFFCURVE",
"272 -67 OFFCURVE",
"283 -67 CURVE SMOOTH",
"307 -67 OFFCURVE",
"338 -62 OFFCURVE",
"350 -45 CURVE SMOOTH",
"356 -36 OFFCURVE",
"361 -28 OFFCURVE",
"365 -19 CURVE",
"367 -16 OFFCURVE",
"368 -12 OFFCURVE",
"368 -9 CURVE",
"407 89 LINE",
"415 116 OFFCURVE",
"421 155 OFFCURVE",
"425 206 CURVE SMOOTH",
"430 281 LINE",
"430 304 OFFCURVE",
"428 335 OFFCURVE",
"425 376 CURVE SMOOTH",
"421 417 OFFCURVE",
"419 450 OFFCURVE",
"419 476 CURVE SMOOTH",
"419 518 LINE SMOOTH",
"419 617 OFFCURVE",
"424 811 OFFCURVE",
"425 868 CURVE"
);
}
);
width = 533;
}
);
unicode = 0631;
},
{
glyphname = "sad-ar";
lastChange = "2013-06-18 11:11:23 +0330";
layers = (
{
layerId = "3D323242-F336-407C-B164-DE86AA499667";
name = "Regular";
paths = (
{
closed = 1;
nodes = (
"167 0 LINE SMOOTH",
"133 0 OFFCURVE",
"89 11 OFFCURVE",
"56 32 CURVE",
"26 52 OFFCURVE",
"33 94 OFFCURVE",
"117 133 CURVE SMOOTH",
"155 151 OFFCURVE",
"207 176 OFFCURVE",
"263 177 CURVE",
"268 178 OFFCURVE",
"276 178 OFFCURVE",
"287 178 CURVE SMOOTH",
"375 178 OFFCURVE",
"459 158 OFFCURVE",
"539 117 CURVE",
"597 133 OFFCURVE",
"663 153 OFFCURVE",
"726 165 CURVE",
"731 165 LINE SMOOTH",
"746 165 OFFCURVE",
"755 158 OFFCURVE",
"758 143 CURVE",
"758 138 LINE SMOOTH",
"758 123 OFFCURVE",
"751 114 OFFCURVE",
"736 111 CURVE SMOOTH",
"701 105 OFFCURVE",
"655 90 OFFCURVE",
"610 79 CURVE",
"631 66 LINE SMOOTH",
"704 21 OFFCURVE",
"730 -28 OFFCURVE",
"763 -129 CURVE SMOOTH",
"772 -156 OFFCURVE",
"776 -186 OFFCURVE",
"776 -217 CURVE SMOOTH",
"776 -228 OFFCURVE",
"776 -242 OFFCURVE",
"775 -261 CURVE SMOOTH",
"774 -280 OFFCURVE",
"773 -295 OFFCURVE",
"773 -304 CURVE SMOOTH",
"773 -348 OFFCURVE",
"782 -382 OFFCURVE",
"796 -415 CURVE SMOOTH",
"803 -432 OFFCURVE",
"812 -451 OFFCURVE",
"823 -472 CURVE SMOOTH",
"834 -493 OFFCURVE",
"843 -511 OFFCURVE",
"849 -524 CURVE",
"850 -529 OFFCURVE",
"851 -533 OFFCURVE",
"851 -535 CURVE SMOOTH",
"851 -548 OFFCURVE",
"845 -556 OFFCURVE",
"834 -560 CURVE",
"832 -561 OFFCURVE",
"829 -562 OFFCURVE",
"824 -562 CURVE SMOOTH",
"812 -562 OFFCURVE",
"803 -557 OFFCURVE",
"798 -546 CURVE",
"795 -540 OFFCURVE",
"784 -517 OFFCURVE",
"764 -476 CURVE SMOOTH",
"724 -396 OFFCURVE",
"718 -349 OFFCURVE",
"718 -304 CURVE SMOOTH",
"718 -293 OFFCURVE",
"719 -277 OFFCURVE",
"720 -258 CURVE SMOOTH",
"721 -239 OFFCURVE",
"722 -226 OFFCURVE",
"722 -217 CURVE SMOOTH",
"722 -166 OFFCURVE",
"696 -91 OFFCURVE",
"668 -43 CURVE SMOOTH",
"654 -20 OFFCURVE",
"632 1 OFFCURVE",
"603 19 CURVE",
"533 59 LINE",
"429 32 OFFCURVE",
"403 24 OFFCURVE",
"311 11 CURVE SMOOTH",
"264 4 OFFCURVE",
"218 1 OFFCURVE",
"172 0 CURVE SMOOTH"
);
},
{
closed = 1;
nodes = (
"130 59 OFFCURVE",
"148 55 OFFCURVE",
"167 55 CURVE SMOOTH",
"171 55 LINE SMOOTH",
"256 56 OFFCURVE",
"350 70 OFFCURVE",
"453 95 CURVE",
"404 114 OFFCURVE",
"348 123 OFFCURVE",
"287 123 CURVE SMOOTH",
"265 123 LINE SMOOTH",
"221 122 OFFCURVE",
"170 103 OFFCURVE",
"112 66 CURVE"
);
}
);
width = 891;
}
);
unicode = 0635;
},
{
glyphname = "seen-ar";
lastChange = "2013-06-18 11:12:21 +0330";
layers = (
{
layerId = "3D323242-F336-407C-B164-DE86AA499667";
name = "Regular";
paths = (
{
closed = 1;
nodes = (
"246 294 OFFCURVE",
"248 281 OFFCURVE",
"248 270 CURVE SMOOTH",
"248 258 OFFCURVE",
"246 242 OFFCURVE",
"244 230 CURVE SMOOTH",
"241 212 OFFCURVE",
"239 196 OFFCURVE",
"239 189 CURVE SMOOTH",
"239 188 LINE",
"239 184 LINE SMOOTH",
"239 168 OFFCURVE",
"239 153 OFFCURVE",
"238 147 CURVE SMOOTH",
"237 141 OFFCURVE",
"237 128 OFFCURVE",
"237 114 CURVE SMOOTH",
"237 63 OFFCURVE",
"254 26 OFFCURVE",
"279 21 CURVE",
"280 20 OFFCURVE",
"283 20 OFFCURVE",
"287 20 CURVE SMOOTH",
"297 20 OFFCURVE",
"306 25 OFFCURVE",
"309 33 CURVE SMOOTH",
"318 52 OFFCURVE",
"325 90 OFFCURVE",
"326 129 CURVE SMOOTH",
"327 149 OFFCURVE",
"329 170 OFFCURVE",
"331 184 CURVE SMOOTH",
"332 186 OFFCURVE",
"332 195 OFFCURVE",
"332 207 CURVE SMOOTH",
"332 221 LINE SMOOTH",
"332 235 OFFCURVE",
"336 256 OFFCURVE",
"342 274 CURVE",
"359 292 OFFCURVE",
"376 305 OFFCURVE",
"384 307 CURVE",
"389 307 OFFCURVE",
"397 309 OFFCURVE",
"404 311 CURVE SMOOTH",
"410 313 OFFCURVE",
"418 315 OFFCURVE",
"422 315 CURVE SMOOTH",
"423 315 LINE",
"441 313 OFFCURVE",
"460 309 OFFCURVE",
"470 304 CURVE SMOOTH",
"485 298 OFFCURVE",
"497 288 OFFCURVE",
"502 280 CURVE",
"506 274 LINE",
"515 256 OFFCURVE",
"523 229 OFFCURVE",
"526 207 CURVE",
"526 209 OFFCURVE",
"528 196 OFFCURVE",
"530 176 CURVE SMOOTH",
"531 162 OFFCURVE",
"532 148 OFFCURVE",
"532 141 CURVE SMOOTH",
"532 136 OFFCURVE",
"532 129 OFFCURVE",
"532 120 CURVE",
"531 116 OFFCURVE",
"531 109 OFFCURVE",
"531 102 CURVE SMOOTH",
"531 86 OFFCURVE",
"534 69 OFFCURVE",
"538 59 CURVE",
"541 54 OFFCURVE",
"547 51 OFFCURVE",
"554 50 CURVE",
"555 50 OFFCURVE",
"556 50 OFFCURVE",
"557 50 CURVE",
"558 49 OFFCURVE",
"559 49 OFFCURVE",
"561 49 CURVE SMOOTH",
"566 49 OFFCURVE",
"571 54 OFFCURVE",
"574 61 CURVE",
"578 69 OFFCURVE",
"583 91 OFFCURVE",
"587 117 CURVE",
"590 141 OFFCURVE",
"597 167 OFFCURVE",
"605 182 CURVE SMOOTH",
"612 195 OFFCURVE",
"626 209 OFFCURVE",
"640 217 CURVE",
"648 221 OFFCURVE",
"662 224 OFFCURVE",
"676 225 CURVE",
"679 225 LINE",
"679 225 OFFCURVE",
"679 225 OFFCURVE",
"680 225 CURVE SMOOTH",
"681 225 OFFCURVE",
"681 225 OFFCURVE",
"681 225 CURVE",
"701 225 OFFCURVE",
"727 211 OFFCURVE",
"745 189 CURVE",
"754 177 OFFCURVE",
"763 154 OFFCURVE",
"767 132 CURVE SMOOTH",
"765 139 OFFCURVE",
"767 131 OFFCURVE",
"772 111 CURVE",
"772 111 OFFCURVE",
"775 101 OFFCURVE",
"780 87 CURVE SMOOTH",
"782 76 OFFCURVE",
"785 68 OFFCURVE",
"788 67 CURVE",
"796 62 OFFCURVE",
"812 58 OFFCURVE",
"827 58 CURVE SMOOTH",
"913 58 OFFCURVE",
"949 58 OFFCURVE",
"959 57 CURVE SMOOTH",
"969 56 OFFCURVE",
"987 56 OFFCURVE",
"1004 56 CURVE",
"1023 53 OFFCURVE",
"1029 53 OFFCURVE",
"1022 54 CURVE SMOOTH",
"1024 53 OFFCURVE",
"1030 53 OFFCURVE",
"1038 53 CURVE SMOOTH",
"1051 53 LINE",
"1063 51 OFFCURVE",
"1071 46 OFFCURVE",
"1072 39 CURVE",
"1073 38 LINE",
"1073 27 OFFCURVE",
"1064 20 OFFCURVE",
"1050 19 CURVE SMOOTH",
"1007 15 OFFCURVE",
"933 12 OFFCURVE",
"825 12 CURVE SMOOTH",
"812 12 LINE SMOOTH",
"775 12 OFFCURVE",
"744 31 OFFCURVE",
"734 59 CURVE SMOOTH",
"735 57 OFFCURVE",
"734 62 OFFCURVE",
"732 70 CURVE",
"731 75 OFFCURVE",
"728 84 OFFCURVE",
"725 93 CURVE",
"727 84 OFFCURVE",
"724 94 OFFCURVE",
"717 125 CURVE SMOOTH",
"714 140 OFFCURVE",
"708 154 OFFCURVE",
"704 159 CURVE",
"700 169 OFFCURVE",
"691 175 OFFCURVE",
"682 175 CURVE SMOOTH",
"681 175 OFFCURVE",
"681 175 OFFCURVE",
"680 175 CURVE SMOOTH",
"679 175 OFFCURVE",
"679 175 OFFCURVE",
"679 175 CURVE SMOOTH",
"678 175 LINE SMOOTH",
"674 175 OFFCURVE",
"667 174 OFFCURVE",
"662 172 CURVE",
"656 168 OFFCURVE",
"651 163 OFFCURVE",
"649 158 CURVE",
"643 147 OFFCURVE",
"638 125 OFFCURVE",
"636 103 CURVE SMOOTH",
"630 41 OFFCURVE",
"600 0 OFFCURVE",
"561 0 CURVE SMOOTH",
"549 0 LINE",
"508 5 OFFCURVE",
"481 46 OFFCURVE",
"481 102 CURVE SMOOTH",
"481 110 OFFCURVE",
"481 118 OFFCURVE",
"482 122 CURVE",
"482 131 OFFCURVE",
"482 137 OFFCURVE",
"482 141 CURVE SMOOTH",
"482 148 OFFCURVE",
"481 158 OFFCURVE",
"480 168 CURVE",
"473 234 LINE",
"463 252 OFFCURVE",
"456 262 OFFCURVE",
"456 261 CURVE SMOOTH",
"455 261 OFFCURVE",
"454 262 OFFCURVE",
"453 263 CURVE",
"448 266 OFFCURVE",
"445 267 OFFCURVE",
"445 267 CURVE",
"443 268 OFFCURVE",
"436 268 OFFCURVE",
"428 268 CURVE SMOOTH",
"424 268 OFFCURVE",
"418 266 OFFCURVE",
"413 264 CURVE",
"407 262 OFFCURVE",
"402 260 OFFCURVE",
"399 260 CURVE",
"385 246 LINE",
"382 221 LINE",
"382 207 LINE SMOOTH",
"382 202 OFFCURVE",
"381 189 OFFCURVE",
"380 176 CURVE",
"379 169 OFFCURVE",
"377 149 OFFCURVE",
"376 126 CURVE SMOOTH",
"375 86 OFFCURVE",
"366 40 OFFCURVE",
"354 12 CURVE SMOOTH",
"343 -13 OFFCURVE",
"316 -30 OFFCURVE",
"287 -30 CURVE SMOOTH",
"290 -30 OFFCURVE",
"282 -29 OFFCURVE",
"268 -28 CURVE",
"219 -17 OFFCURVE",
"187 40 OFFCURVE",
"187 114 CURVE SMOOTH",
"187 128 OFFCURVE",
"187 142 OFFCURVE",
"188 148 CURVE SMOOTH",
"189 154 OFFCURVE",
"189 168 OFFCURVE",
"189 184 CURVE SMOOTH",
"189 188 LINE",
"189 189 LINE SMOOTH",
"189 196 OFFCURVE",
"191 214 OFFCURVE",
"194 233 CURVE SMOOTH",
"196 246 OFFCURVE",
"198 261 OFFCURVE",
"198 270 CURVE SMOOTH",
"198 284 OFFCURVE",
"190 294 OFFCURVE",
"178 297 CURVE",
"152 289 OFFCURVE",
"126 283 OFFCURVE",
"113 283 CURVE SMOOTH",
"111 283 LINE SMOOTH",
"84 283 OFFCURVE",
"59 293 OFFCURVE",
"47 307 CURVE",
"43 311 OFFCURVE",
"40 319 OFFCURVE",
"40 326 CURVE SMOOTH",
"40 357 OFFCURVE",
"71 377 OFFCURVE",
"117 377 CURVE SMOOTH",
"134 377 OFFCURVE",
"151 374 OFFCURVE",
"159 370 CURVE",
"162 369 OFFCURVE",
"171 364 OFFCURVE",
"183 356 CURVE",
"158 375 OFFCURVE",
"165 371 OFFCURVE",
"203 342 CURVE",
"204 342 OFFCURVE",
"211 338 OFFCURVE",
"220 332 CURVE",
"232 326 OFFCURVE",
"241 313 OFFCURVE",
"244 301 CURVE"
);
},
{
closed = 1;
nodes = (
"117 347 LINE SMOOTH",
"101 347 OFFCURVE",
"85 342 OFFCURVE",
"75 334 CURVE",
"72 331 OFFCURVE",
"70 328 OFFCURVE",
"70 326 CURVE",
"76 318 OFFCURVE",
"93 313 OFFCURVE",
"112 313 CURVE SMOOTH",
"113 313 LINE SMOOTH",
"124 313 OFFCURVE",
"143 317 OFFCURVE",
"161 323 CURVE SMOOTH",
"164 324 OFFCURVE",
"166 326 OFFCURVE",
"166 328 CURVE SMOOTH",
"166 327 OFFCURVE",
"165 329 OFFCURVE",
"164 333 CURVE",
"152 340 OFFCURVE",
"140 346 OFFCURVE",
"132 347 CURVE"
);
}
);
width = 1113;
}
);
unicode = 0633;
},
{
glyphname = "sheen-ar";
lastChange = "2013-06-18 11:12:27 +0330";
layers = (
{
layerId = "3D323242-F336-407C-B164-DE86AA499667";
name = "Regular";
paths = (
{
closed = 1;
nodes = (
"246 344 OFFCURVE",
"248 331 OFFCURVE",
"248 320 CURVE SMOOTH",
"248 308 OFFCURVE",
"246 292 OFFCURVE",
"244 230 CURVE SMOOTH",
"243 212 OFFCURVE",
"239 196 OFFCURVE",
"239 189 CURVE SMOOTH",
"239 188 LINE",
"239 184 LINE SMOOTH",
"239 168 OFFCURVE",
"239 153 OFFCURVE",
"238 147 CURVE SMOOTH",
"237 141 OFFCURVE",
"237 128 OFFCURVE",
"237 114 CURVE SMOOTH",
"237 63 OFFCURVE",
"254 26 OFFCURVE",
"279 21 CURVE",
"280 20 OFFCURVE",
"283 20 OFFCURVE",
"287 20 CURVE SMOOTH",
"297 20 OFFCURVE",
"306 25 OFFCURVE",
"309 33 CURVE SMOOTH",
"318 52 OFFCURVE",
"325 90 OFFCURVE",
"326 129 CURVE SMOOTH",
"327 149 OFFCURVE",
"329 170 OFFCURVE",
"331 184 CURVE SMOOTH",
"332 186 OFFCURVE",
"332 195 OFFCURVE",
"332 207 CURVE SMOOTH",
"332 221 LINE SMOOTH",
"332 235 OFFCURVE",
"336 256 OFFCURVE",
"342 274 CURVE",
"359 292 OFFCURVE",
"376 305 OFFCURVE",
"384 307 CURVE",
"389 307 OFFCURVE",
"397 309 OFFCURVE",
"404 311 CURVE SMOOTH",
"410 313 OFFCURVE",
"418 315 OFFCURVE",
"422 315 CURVE SMOOTH",
"423 315 LINE",
"441 313 OFFCURVE",
"460 309 OFFCURVE",
"470 304 CURVE SMOOTH",
"485 298 OFFCURVE",
"497 288 OFFCURVE",
"502 280 CURVE",
"506 274 LINE",
"515 256 OFFCURVE",
"523 229 OFFCURVE",
"526 207 CURVE",
"526 209 OFFCURVE",
"528 196 OFFCURVE",
"530 176 CURVE SMOOTH",
"531 162 OFFCURVE",
"532 148 OFFCURVE",
"532 141 CURVE SMOOTH",
"532 136 OFFCURVE",
"532 129 OFFCURVE",
"532 120 CURVE",
"531 116 OFFCURVE",
"531 109 OFFCURVE",
"531 102 CURVE SMOOTH",
"531 86 OFFCURVE",
"534 69 OFFCURVE",
"538 59 CURVE",
"541 54 OFFCURVE",
"547 51 OFFCURVE",
"554 50 CURVE",
"555 50 OFFCURVE",
"556 50 OFFCURVE",
"557 50 CURVE",
"558 49 OFFCURVE",
"559 49 OFFCURVE",
"561 49 CURVE SMOOTH",
"566 49 OFFCURVE",
"571 54 OFFCURVE",
"574 61 CURVE",
"578 69 OFFCURVE",
"583 91 OFFCURVE",
"587 117 CURVE",
"590 141 OFFCURVE",
"597 167 OFFCURVE",
"605 182 CURVE SMOOTH",
"612 195 OFFCURVE",
"626 209 OFFCURVE",
"640 217 CURVE",
"648 221 OFFCURVE",
"662 224 OFFCURVE",
"676 225 CURVE",
"679 225 LINE",
"679 225 OFFCURVE",
"679 225 OFFCURVE",
"680 225 CURVE SMOOTH",
"681 225 OFFCURVE",
"681 225 OFFCURVE",
"681 225 CURVE",
"701 225 OFFCURVE",
"727 211 OFFCURVE",
"745 189 CURVE",
"754 177 OFFCURVE",
"763 154 OFFCURVE",
"767 132 CURVE SMOOTH",
"765 139 OFFCURVE",
"767 131 OFFCURVE",
"772 111 CURVE",
"772 111 OFFCURVE",
"775 101 OFFCURVE",
"784 -2 CURVE",
"785 -28 OFFCURVE",
"786 -53 OFFCURVE",
"786 -63 CURVE SMOOTH",
"785 -73 OFFCURVE",
"786 -91 OFFCURVE",
"786 -108 CURVE",
"784 -197 OFFCURVE",
"784 -203 OFFCURVE",
"785 -196 CURVE SMOOTH",
"784 -198 OFFCURVE",
"784 -204 OFFCURVE",
"785 -212 CURVE SMOOTH",
"785 -225 LINE",
"784 -237 OFFCURVE",
"779 -245 OFFCURVE",
"772 -246 CURVE",
"771 -247 LINE",
"760 -248 OFFCURVE",
"753 -239 OFFCURVE",
"751 -225 CURVE SMOOTH",
"746 -182 OFFCURVE",
"740 -39 OFFCURVE",
"738 -2 CURVE",
"725 93 LINE",
"727 84 OFFCURVE",
"724 94 OFFCURVE",
"717 125 CURVE SMOOTH",
"714 140 OFFCURVE",
"708 154 OFFCURVE",
"704 159 CURVE",
"700 169 OFFCURVE",
"691 175 OFFCURVE",
"682 175 CURVE SMOOTH",
"681 175 OFFCURVE",
"681 175 OFFCURVE",
"680 175 CURVE SMOOTH",
"679 175 OFFCURVE",
"679 175 OFFCURVE",
"679 175 CURVE SMOOTH",
"678 175 LINE SMOOTH",
"674 175 OFFCURVE",
"667 174 OFFCURVE",
"662 172 CURVE",
"656 168 OFFCURVE",
"651 163 OFFCURVE",
"649 158 CURVE",
"643 147 OFFCURVE",
"638 125 OFFCURVE",
"636 103 CURVE SMOOTH",
"630 41 OFFCURVE",
"600 0 OFFCURVE",
"561 0 CURVE SMOOTH",
"549 0 LINE",
"508 5 OFFCURVE",
"481 46 OFFCURVE",
"481 102 CURVE SMOOTH",
"481 110 OFFCURVE",
"481 118 OFFCURVE",
"482 122 CURVE",
"482 131 OFFCURVE",
"482 137 OFFCURVE",
"482 141 CURVE SMOOTH",
"482 148 OFFCURVE",
"481 158 OFFCURVE",
"480 168 CURVE",
"473 234 LINE",
"463 252 OFFCURVE",
"456 262 OFFCURVE",
"456 261 CURVE SMOOTH",
"455 261 OFFCURVE",
"454 262 OFFCURVE",
"453 263 CURVE",
"448 266 OFFCURVE",
"445 267 OFFCURVE",
"445 267 CURVE",
"443 268 OFFCURVE",
"436 268 OFFCURVE",
"428 268 CURVE SMOOTH",
"424 268 OFFCURVE",
"418 266 OFFCURVE",
"413 264 CURVE",
"407 262 OFFCURVE",
"402 260 OFFCURVE",
"399 260 CURVE",
"385 246 LINE",
"382 221 LINE",
"382 207 LINE SMOOTH",
"382 202 OFFCURVE",
"381 189 OFFCURVE",
"380 176 CURVE",
"379 169 OFFCURVE",
"377 149 OFFCURVE",
"376 126 CURVE SMOOTH",
"375 86 OFFCURVE",
"366 40 OFFCURVE",
"354 12 CURVE SMOOTH",
"343 -13 OFFCURVE",
"316 -30 OFFCURVE",
"287 -30 CURVE SMOOTH",
"290 -30 OFFCURVE",
"282 -29 OFFCURVE",
"268 -28 CURVE",
"219 -17 OFFCURVE",
"187 40 OFFCURVE",
"187 114 CURVE SMOOTH",
"187 128 OFFCURVE",
"187 142 OFFCURVE",
"188 148 CURVE SMOOTH",
"189 154 OFFCURVE",
"189 168 OFFCURVE",
"189 184 CURVE SMOOTH",
"189 188 LINE",
"189 189 LINE SMOOTH",
"189 196 OFFCURVE",
"193 214 OFFCURVE",
"194 233 CURVE SMOOTH",
"196 296 OFFCURVE",
"198 311 OFFCURVE",
"198 320 CURVE SMOOTH",
"198 334 OFFCURVE",
"190 344 OFFCURVE",
"178 347 CURVE",
"152 339 OFFCURVE",
"126 333 OFFCURVE",
"113 333 CURVE SMOOTH",
"111 333 LINE SMOOTH",
"84 333 OFFCURVE",
"59 343 OFFCURVE",
"47 357 CURVE",
"43 361 OFFCURVE",
"40 369 OFFCURVE",
"40 376 CURVE SMOOTH",
"40 407 OFFCURVE",
"71 427 OFFCURVE",
"117 427 CURVE SMOOTH",
"134 427 OFFCURVE",
"151 424 OFFCURVE",
"159 420 CURVE",
"162 419 OFFCURVE",
"171 414 OFFCURVE",
"183 406 CURVE",
"158 425 OFFCURVE",
"165 421 OFFCURVE",
"203 392 CURVE",
"204 392 OFFCURVE",
"211 388 OFFCURVE",
"220 382 CURVE",
"232 376 OFFCURVE",
"241 363 OFFCURVE",
"244 351 CURVE"
);
},
{
closed = 1;
nodes = (
"117 397 LINE SMOOTH",
"101 397 OFFCURVE",
"85 392 OFFCURVE",
"75 384 CURVE",
"72 381 OFFCURVE",
"70 378 OFFCURVE",
"70 376 CURVE",
"76 368 OFFCURVE",
"93 363 OFFCURVE",
"112 363 CURVE SMOOTH",
"113 363 LINE SMOOTH",
"124 363 OFFCURVE",
"143 367 OFFCURVE",
"161 373 CURVE SMOOTH",
"164 374 OFFCURVE",
"166 376 OFFCURVE",
"166 378 CURVE SMOOTH",
"166 377 OFFCURVE",
"165 379 OFFCURVE",
"164 383 CURVE",
"152 390 OFFCURVE",
"140 396 OFFCURVE",
"132 397 CURVE"
);
}
);
width = 826;
}
);
unicode = 0634;
},
{
glyphname = "tah-ar";
lastChange = "2013-06-18 11:13:22 +0330";
layers = (
{
layerId = "3D323242-F336-407C-B164-DE86AA499667";
name = "Regular";
paths = (
{
closed = 1;
nodes = (
"80 129 LINE",
"80 40 LINE",
"598 40 LINE",
"598 129 LINE"
);
},
{
closed = 1;
nodes = (
"618 169 LINE SMOOTH",
"631 169 OFFCURVE",
"638 162 OFFCURVE",
"638 149 CURVE SMOOTH",
"638 20 LINE SMOOTH",
"638 7 OFFCURVE",
"631 0 OFFCURVE",
"618 0 CURVE SMOOTH",
"60 0 LINE SMOOTH",
"47 0 OFFCURVE",
"40 7 OFFCURVE",
"40 20 CURVE SMOOTH",
"40 149 LINE SMOOTH",
"40 162 OFFCURVE",
"47 169 OFFCURVE",
"60 169 CURVE SMOOTH",
"267 169 LINE",
"268 170 OFFCURVE",
"268 170 OFFCURVE",
"268 170 CURVE",
"268 171 OFFCURVE",
"268 172 OFFCURVE",
"269 172 CURVE",
"477 531 LINE",
"519 505 LINE",
"519 504 LINE",
"328 169 LINE"
);
}
);
width = 678;
}
);
unicode = 0637;
},
{
glyphname = "tcheh-ar";
lastChange = "2013-06-18 11:14:12 +0330";
layers = (
{
layerId = "3D323242-F336-407C-B164-DE86AA499667";
name = "Regular";
paths = (
{
closed = 1;
nodes = (
"283 -223 LINE",
"284 -153 LINE",
"285 -101 LINE",
"287 -32 LINE",
"301 333 LINE",
"301 336 LINE",
"301 397 OFFCURVE",
"276 441 OFFCURVE",
"222 447 CURVE",
"170 447 OFFCURVE",
"126 435 OFFCURVE",
"89 407 CURVE SMOOTH",
"54 382 OFFCURVE",
"40 392 OFFCURVE",
"40 410 CURVE",
"40 442 OFFCURVE",
"136 503 OFFCURVE",
"209 503 CURVE SMOOTH",
"269 503 OFFCURVE",
"364 456 OFFCURVE",
"364 336 CURVE SMOOTH",
"364 333 LINE",
"340 -30 LINE",
"337 -99 LINE",
"335 -150 LINE",
"333 -221 LINE",
"331 -309 LINE SMOOTH",
"331 -322 OFFCURVE",
"319 -334 OFFCURVE",
"306 -334 CURVE SMOOTH",
"293 -334 OFFCURVE",
"281 -322 OFFCURVE",
"281 -309 CURVE"
);
},
{
closed = 1;
nodes = (
"338 -84 OFFCURVE",
"381 -42 OFFCURVE",
"445 -35 CURVE",
"471 -34 OFFCURVE",
"482 -38 OFFCURVE",
"498 -48 CURVE SMOOTH",
"512 -57 OFFCURVE",
"523 -55 OFFCURVE",
"527 -47 CURVE",
"532 -32 OFFCURVE",
"512 4 OFFCURVE",
"454 4 CURVE",
"454 4 OFFCURVE",
"454 4 OFFCURVE",
"453 4 CURVE SMOOTH",
"452 4 OFFCURVE",
"452 4 OFFCURVE",
"452 4 CURVE",
"448 4 LINE",
"410 2 OFFCURVE",
"340 -30 OFFCURVE",
"340 -30 CURVE",
"337 -99 LINE SMOOTH"
);
},
{
closed = 1;
nodes = (
"287 -32 LINE SMOOTH",
"287 -32 OFFCURVE",
"211 -1 OFFCURVE",
"173 1 CURVE",
"169 1 LINE",
"169 1 OFFCURVE",
"169 1 OFFCURVE",
"168 1 CURVE SMOOTH",
"167 1 OFFCURVE",
"167 1 OFFCURVE",
"167 1 CURVE",
"109 1 OFFCURVE",
"89 -35 OFFCURVE",
"94 -50 CURVE",
"98 -58 OFFCURVE",
"109 -60 OFFCURVE",
"123 -51 CURVE SMOOTH",
"139 -41 OFFCURVE",
"150 -37 OFFCURVE",
"176 -38 CURVE",
"240 -45 OFFCURVE",
"285 -86 OFFCURVE",
"285 -101 CURVE SMOOTH"
);
},
{
closed = 1;
nodes = (
"333 -216 OFFCURVE",
"378 -162 OFFCURVE",
"442 -155 CURVE",
"468 -154 OFFCURVE",
"479 -158 OFFCURVE",
"495 -168 CURVE SMOOTH",
"509 -177 OFFCURVE",
"520 -175 OFFCURVE",
"524 -167 CURVE",
"529 -152 OFFCURVE",
"509 -116 OFFCURVE",
"451 -116 CURVE",
"451 -116 OFFCURVE",
"451 -116 OFFCURVE",
"450 -116 CURVE SMOOTH",
"449 -116 OFFCURVE",
"449 -116 OFFCURVE",
"449 -116 CURVE",
"445 -116 LINE",
"407 -118 OFFCURVE",
"335 -150 OFFCURVE",
"335 -150 CURVE",
"333 -221 LINE SMOOTH"
);
},
{
closed = 1;
nodes = (
"284 -153 LINE SMOOTH",
"284 -153 OFFCURVE",
"208 -121 OFFCURVE",
"170 -119 CURVE",
"166 -119 LINE",
"166 -119 OFFCURVE",
"166 -119 OFFCURVE",
"165 -119 CURVE SMOOTH",
"164 -119 OFFCURVE",
"164 -119 OFFCURVE",
"164 -119 CURVE",
"106 -119 OFFCURVE",
"86 -155 OFFCURVE",
"91 -170 CURVE",
"95 -178 OFFCURVE",
"106 -180 OFFCURVE",
"120 -171 CURVE SMOOTH",
"136 -161 OFFCURVE",
"147 -157 OFFCURVE",
"173 -158 CURVE",
"237 -165 OFFCURVE",
"276 -213 OFFCURVE",
"283 -223 CURVE"
);
}
);
width = 568;
}
);
unicode = 0686;
},
{
glyphname = "teh-ar";
lastChange = "2013-06-18 11:14:26 +0330";
layers = (
{
layerId = "3D323242-F336-407C-B164-DE86AA499667";
name = "Regular";
paths = (
{
closed = 1;
nodes = (
"433 60 OFFCURVE",
"412 43 OFFCURVE",
"412 22 CURVE SMOOTH",
"412 -1 OFFCURVE",
"433 -20 OFFCURVE",
"458 -20 CURVE SMOOTH",
"481 -20 OFFCURVE",
"499 0 OFFCURVE",
"499 24 CURVE SMOOTH",
"499 43 OFFCURVE",
"481 60 OFFCURVE",
"458 60 CURVE SMOOTH"
);
},
{
closed = 1;
nodes = (
"559 58 OFFCURVE",
"541 42 OFFCURVE",
"541 22 CURVE SMOOTH",
"541 -2 OFFCURVE",
"559 -22 OFFCURVE",
"582 -22 CURVE SMOOTH",
"607 -22 OFFCURVE",
"628 -3 OFFCURVE",
"628 20 CURVE",
"627 36 OFFCURVE",
"627 42 OFFCURVE",
"613 51 CURVE",
"606 55 OFFCURVE",
"595 57 OFFCURVE",
"582 58 CURVE"
);
},
{
closed = 1;
nodes = (
"503 -50 OFFCURVE",
"483 -60 OFFCURVE",
"458 -60 CURVE SMOOTH",
"419 -60 OFFCURVE",
"384 -35 OFFCURVE",
"375 1 CURVE",
"65 1 LINE SMOOTH",
"52 1 OFFCURVE",
"40 14 OFFCURVE",
"40 27 CURVE SMOOTH",
"40 40 OFFCURVE",
"52 51 OFFCURVE",
"65 51 CURVE SMOOTH",
"378 51 LINE",
"390 82 OFFCURVE",
"423 100 OFFCURVE",
"458 100 CURVE SMOOTH",
"483 100 OFFCURVE",
"504 91 OFFCURVE",
"521 72 CURVE",
"537 89 OFFCURVE",
"557 98 OFFCURVE",
"582 98 CURVE SMOOTH",
"617 98 OFFCURVE",
"650 79 OFFCURVE",
"662 50 CURVE",
"972 50 LINE SMOOTH",
"985 50 OFFCURVE",
"997 38 OFFCURVE",
"997 25 CURVE SMOOTH",
"997 12 OFFCURVE",
"985 0 OFFCURVE",
"972 0 CURVE SMOOTH",
"665 0 LINE",
"656 -36 OFFCURVE",
"621 -62 OFFCURVE",
"582 -62 CURVE SMOOTH",
"557 -62 OFFCURVE",
"536 -52 OFFCURVE",
"519 -31 CURVE"
);
}
);
width = 1037;
}
);
unicode = 062A;
},
{
glyphname = "tehMarbuta-ar";
lastChange = "2013-06-18 11:14:40 +0330";
layers = (
{
layerId = "3D323242-F336-407C-B164-DE86AA499667";
name = "Regular";
paths = (
{
closed = 1;
nodes = (
"433 60 OFFCURVE",
"412 43 OFFCURVE",
"412 22 CURVE SMOOTH",
"412 -1 OFFCURVE",
"433 -20 OFFCURVE",
"458 -20 CURVE SMOOTH",
"481 -20 OFFCURVE",
"499 0 OFFCURVE",
"499 24 CURVE SMOOTH",
"499 43 OFFCURVE",
"481 60 OFFCURVE",
"458 60 CURVE SMOOTH"
);
},
{
closed = 1;
nodes = (
"559 58 OFFCURVE",
"541 42 OFFCURVE",
"541 22 CURVE SMOOTH",
"541 -2 OFFCURVE",
"559 -22 OFFCURVE",
"582 -22 CURVE SMOOTH",
"607 -22 OFFCURVE",
"628 -3 OFFCURVE",
"628 20 CURVE",
"627 36 OFFCURVE",
"627 42 OFFCURVE",
"613 51 CURVE",
"606 55 OFFCURVE",
"595 57 OFFCURVE",
"582 58 CURVE"
);
},
{
closed = 1;
nodes = (
"503 -50 OFFCURVE",
"483 -60 OFFCURVE",
"458 -60 CURVE SMOOTH",
"419 -60 OFFCURVE",
"384 -35 OFFCURVE",
"375 1 CURVE",
"65 1 LINE SMOOTH",
"52 1 OFFCURVE",
"40 14 OFFCURVE",
"40 27 CURVE SMOOTH",
"40 40 OFFCURVE",
"52 51 OFFCURVE",
"65 51 CURVE SMOOTH",
"378 51 LINE",
"390 82 OFFCURVE",
"423 100 OFFCURVE",
"458 100 CURVE SMOOTH",
"483 100 OFFCURVE",
"504 91 OFFCURVE",
"521 72 CURVE",
"537 89 OFFCURVE",
"557 98 OFFCURVE",
"582 98 CURVE SMOOTH",
"617 98 OFFCURVE",
"650 79 OFFCURVE",
"662 50 CURVE",
"972 50 LINE SMOOTH",
"985 50 OFFCURVE",
"997 38 OFFCURVE",
"997 25 CURVE SMOOTH",
"997 12 OFFCURVE",
"985 0 OFFCURVE",
"972 0 CURVE SMOOTH",
"665 0 LINE",
"656 -36 OFFCURVE",
"621 -62 OFFCURVE",
"582 -62 CURVE SMOOTH",
"557 -62 OFFCURVE",
"536 -52 OFFCURVE",
"519 -31 CURVE"
);
}
);
width = 1037;
}
);
unicode = 0629;
},
{
glyphname = "thal-ar";
lastChange = "2013-06-18 11:15:39 +0330";
layers = (
{
layerId = "3D323242-F336-407C-B164-DE86AA499667";
name = "Regular";
paths = (
{
closed = 1;
nodes = (
"350 153 OFFCURVE",
"351 154 OFFCURVE",
"354 157 CURVE",
"356 161 OFFCURVE",
"359 162 OFFCURVE",
"359 165 CURVE",
"581 440 LINE",
"584 442 OFFCURVE",
"587 443 OFFCURVE",
"592 443 CURVE SMOOTH",
"595 443 OFFCURVE",
"599 442 OFFCURVE",
"599 440 CURVE",
"651 399 LINE SMOOTH",
"656 395 OFFCURVE",
"658 391 OFFCURVE",
"658 388 CURVE SMOOTH",
"658 385 OFFCURVE",
"657 382 OFFCURVE",
"654 379 CURVE",
"530 225 LINE",
"574 191 LINE SMOOTH",
"577 187 OFFCURVE",
"578 183 OFFCURVE",
"578 182 CURVE SMOOTH",
"578 178 OFFCURVE",
"577 174 OFFCURVE",
"576 171 CURVE",
"361 -91 LINE",
"358 -97 OFFCURVE",
"354 -100 OFFCURVE",
"351 -100 CURVE SMOOTH",
"345 -100 OFFCURVE",
"340 -97 OFFCURVE",
"338 -92 CURVE",
"122 171 LINE",
"121 174 OFFCURVE",
"120 178 OFFCURVE",
"120 182 CURVE SMOOTH",
"120 183 OFFCURVE",
"121 187 OFFCURVE",
"124 191 CURVE SMOOTH",
"168 225 LINE",
"44 379 LINE",
"41 382 OFFCURVE",
"40 385 OFFCURVE",
"40 388 CURVE SMOOTH",
"40 391 OFFCURVE",
"42 395 OFFCURVE",
"47 399 CURVE SMOOTH",
"99 440 LINE",
"99 442 OFFCURVE",
"103 443 OFFCURVE",
"106 443 CURVE SMOOTH",
"111 443 OFFCURVE",
"114 442 OFFCURVE",
"117 440 CURVE",
"339 162 LINE",
"349 153 LINE"
);
},
{
closed = 1;
nodes = (
"344 -60 OFFCURVE",
"346 -62 OFFCURVE",
"349 -62 CURVE SMOOTH",
"352 -62 OFFCURVE",
"354 -60 OFFCURVE",
"358 -55 CURVE",
"546 179 LINE",
"514 203 LINE",
"359 11 LINE",
"354 5 OFFCURVE",
"351 2 OFFCURVE",
"350 2 CURVE SMOOTH",
"349 2 OFFCURVE",
"344 3 OFFCURVE",
"339 10 CURVE",
"184 203 LINE",
"152 179 LINE",
"341 -56 LINE"
);
},
{
closed = 1;
nodes = (
"344 48 OFFCURVE",
"348 45 OFFCURVE",
"349 45 CURVE",
"359 57 LINE",
"625 385 LINE",
"594 410 LINE",
"359 122 LINE",
"354 115 OFFCURVE",
"350 111 OFFCURVE",
"349 111 CURVE SMOOTH",
"348 111 OFFCURVE",
"342 116 OFFCURVE",
"339 120 CURVE",
"104 410 LINE",
"73 385 LINE",
"339 56 LINE SMOOTH"
);
}
);
width = 698;
}
);
unicode = 0630;
},
{
glyphname = "theh-ar";
lastChange = "2013-06-18 11:15:48 +0330";
layers = (
{
layerId = "3D323242-F336-407C-B164-DE86AA499667";
name = "Regular";
paths = (
{
closed = 1;
nodes = (
"55 236 OFFCURVE",
"57 240 OFFCURVE",
"61 243 CURVE",
"64 245 OFFCURVE",
"67 246 OFFCURVE",
"71 246 CURVE SMOOTH",
"72 246 OFFCURVE",
"73 246 OFFCURVE",
"74 246 CURVE",
"75 245 OFFCURVE",
"76 245 OFFCURVE",
"77 245 CURVE",
"94 240 OFFCURVE",
"114 232 OFFCURVE",
"137 222 CURVE SMOOTH",
"185 202 OFFCURVE",
"220 181 OFFCURVE",
"262 181 CURVE SMOOTH",
"265 181 LINE SMOOTH",
"276 181 OFFCURVE",
"288 198 OFFCURVE",
"303 214 CURVE SMOOTH",
"317 230 OFFCURVE",
"331 242 OFFCURVE",
"345 248 CURVE SMOOTH",
"387 265 OFFCURVE",
"428 274 OFFCURVE",
"467 274 CURVE SMOOTH",
"506 274 OFFCURVE",
"547 265 OFFCURVE",
"589 248 CURVE SMOOTH",
"603 242 OFFCURVE",
"617 230 OFFCURVE",
"632 214 CURVE SMOOTH",
"646 198 OFFCURVE",
"657 179 OFFCURVE",
"668 179 CURVE SMOOTH",
"672 179 LINE SMOOTH",
"714 179 OFFCURVE",
"749 202 OFFCURVE",
"797 222 CURVE SMOOTH",
"820 232 OFFCURVE",
"840 240 OFFCURVE",
"857 245 CURVE",
"858 245 OFFCURVE",
"859 245 OFFCURVE",
"860 246 CURVE",
"861 246 OFFCURVE",
"862 246 OFFCURVE",
"863 246 CURVE SMOOTH",
"871 246 OFFCURVE",
"877 242 OFFCURVE",
"879 230 CURVE",
"880 228 OFFCURVE",
"882 223 OFFCURVE",
"885 213 CURVE SMOOTH",
"891 195 OFFCURVE",
"894 174 OFFCURVE",
"894 148 CURVE SMOOTH",
"894 118 OFFCURVE",
"890 84 OFFCURVE",
"879 44 CURVE SMOOTH",
"877 33 OFFCURVE",
"871 28 OFFCURVE",
"863 28 CURVE SMOOTH",
"862 28 OFFCURVE",
"861 28 OFFCURVE",
"860 29 CURVE",
"859 29 OFFCURVE",
"858 29 OFFCURVE",
"857 29 CURVE",
"840 34 OFFCURVE",
"820 42 OFFCURVE",
"797 52 CURVE SMOOTH",
"749 73 OFFCURVE",
"714 93 OFFCURVE",
"672 93 CURVE SMOOTH",
"668 93 LINE SMOOTH",
"657 93 OFFCURVE",
"646 76 OFFCURVE",
"631 60 CURVE SMOOTH",
"617 44 OFFCURVE",
"603 33 OFFCURVE",
"589 27 CURVE SMOOTH",
"549 10 OFFCURVE",
"507 2 OFFCURVE",
"465 2 CURVE SMOOTH",
"424 2 OFFCURVE",
"385 10 OFFCURVE",
"345 27 CURVE SMOOTH",
"331 33 OFFCURVE",
"317 44 OFFCURVE",
"303 60 CURVE SMOOTH",
"288 76 OFFCURVE",
"277 95 OFFCURVE",
"266 95 CURVE SMOOTH",
"262 95 LINE SMOOTH",
"220 95 OFFCURVE",
"185 73 OFFCURVE",
"137 52 CURVE SMOOTH",
"114 42 OFFCURVE",
"94 34 OFFCURVE",
"77 29 CURVE",
"76 29 OFFCURVE",
"75 29 OFFCURVE",
"74 29 CURVE",
"73 28 OFFCURVE",
"72 28 OFFCURVE",
"71 28 CURVE SMOOTH",
"63 28 OFFCURVE",
"57 33 OFFCURVE",
"55 44 CURVE SMOOTH",
"44 84 OFFCURVE",
"40 118 OFFCURVE",
"40 148 CURVE SMOOTH",
"40 174 OFFCURVE",
"44 195 OFFCURVE",
"50 213 CURVE SMOOTH",
"53 223 OFFCURVE",
"54 228 OFFCURVE",
"55 230 CURVE"
);
},
{
closed = 1;
nodes = (
"350 212 OFFCURVE",
"342 205 OFFCURVE",
"332 195 CURVE SMOOTH",
"314 174 OFFCURVE",
"295 147 OFFCURVE",
"266 147 CURVE SMOOTH",
"262 147 LINE SMOOTH",
"218 147 OFFCURVE",
"187 164 OFFCURVE",
"136 185 CURVE SMOOTH",
"112 196 OFFCURVE",
"95 203 OFFCURVE",
"84 206 CURVE",
"77 176 OFFCURVE",
"76 153 OFFCURVE",
"76 138 CURVE SMOOTH",
"76 122 OFFCURVE",
"77 98 OFFCURVE",
"84 68 CURVE",
"95 71 OFFCURVE",
"112 78 OFFCURVE",
"136 90 CURVE SMOOTH",
"187 110 OFFCURVE",
"218 129 OFFCURVE",
"262 129 CURVE SMOOTH",
"266 129 LINE SMOOTH",
"289 129 OFFCURVE",
"308 108 OFFCURVE",
"318 93 CURVE SMOOTH",
"329 81 OFFCURVE",
"344 65 OFFCURVE",
"358 58 CURVE SMOOTH",
"397 43 OFFCURVE",
"433 35 OFFCURVE",
"466 35 CURVE SMOOTH",
"501 35 OFFCURVE",
"538 43 OFFCURVE",
"576 58 CURVE SMOOTH",
"584 62 OFFCURVE",
"592 69 OFFCURVE",
"602 79 CURVE",
"619 100 OFFCURVE",
"638 128 OFFCURVE",
"668 128 CURVE SMOOTH",
"672 128 LINE SMOOTH",
"716 128 OFFCURVE",
"747 110 OFFCURVE",
"798 90 CURVE SMOOTH",
"822 78 OFFCURVE",
"839 71 OFFCURVE",
"850 68 CURVE",
"857 98 OFFCURVE",
"858 122 OFFCURVE",
"858 138 CURVE SMOOTH",
"858 153 OFFCURVE",
"857 176 OFFCURVE",
"850 206 CURVE",
"839 203 OFFCURVE",
"822 196 OFFCURVE",
"798 185 CURVE SMOOTH",
"747 164 OFFCURVE",
"716 145 OFFCURVE",
"672 145 CURVE SMOOTH",
"668 145 LINE SMOOTH",
"639 145 OFFCURVE",
"620 174 OFFCURVE",
"602 195 CURVE SMOOTH",
"592 205 OFFCURVE",
"584 212 OFFCURVE",
"576 216 CURVE SMOOTH",
"538 231 OFFCURVE",
"502 239 OFFCURVE",
"467 239 CURVE SMOOTH",
"432 239 OFFCURVE",
"396 231 OFFCURVE",
"358 216 CURVE SMOOTH"
);
}
);
width = 934;
}
);
unicode = 062B;
},
{
glyphname = "waw-ar";
lastChange = "2013-06-18 11:16:09 +0330";
layers = (
{
layerId = "3D323242-F336-407C-B164-DE86AA499667";
name = "Regular";
paths = (
{
closed = 1;
nodes = (
"117 20 OFFCURVE",
"95 54 OFFCURVE",
"77 83 CURVE SMOOTH",
"58 115 OFFCURVE",
"42 157 OFFCURVE",
"42 192 CURVE SMOOTH",
"42 239 OFFCURVE",
"65 274 OFFCURVE",
"97 288 CURVE SMOOTH",
"112 297 OFFCURVE",
"128 299 OFFCURVE",
"147 299 CURVE SMOOTH",
"183 299 OFFCURVE",
"217 285 OFFCURVE",
"234 257 CURVE SMOOTH",
"246 236 OFFCURVE",
"252 216 OFFCURVE",
"252 192 CURVE SMOOTH",
"252 157 OFFCURVE",
"237 115 OFFCURVE",
"217 83 CURVE SMOOTH",
"199 54 OFFCURVE",
"177 20 OFFCURVE",
"164 2 CURVE",
"175 -13 OFFCURVE",
"191 -33 OFFCURVE",
"211 -56 CURVE SMOOTH",
"231 -81 OFFCURVE",
"244 -95 OFFCURVE",
"252 -103 CURVE",
"254 -107 OFFCURVE",
"254 -109 OFFCURVE",
"254 -113 CURVE SMOOTH",
"254 -122 OFFCURVE",
"248 -125 OFFCURVE",
"240 -125 CURVE SMOOTH",
"235 -125 OFFCURVE",
"232 -124 OFFCURVE",
"230 -122 CURVE",
"225 -115 OFFCURVE",
"213 -101 OFFCURVE",
"193 -77 CURVE SMOOTH",
"173 -55 OFFCURVE",
"157 -37 OFFCURVE",
"147 -22 CURVE",
"137 -37 OFFCURVE",
"121 -55 OFFCURVE",
"101 -77 CURVE SMOOTH",
"81 -101 OFFCURVE",
"69 -115 OFFCURVE",
"64 -122 CURVE",
"62 -124 OFFCURVE",
"59 -125 OFFCURVE",
"54 -125 CURVE SMOOTH",
"46 -125 OFFCURVE",
"40 -122 OFFCURVE",
"40 -113 CURVE SMOOTH",
"40 -109 OFFCURVE",
"40 -107 OFFCURVE",
"42 -103 CURVE",
"50 -95 OFFCURVE",
"63 -81 OFFCURVE",
"83 -56 CURVE SMOOTH",
"103 -33 OFFCURVE",
"119 -13 OFFCURVE",
"130 2 CURVE"
);
},
{
closed = 1;
nodes = (
"198 261 OFFCURVE",
"177 273 OFFCURVE",
"147 273 CURVE SMOOTH",
"86 273 OFFCURVE",
"70 229 OFFCURVE",
"70 192 CURVE SMOOTH",
"70 173 OFFCURVE",
"76 151 OFFCURVE",
"83 133 CURVE SMOOTH",
"90 114 OFFCURVE",
"101 97 OFFCURVE",
"113 77 CURVE SMOOTH",
"123 59 OFFCURVE",
"137 41 OFFCURVE",
"147 26 CURVE",
"157 41 OFFCURVE",
"171 59 OFFCURVE",
"181 77 CURVE SMOOTH",
"193 97 OFFCURVE",
"204 114 OFFCURVE",
"211 133 CURVE SMOOTH",
"218 151 OFFCURVE",
"224 173 OFFCURVE",
"224 192 CURVE SMOOTH",
"224 211 OFFCURVE",
"219 227 OFFCURVE",
"211 242 CURVE"
);
}
);
width = 294;
}
);
unicode = 0648;
},
{
glyphname = "wawHamzaabove-ar";
lastChange = "2013-06-18 11:16:24 +0330";
layers = (
{
layerId = "3D323242-F336-407C-B164-DE86AA499667";
name = "Regular";
paths = (
{
closed = 1;
nodes = (
"117 20 OFFCURVE",
"95 54 OFFCURVE",
"77 83 CURVE SMOOTH",
"58 115 OFFCURVE",
"42 157 OFFCURVE",
"42 192 CURVE SMOOTH",
"42 239 OFFCURVE",
"65 274 OFFCURVE",
"97 288 CURVE SMOOTH",
"112 297 OFFCURVE",
"128 299 OFFCURVE",
"147 299 CURVE SMOOTH",
"183 299 OFFCURVE",
"217 285 OFFCURVE",
"234 257 CURVE SMOOTH",
"246 236 OFFCURVE",
"252 216 OFFCURVE",
"252 192 CURVE SMOOTH",
"252 157 OFFCURVE",
"237 115 OFFCURVE",
"217 83 CURVE SMOOTH",
"199 54 OFFCURVE",
"177 20 OFFCURVE",
"164 2 CURVE",
"175 -13 OFFCURVE",
"191 -33 OFFCURVE",
"211 -56 CURVE SMOOTH",
"231 -81 OFFCURVE",
"244 -95 OFFCURVE",
"252 -103 CURVE",
"254 -107 OFFCURVE",
"254 -109 OFFCURVE",
"254 -113 CURVE SMOOTH",
"254 -122 OFFCURVE",
"248 -125 OFFCURVE",
"240 -125 CURVE SMOOTH",
"235 -125 OFFCURVE",
"232 -124 OFFCURVE",
"230 -122 CURVE",
"225 -115 OFFCURVE",
"213 -101 OFFCURVE",
"193 -77 CURVE SMOOTH",
"173 -55 OFFCURVE",
"157 -37 OFFCURVE",
"147 -22 CURVE",
"137 -37 OFFCURVE",
"121 -55 OFFCURVE",
"101 -77 CURVE SMOOTH",
"81 -101 OFFCURVE",
"69 -115 OFFCURVE",
"64 -122 CURVE",
"62 -124 OFFCURVE",
"59 -125 OFFCURVE",
"54 -125 CURVE SMOOTH",
"46 -125 OFFCURVE",
"40 -122 OFFCURVE",
"40 -113 CURVE SMOOTH",
"40 -109 OFFCURVE",
"40 -107 OFFCURVE",
"42 -103 CURVE",
"50 -95 OFFCURVE",
"63 -81 OFFCURVE",
"83 -56 CURVE SMOOTH",
"103 -33 OFFCURVE",
"119 -13 OFFCURVE",
"130 2 CURVE"
);
},
{
closed = 1;
nodes = (
"198 261 OFFCURVE",
"177 273 OFFCURVE",
"147 273 CURVE SMOOTH",
"86 273 OFFCURVE",
"70 229 OFFCURVE",
"70 192 CURVE SMOOTH",
"70 173 OFFCURVE",
"76 151 OFFCURVE",
"83 133 CURVE SMOOTH",
"90 114 OFFCURVE",
"101 97 OFFCURVE",
"113 77 CURVE SMOOTH",
"123 59 OFFCURVE",
"137 41 OFFCURVE",
"147 26 CURVE",
"157 41 OFFCURVE",
"171 59 OFFCURVE",
"181 77 CURVE SMOOTH",
"193 97 OFFCURVE",
"204 114 OFFCURVE",
"211 133 CURVE SMOOTH",
"218 151 OFFCURVE",
"224 173 OFFCURVE",
"224 192 CURVE SMOOTH",
"224 211 OFFCURVE",
"219 227 OFFCURVE",
"211 242 CURVE"
);
}
);
width = 294;
}
);
unicode = 0624;
},
{
glyphname = "yeh-ar";
lastChange = "2013-06-18 11:16:43 +0330";
layers = (
{
layerId = "3D323242-F336-407C-B164-DE86AA499667";
name = "Regular";
paths = (
{
closed = 1;
nodes = (
"528 -1 OFFCURVE",
"523 -1 OFFCURVE",
"519 1 CURVE",
"90 1 LINE",
"217 -297 LINE",
"416 -297 LINE",
"542 1 LINE",
"533 1 LINE"
);
},
{
closed = 1;
nodes = (
"669 179 LINE SMOOTH",
"672 182 OFFCURVE",
"676 184 OFFCURVE",
"681 184 CURVE SMOOTH",
"690 184 OFFCURVE",
"699 175 OFFCURVE",
"699 166 CURVE SMOOTH",
"699 161 OFFCURVE",
"697 157 OFFCURVE",
"693 154 CURVE",
"576 41 LINE",
"581 40 OFFCURVE",
"586 38 OFFCURVE",
"589 33 CURVE",
"589 32 OFFCURVE",
"589 32 OFFCURVE",
"590 32 CURVE",
"775 119 LINE",
"779 120 OFFCURVE",
"782 121 OFFCURVE",
"783 121 CURVE SMOOTH",
"790 121 OFFCURVE",
"796 118 OFFCURVE",
"799 111 CURVE",
"800 109 OFFCURVE",
"800 106 OFFCURVE",
"800 103 CURVE SMOOTH",
"800 96 OFFCURVE",
"797 91 OFFCURVE",
"790 88 CURVE",
"581 -11 LINE",
"580 -11 LINE",
"447 -324 LINE",
"444 -333 OFFCURVE",
"438 -337 OFFCURVE",
"429 -337 CURVE SMOOTH",
"203 -337 LINE SMOOTH",
"194 -337 OFFCURVE",
"188 -333 OFFCURVE",
"185 -325 CURVE",
"42 13 LINE",
"41 15 OFFCURVE",
"40 18 OFFCURVE",
"40 21 CURVE SMOOTH",
"40 28 OFFCURVE",
"45 41 OFFCURVE",
"60 41 CURVE SMOOTH",
"526 42 LINE"
);
}
);
width = 830;
}
);
unicode = 064A;
},
{
glyphname = "yeh-farsi";
lastChange = "2013-06-18 11:16:53 +0330";
layers = (
{
layerId = "3D323242-F336-407C-B164-DE86AA499667";
name = "Regular";
paths = (
{
closed = 1;
nodes = (
"588 -1 OFFCURVE",
"583 -1 OFFCURVE",
"579 1 CURVE",
"150 1 LINE",
"277 -297 LINE",
"476 -297 LINE",
"602 1 LINE",
"593 1 LINE"
);
},
{
closed = 1;
nodes = (
"729 179 LINE SMOOTH",
"732 182 OFFCURVE",
"736 184 OFFCURVE",
"741 184 CURVE SMOOTH",
"750 184 OFFCURVE",
"759 175 OFFCURVE",
"759 166 CURVE SMOOTH",
"759 161 OFFCURVE",
"757 157 OFFCURVE",
"753 154 CURVE",
"636 41 LINE",
"641 40 OFFCURVE",
"646 38 OFFCURVE",
"649 33 CURVE",
"649 32 OFFCURVE",
"649 32 OFFCURVE",
"650 32 CURVE",
"835 119 LINE",
"839 120 OFFCURVE",
"842 121 OFFCURVE",
"843 121 CURVE SMOOTH",
"850 121 OFFCURVE",
"856 118 OFFCURVE",
"859 111 CURVE",
"860 109 OFFCURVE",
"860 106 OFFCURVE",
"860 103 CURVE SMOOTH",
"860 96 OFFCURVE",
"857 91 OFFCURVE",
"850 88 CURVE",
"641 -11 LINE",
"640 -11 LINE",
"507 -324 LINE",
"504 -333 OFFCURVE",
"498 -337 OFFCURVE",
"489 -337 CURVE SMOOTH",
"263 -337 LINE SMOOTH",
"254 -337 OFFCURVE",
"248 -333 OFFCURVE",
"245 -325 CURVE",
"102 13 LINE",
"101 15 OFFCURVE",
"100 18 OFFCURVE",
"100 21 CURVE SMOOTH",
"100 28 OFFCURVE",
"105 41 OFFCURVE",
"120 41 CURVE SMOOTH",
"586 42 LINE"
);
}
);
width = 890;
}
);
unicode = 06CC;
},
{
glyphname = "yehHamzaabove-ar";
lastChange = "2013-06-18 11:17:00 +0330";
layers = (
{
layerId = "3D323242-F336-407C-B164-DE86AA499667";
name = "Regular";
paths = (
{
closed = 1;
nodes = (
"588 -1 OFFCURVE",
"583 -1 OFFCURVE",
"579 1 CURVE",
"150 1 LINE",
"277 -297 LINE",
"476 -297 LINE",
"602 1 LINE",
"593 1 LINE"
);
},
{
closed = 1;
nodes = (
"729 179 LINE SMOOTH",
"732 182 OFFCURVE",
"736 184 OFFCURVE",
"741 184 CURVE SMOOTH",
"750 184 OFFCURVE",
"759 175 OFFCURVE",
"759 166 CURVE SMOOTH",
"759 161 OFFCURVE",
"757 157 OFFCURVE",
"753 154 CURVE",
"636 41 LINE",
"641 40 OFFCURVE",
"646 38 OFFCURVE",
"649 33 CURVE",
"649 32 OFFCURVE",
"649 32 OFFCURVE",
"650 32 CURVE",
"835 119 LINE",
"839 120 OFFCURVE",
"842 121 OFFCURVE",
"843 121 CURVE SMOOTH",
"850 121 OFFCURVE",
"856 118 OFFCURVE",
"859 111 CURVE",
"860 109 OFFCURVE",
"860 106 OFFCURVE",
"860 103 CURVE SMOOTH",
"860 96 OFFCURVE",
"857 91 OFFCURVE",
"850 88 CURVE",
"641 -11 LINE",
"640 -11 LINE",
"507 -324 LINE",
"504 -333 OFFCURVE",
"498 -337 OFFCURVE",
"489 -337 CURVE SMOOTH",
"263 -337 LINE SMOOTH",
"254 -337 OFFCURVE",
"248 -333 OFFCURVE",
"245 -325 CURVE",
"102 13 LINE",
"101 15 OFFCURVE",
"100 18 OFFCURVE",
"100 21 CURVE SMOOTH",
"100 28 OFFCURVE",
"105 41 OFFCURVE",
"120 41 CURVE SMOOTH",
"586 42 LINE"
);
}
);
width = 890;
}
);
unicode = 0626;
},
{
glyphname = "zah-ar";
lastChange = "2013-06-18 11:13:07 +0330";
layers = (
{
layerId = "3D323242-F336-407C-B164-DE86AA499667";
name = "Regular";
paths = (
{
closed = 1;
nodes = (
"80 129 LINE",
"80 40 LINE",
"598 40 LINE",
"598 129 LINE"
);
},
{
closed = 1;
nodes = (
"618 169 LINE SMOOTH",
"631 169 OFFCURVE",
"638 162 OFFCURVE",
"638 149 CURVE SMOOTH",
"638 20 LINE SMOOTH",
"638 7 OFFCURVE",
"631 0 OFFCURVE",
"618 0 CURVE SMOOTH",
"60 0 LINE SMOOTH",
"47 0 OFFCURVE",
"40 7 OFFCURVE",
"40 20 CURVE SMOOTH",
"40 149 LINE SMOOTH",
"40 162 OFFCURVE",
"47 169 OFFCURVE",
"60 169 CURVE SMOOTH",
"267 169 LINE",
"268 170 OFFCURVE",
"268 170 OFFCURVE",
"268 170 CURVE",
"268 171 OFFCURVE",
"268 172 OFFCURVE",
"269 172 CURVE",
"467 521 LINE",
"461 531 OFFCURVE",
"458 542 OFFCURVE",
"458 554 CURVE SMOOTH",
"458 598 OFFCURVE",
"498 661 OFFCURVE",
"550 661 CURVE SMOOTH",
"574 661 OFFCURVE",
"605 642 OFFCURVE",
"605 607 CURVE SMOOTH",
"605 567 OFFCURVE",
"556 496 OFFCURVE",
"509 495 CURVE",
"509 494 LINE",
"328 169 LINE"
);
},
{
closed = 1;
nodes = (
"507 532 OFFCURVE",
"512 530 OFFCURVE",
"517 530 CURVE SMOOTH",
"545 530 OFFCURVE",
"574 577 OFFCURVE",
"574 596 CURVE SMOOTH",
"574 615 OFFCURVE",
"559 625 OFFCURVE",
"543 625 CURVE SMOOTH",
"512 625 OFFCURVE",
"490 591 OFFCURVE",
"490 563 CURVE SMOOTH",
"490 551 OFFCURVE",
"495 542 OFFCURVE",
"504 535 CURVE"
);
}
);
width = 678;
}
);
unicode = 0638;
},
{
glyphname = "zain-ar";
lastChange = "2013-06-18 11:17:15 +0330";
layers = (
{
layerId = "3D323242-F336-407C-B164-DE86AA499667";
name = "Regular";
paths = (
{
closed = 1;
nodes = (
"487 881 LINE",
"489 709 OFFCURVE",
"491 578 OFFCURVE",
"493 488 CURVE SMOOTH",
"493 484 LINE SMOOTH",
"493 461 OFFCURVE",
"492 432 OFFCURVE",
"491 397 CURVE SMOOTH",
"489 362 OFFCURVE",
"488 335 OFFCURVE",
"488 317 CURVE SMOOTH",
"488 297 OFFCURVE",
"488 281 OFFCURVE",
"489 270 CURVE SMOOTH",
"494 186 OFFCURVE",
"498 150 OFFCURVE",
"523 87 CURVE",
"534 56 OFFCURVE",
"553 38 OFFCURVE",
"580 33 CURVE",
"583 32 OFFCURVE",
"589 32 OFFCURVE",
"596 32 CURVE SMOOTH",
"611 32 OFFCURVE",
"633 34 OFFCURVE",
"662 38 CURVE SMOOTH",
"690 42 OFFCURVE",
"712 44 OFFCURVE",
"727 44 CURVE SMOOTH",
"728 44 OFFCURVE",
"731 44 OFFCURVE",
"734 44 CURVE",
"737 43 OFFCURVE",
"740 43 OFFCURVE",
"742 43 CURVE SMOOTH",
"771 43 OFFCURVE",
"801 30 OFFCURVE",
"832 3 CURVE",
"848 -12 OFFCURVE",
"858 -26 OFFCURVE",
"867 -49 CURVE",
"872 -60 OFFCURVE",
"876 -70 OFFCURVE",
"881 -77 CURVE",
"769 -28 OFFCURVE",
"756 -24 OFFCURVE",
"688 -15 CURVE SMOOTH",
"679 -14 OFFCURVE",
"666 -13 OFFCURVE",
"651 -13 CURVE SMOOTH",
"645 -13 OFFCURVE",
"637 -13 OFFCURVE",
"627 -13 CURVE",
"617 -14 OFFCURVE",
"609 -14 OFFCURVE",
"604 -14 CURVE SMOOTH",
"586 -14 OFFCURVE",
"569 -12 OFFCURVE",
"552 -9 CURVE SMOOTH",
"533 -5 OFFCURVE",
"521 2 OFFCURVE",
"503 14 CURVE",
"494 19 OFFCURVE",
"486 24 OFFCURVE",
"479 27 CURVE",
"474 20 OFFCURVE",
"452 -7 OFFCURVE",
"439 -19 CURVE SMOOTH",
"375 -78 OFFCURVE",
"338 -100 OFFCURVE",
"287 -109 CURVE SMOOTH",
"274 -111 OFFCURVE",
"262 -112 OFFCURVE",
"253 -112 CURVE SMOOTH",
"230 -112 OFFCURVE",
"197 -108 OFFCURVE",
"169 -96 CURVE SMOOTH",
"154 -90 OFFCURVE",
"142 -86 OFFCURVE",
"132 -85 CURVE SMOOTH",
"123 -84 OFFCURVE",
"117 -83 OFFCURVE",
"114 -83 CURVE SMOOTH",
"99 -83 OFFCURVE",
"85 -89 OFFCURVE",
"74 -95 CURVE",
"69 -98 OFFCURVE",
"63 -102 OFFCURVE",
"57 -106 CURVE",
"50 -110 OFFCURVE",
"45 -113 OFFCURVE",
"40 -116 CURVE",
"41 -114 OFFCURVE",
"41 -110 OFFCURVE",
"41 -105 CURVE SMOOTH",
"41 -102 OFFCURVE",
"41 -97 OFFCURVE",
"41 -91 CURVE",
"40 -85 OFFCURVE",
"40 -81 OFFCURVE",
"40 -78 CURVE SMOOTH",
"40 -73 OFFCURVE",
"42 -71 OFFCURVE",
"47 -68 CURVE",
"50 -67 OFFCURVE",
"52 -65 OFFCURVE",
"54 -63 CURVE SMOOTH",
"71 -46 OFFCURVE",
"97 -37 OFFCURVE",
"132 -37 CURVE SMOOTH",
"143 -37 LINE SMOOTH",
"156 -37 OFFCURVE",
"174 -39 OFFCURVE",
"195 -43 CURVE SMOOTH",
"237 -52 OFFCURVE",
"272 -53 OFFCURVE",
"283 -53 CURVE SMOOTH",
"307 -53 OFFCURVE",
"338 -48 OFFCURVE",
"350 -31 CURVE SMOOTH",
"365 -8 OFFCURVE",
"423 32 OFFCURVE",
"430 295 CURVE",
"430 318 OFFCURVE",
"428 349 OFFCURVE",
"425 390 CURVE SMOOTH",
"421 431 OFFCURVE",
"419 464 OFFCURVE",
"419 490 CURVE SMOOTH",
"419 532 LINE SMOOTH",
"419 631 OFFCURVE",
"424 825 OFFCURVE",
"425 882 CURVE"
);
}
);
width = 921;
}
);
unicode = 0632;
},
{
glyphname = "zero";
lastChange = "2013-06-18 05:11:21 +0330";
layers = (
{
layerId = "3D323242-F336-407C-B164-DE86AA499667";
name = "Regular";
paths = (
{
closed = 1;
nodes = (
"429 60 OFFCURVE",
"379 12 OFFCURVE",
"306 12 CURVE SMOOTH",
"233 12 OFFCURVE",
"183 59 OFFCURVE",
"183 132 CURVE SMOOTH",
"183 208 OFFCURVE",
"233 259 OFFCURVE",
"309 259 CURVE SMOOTH",
"382 259 OFFCURVE",
"429 208 OFFCURVE",
"429 133 CURVE SMOOTH"
);
},
{
closed = 1;
nodes = (
"127 -27 LINE",
"522 259 LINE",
"496 295 LINE",
"100 9 LINE"
);
}
);
width = 622;
}
);
unicode = 0030;
},
{
glyphname = "one";
lastChange = "2013-06-18 05:11:26 +0330";
layers = (
{
layerId = "3D323242-F336-407C-B164-DE86AA499667";
name = "Regular";
paths = (
{
closed = 1;
nodes = (
"371 60 OFFCURVE",
"309 0 OFFCURVE",
"236 0 CURVE SMOOTH",
"163 0 OFFCURVE",
"100 59 OFFCURVE",
"100 132 CURVE SMOOTH",
"100 208 OFFCURVE",
"163 271 OFFCURVE",
"239 271 CURVE SMOOTH",
"312 271 OFFCURVE",
"371 208 OFFCURVE",
"371 133 CURVE SMOOTH"
);
}
);
width = 471;
}
);
unicode = 0031;
},
{
glyphname = "two";
lastChange = "2013-06-18 04:53:56 +0330";
layers = (
{
layerId = "3D323242-F336-407C-B164-DE86AA499667";
name = "Regular";
paths = (
{
closed = 1;
nodes = (
"347 55 OFFCURVE",
"290 0 OFFCURVE",
"224 0 CURVE SMOOTH",
"158 0 OFFCURVE",
"100 54 OFFCURVE",
"100 120 CURVE SMOOTH",
"100 189 OFFCURVE",
"158 247 OFFCURVE",
"227 247 CURVE SMOOTH",
"293 247 OFFCURVE",
"347 189 OFFCURVE",
"347 121 CURVE SMOOTH"
);
},
{
closed = 1;
nodes = (
"347 355 OFFCURVE",
"290 300 OFFCURVE",
"224 300 CURVE SMOOTH",
"158 300 OFFCURVE",
"100 354 OFFCURVE",
"100 420 CURVE SMOOTH",
"100 489 OFFCURVE",
"158 547 OFFCURVE",
"227 547 CURVE SMOOTH",
"293 547 OFFCURVE",
"347 489 OFFCURVE",
"347 421 CURVE SMOOTH"
);
}
);
width = 447;
}
);
unicode = 0032;
},
{
glyphname = "three";
lastChange = "2013-06-18 04:54:02 +0330";
layers = (
{
layerId = "3D323242-F336-407C-B164-DE86AA499667";
name = "Regular";
paths = (
{
closed = 1;
nodes = (
"347 55 OFFCURVE",
"290 0 OFFCURVE",
"224 0 CURVE SMOOTH",
"158 0 OFFCURVE",
"100 54 OFFCURVE",
"100 120 CURVE SMOOTH",
"100 189 OFFCURVE",
"158 247 OFFCURVE",
"227 247 CURVE SMOOTH",
"293 247 OFFCURVE",
"347 189 OFFCURVE",
"347 121 CURVE SMOOTH"
);
},
{
closed = 1;
nodes = (
"747 55 OFFCURVE",
"690 0 OFFCURVE",
"624 0 CURVE SMOOTH",
"558 0 OFFCURVE",
"500 54 OFFCURVE",
"500 120 CURVE SMOOTH",
"500 189 OFFCURVE",
"558 247 OFFCURVE",
"627 247 CURVE SMOOTH",
"693 247 OFFCURVE",
"747 189 OFFCURVE",
"747 121 CURVE SMOOTH"
);
},
{
closed = 1;
nodes = (
"557 351 OFFCURVE",
"500 296 OFFCURVE",
"434 296 CURVE SMOOTH",
"368 296 OFFCURVE",
"310 350 OFFCURVE",
"310 416 CURVE SMOOTH",
"310 485 OFFCURVE",
"368 543 OFFCURVE",
"437 543 CURVE SMOOTH",
"503 543 OFFCURVE",
"557 485 OFFCURVE",
"557 417 CURVE SMOOTH"
);
}
);
width = 847;
}
);
unicode = 0033;
},
{
glyphname = "four";
lastChange = "2013-06-18 05:11:31 +0330";
layers = (
{
layerId = "3D323242-F336-407C-B164-DE86AA499667";
name = "Regular";
paths = (
{
closed = 1;
nodes = (
"325 279 OFFCURVE",
"273 229 OFFCURVE",
"213 229 CURVE SMOOTH",
"153 229 OFFCURVE",
"100 278 OFFCURVE",
"100 338 CURVE SMOOTH",
"100 401 OFFCURVE",
"153 454 OFFCURVE",
"216 454 CURVE SMOOTH",
"276 454 OFFCURVE",
"325 401 OFFCURVE",
"325 339 CURVE SMOOTH"
);
},
{
closed = 1;
nodes = (
"689 279 OFFCURVE",
"637 229 OFFCURVE",
"577 229 CURVE SMOOTH",
"517 229 OFFCURVE",
"464 278 OFFCURVE",
"464 338 CURVE SMOOTH",
"464 401 OFFCURVE",
"517 454 OFFCURVE",
"580 454 CURVE SMOOTH",
"640 454 OFFCURVE",
"689 401 OFFCURVE",
"689 339 CURVE SMOOTH"
);
},
{
closed = 1;
nodes = (
"516 504 OFFCURVE",
"464 454 OFFCURVE",
"404 454 CURVE SMOOTH",
"344 454 OFFCURVE",
"291 503 OFFCURVE",
"291 563 CURVE SMOOTH",
"291 625 OFFCURVE",
"344 678 OFFCURVE",
"407 678 CURVE SMOOTH",
"467 678 OFFCURVE",
"516 625 OFFCURVE",
"516 564 CURVE SMOOTH"
);
},
{
closed = 1;
nodes = (
"516 50 OFFCURVE",
"464 0 OFFCURVE",
"404 0 CURVE SMOOTH",
"344 0 OFFCURVE",
"291 49 OFFCURVE",
"291 109 CURVE SMOOTH",
"291 172 OFFCURVE",
"344 224 OFFCURVE",
"407 224 CURVE SMOOTH",
"467 224 OFFCURVE",
"516 172 OFFCURVE",
"516 110 CURVE SMOOTH"
);
}
);
width = 789;
}
);
unicode = 0034;
},
{
glyphname = "five";
lastChange = "2013-06-18 04:54:09 +0330";
layers = (
{
layerId = "3D323242-F336-407C-B164-DE86AA499667";
name = "Regular";
paths = (
{
closed = 1;
nodes = (
"389 0 OFFCURVE",
"384 5 OFFCURVE",
"384 18 CURVE",
"404 391 LINE",
"347 398 OFFCURVE",
"312 406 OFFCURVE",
"283 420 CURVE SMOOTH",
"243 439 OFFCURVE",
"209 462 OFFCURVE",
"163 500 CURVE SMOOTH",
"163 500 OFFCURVE",
"147 513 OFFCURVE",
"107 544 CURVE",
"102 547 OFFCURVE",
"100 551 OFFCURVE",
"100 558 CURVE SMOOTH",
"100 562 OFFCURVE",
"101 565 OFFCURVE",
"101 567 CURVE",
"104 575 OFFCURVE",
"109 578 OFFCURVE",
"117 578 CURVE SMOOTH",
"118 578 OFFCURVE",
"119 578 OFFCURVE",
"120 577 CURVE",
"121 577 OFFCURVE",
"122 577 OFFCURVE",
"123 577 CURVE",
"151 568 OFFCURVE",
"163 564 OFFCURVE",
"182 558 CURVE SMOOTH",
"211 548 OFFCURVE",
"228 543 OFFCURVE",
"243 538 CURVE SMOOTH",
"293 525 OFFCURVE",
"320 518 OFFCURVE",
"337 516 CURVE SMOOTH",
"346 512 OFFCURVE",
"367 509 OFFCURVE",
"411 507 CURVE",
"431 888 LINE SMOOTH",
"432 901 OFFCURVE",
"443 906 OFFCURVE",
"468 906 CURVE SMOOTH",
"491 906 OFFCURVE",
"500 901 OFFCURVE",
"501 888 CURVE SMOOTH",
"521 509 LINE",
"601 516 OFFCURVE",
"661 529 OFFCURVE",
"732 553 CURVE SMOOTH",
"752 560 OFFCURVE",
"774 567 OFFCURVE",
"809 578 CURVE",
"810 578 OFFCURVE",
"811 578 OFFCURVE",
"814 578 CURVE SMOOTH",
"822 578 OFFCURVE",
"827 575 OFFCURVE",
"831 568 CURVE",
"831 565 OFFCURVE",
"832 562 OFFCURVE",
"832 560 CURVE SMOOTH",
"832 553 OFFCURVE",
"830 549 OFFCURVE",
"824 546 CURVE",
"815 539 OFFCURVE",
"804 530 OFFCURVE",
"768 502 CURVE SMOOTH",
"722 464 OFFCURVE",
"688 441 OFFCURVE",
"648 422 CURVE SMOOTH",
"620 408 OFFCURVE",
"585 400 OFFCURVE",
"528 393 CURVE",
"548 19 LINE",
"548 5 OFFCURVE",
"543 0 OFFCURVE",
"531 0 CURVE SMOOTH",
"531 0 OFFCURVE",
"531 0 OFFCURVE",
"530 0 CURVE SMOOTH",
"401 0 LINE SMOOTH"
);
}
);
width = 932;
}
);
unicode = 0035;
},
{
glyphname = "six";
lastChange = "2013-06-18 05:02:47 +0330";
layers = (
{
layerId = "3D323242-F336-407C-B164-DE86AA499667";
name = "Regular";
paths = (
{
closed = 1;
nodes = (
"741 623 OFFCURVE",
"694 577 OFFCURVE",
"639 577 CURVE SMOOTH",
"584 577 OFFCURVE",
"536 622 OFFCURVE",
"536 676 CURVE SMOOTH",
"536 734 OFFCURVE",
"584 782 OFFCURVE",
"642 782 CURVE SMOOTH",
"696 782 OFFCURVE",
"741 734 OFFCURVE",
"741 677 CURVE SMOOTH"
);
},
{
closed = 1;
nodes = (
"389 0 OFFCURVE",
"384 5 OFFCURVE",
"384 18 CURVE",
"404 391 LINE",
"347 398 OFFCURVE",
"312 406 OFFCURVE",
"283 420 CURVE SMOOTH",
"243 439 OFFCURVE",
"209 462 OFFCURVE",
"163 500 CURVE SMOOTH",
"163 500 OFFCURVE",
"147 513 OFFCURVE",
"107 544 CURVE",
"102 547 OFFCURVE",
"100 551 OFFCURVE",
"100 558 CURVE SMOOTH",
"100 562 OFFCURVE",
"101 565 OFFCURVE",
"101 567 CURVE",
"104 575 OFFCURVE",
"109 578 OFFCURVE",
"117 578 CURVE SMOOTH",
"118 578 OFFCURVE",
"119 578 OFFCURVE",
"120 577 CURVE",
"121 577 OFFCURVE",
"122 577 OFFCURVE",
"123 577 CURVE",
"151 568 OFFCURVE",
"163 564 OFFCURVE",
"182 558 CURVE SMOOTH",
"211 548 OFFCURVE",
"228 543 OFFCURVE",
"243 538 CURVE SMOOTH",
"293 525 OFFCURVE",
"320 518 OFFCURVE",
"337 516 CURVE SMOOTH",
"346 512 OFFCURVE",
"367 509 OFFCURVE",
"411 507 CURVE",
"431 888 LINE SMOOTH",
"432 901 OFFCURVE",
"443 906 OFFCURVE",
"468 906 CURVE SMOOTH",
"491 906 OFFCURVE",
"500 901 OFFCURVE",
"501 888 CURVE SMOOTH",
"521 509 LINE",
"601 516 OFFCURVE",
"661 529 OFFCURVE",
"732 553 CURVE SMOOTH",
"752 560 OFFCURVE",
"774 567 OFFCURVE",
"809 578 CURVE",
"810 578 OFFCURVE",
"811 578 OFFCURVE",
"814 578 CURVE SMOOTH",
"822 578 OFFCURVE",
"827 575 OFFCURVE",
"831 568 CURVE",
"831 565 OFFCURVE",
"832 562 OFFCURVE",
"832 560 CURVE SMOOTH",
"832 553 OFFCURVE",
"830 549 OFFCURVE",
"824 546 CURVE",
"815 539 OFFCURVE",
"804 530 OFFCURVE",
"768 502 CURVE SMOOTH",
"722 464 OFFCURVE",
"688 441 OFFCURVE",
"648 422 CURVE SMOOTH",
"620 408 OFFCURVE",
"585 400 OFFCURVE",
"528 393 CURVE",
"548 19 LINE",
"548 5 OFFCURVE",
"543 0 OFFCURVE",
"531 0 CURVE SMOOTH",
"531 0 OFFCURVE",
"531 0 OFFCURVE",
"530 0 CURVE SMOOTH",
"401 0 LINE SMOOTH"
);
}
);
width = 932;
}
);
unicode = 0036;
},
{
glyphname = "seven";
lastChange = "2013-06-18 05:03:27 +0330";
layers = (
{
layerId = "3D323242-F336-407C-B164-DE86AA499667";
name = "Regular";
paths = (
{
closed = 1;
nodes = (
"741 623 OFFCURVE",
"694 577 OFFCURVE",
"639 577 CURVE SMOOTH",
"584 577 OFFCURVE",
"536 622 OFFCURVE",
"536 676 CURVE SMOOTH",
"536 734 OFFCURVE",
"584 782 OFFCURVE",
"642 782 CURVE SMOOTH",
"696 782 OFFCURVE",
"741 734 OFFCURVE",
"741 677 CURVE SMOOTH"
);
},
{
closed = 1;
nodes = (
"398 624 OFFCURVE",
"351 578 OFFCURVE",
"296 578 CURVE SMOOTH",
"241 578 OFFCURVE",
"193 623 OFFCURVE",
"193 677 CURVE SMOOTH",
"193 735 OFFCURVE",
"241 783 OFFCURVE",
"299 783 CURVE SMOOTH",
"353 783 OFFCURVE",
"398 735 OFFCURVE",
"398 678 CURVE SMOOTH"
);
},
{
closed = 1;
nodes = (
"389 0 OFFCURVE",
"384 5 OFFCURVE",
"384 18 CURVE",
"404 391 LINE",
"347 398 OFFCURVE",
"312 406 OFFCURVE",
"283 420 CURVE SMOOTH",
"243 439 OFFCURVE",
"209 462 OFFCURVE",
"163 500 CURVE SMOOTH",
"163 500 OFFCURVE",
"147 513 OFFCURVE",
"107 544 CURVE",
"102 547 OFFCURVE",
"100 551 OFFCURVE",
"100 558 CURVE SMOOTH",
"100 562 OFFCURVE",
"101 565 OFFCURVE",
"101 567 CURVE",
"104 575 OFFCURVE",
"109 578 OFFCURVE",
"117 578 CURVE SMOOTH",
"118 578 OFFCURVE",
"119 578 OFFCURVE",
"120 577 CURVE",
"121 577 OFFCURVE",
"122 577 OFFCURVE",
"123 577 CURVE",
"151 568 OFFCURVE",
"163 564 OFFCURVE",
"182 558 CURVE SMOOTH",
"211 548 OFFCURVE",
"228 543 OFFCURVE",
"243 538 CURVE SMOOTH",
"293 525 OFFCURVE",
"320 518 OFFCURVE",
"337 516 CURVE SMOOTH",
"346 512 OFFCURVE",
"367 509 OFFCURVE",
"411 507 CURVE",
"431 888 LINE SMOOTH",
"432 901 OFFCURVE",
"443 906 OFFCURVE",
"468 906 CURVE SMOOTH",
"491 906 OFFCURVE",
"500 901 OFFCURVE",
"501 888 CURVE SMOOTH",
"521 509 LINE",
"601 516 OFFCURVE",
"661 529 OFFCURVE",
"732 553 CURVE SMOOTH",
"752 560 OFFCURVE",
"774 567 OFFCURVE",
"809 578 CURVE",
"810 578 OFFCURVE",
"811 578 OFFCURVE",
"814 578 CURVE SMOOTH",
"822 578 OFFCURVE",
"827 575 OFFCURVE",
"831 568 CURVE",
"831 565 OFFCURVE",
"832 562 OFFCURVE",
"832 560 CURVE SMOOTH",
"832 553 OFFCURVE",
"830 549 OFFCURVE",
"824 546 CURVE",
"815 539 OFFCURVE",
"804 530 OFFCURVE",
"768 502 CURVE SMOOTH",
"722 464 OFFCURVE",
"688 441 OFFCURVE",
"648 422 CURVE SMOOTH",
"620 408 OFFCURVE",
"585 400 OFFCURVE",
"528 393 CURVE",
"548 19 LINE",
"548 5 OFFCURVE",
"543 0 OFFCURVE",
"531 0 CURVE SMOOTH",
"531 0 OFFCURVE",
"531 0 OFFCURVE",
"530 0 CURVE SMOOTH",
"401 0 LINE SMOOTH"
);
}
);
width = 932;
}
);
unicode = 0037;
},
{
glyphname = "eight";
lastChange = "2013-06-18 05:03:51 +0330";
layers = (
{
layerId = "3D323242-F336-407C-B164-DE86AA499667";
name = "Regular";
paths = (
{
closed = 1;
nodes = (
"741 623 OFFCURVE",
"694 577 OFFCURVE",
"639 577 CURVE SMOOTH",
"584 577 OFFCURVE",
"536 622 OFFCURVE",
"536 676 CURVE SMOOTH",
"536 734 OFFCURVE",
"584 782 OFFCURVE",
"642 782 CURVE SMOOTH",
"696 782 OFFCURVE",
"741 734 OFFCURVE",
"741 677 CURVE SMOOTH"
);
},
{
closed = 1;
nodes = (
"759 227 OFFCURVE",
"712 181 OFFCURVE",
"657 181 CURVE SMOOTH",
"602 181 OFFCURVE",
"554 226 OFFCURVE",
"554 280 CURVE SMOOTH",
"554 338 OFFCURVE",
"602 386 OFFCURVE",
"660 386 CURVE SMOOTH",
"714 386 OFFCURVE",
"759 338 OFFCURVE",
"759 281 CURVE SMOOTH"
);
},
{
closed = 1;
nodes = (
"398 624 OFFCURVE",
"351 578 OFFCURVE",
"296 578 CURVE SMOOTH",
"241 578 OFFCURVE",
"193 623 OFFCURVE",
"193 677 CURVE SMOOTH",
"193 735 OFFCURVE",
"241 783 OFFCURVE",
"299 783 CURVE SMOOTH",
"353 783 OFFCURVE",
"398 735 OFFCURVE",
"398 678 CURVE SMOOTH"
);
},
{
closed = 1;
nodes = (
"389 0 OFFCURVE",
"384 5 OFFCURVE",
"384 18 CURVE",
"404 391 LINE",
"347 398 OFFCURVE",
"312 406 OFFCURVE",
"283 420 CURVE SMOOTH",
"243 439 OFFCURVE",
"209 462 OFFCURVE",
"163 500 CURVE SMOOTH",
"163 500 OFFCURVE",
"147 513 OFFCURVE",
"107 544 CURVE",
"102 547 OFFCURVE",
"100 551 OFFCURVE",
"100 558 CURVE SMOOTH",
"100 562 OFFCURVE",
"101 565 OFFCURVE",
"101 567 CURVE",
"104 575 OFFCURVE",
"109 578 OFFCURVE",
"117 578 CURVE SMOOTH",
"118 578 OFFCURVE",
"119 578 OFFCURVE",
"120 577 CURVE",
"121 577 OFFCURVE",
"122 577 OFFCURVE",
"123 577 CURVE",
"151 568 OFFCURVE",
"163 564 OFFCURVE",
"182 558 CURVE SMOOTH",
"211 548 OFFCURVE",
"228 543 OFFCURVE",
"243 538 CURVE SMOOTH",
"293 525 OFFCURVE",
"320 518 OFFCURVE",
"337 516 CURVE SMOOTH",
"346 512 OFFCURVE",
"367 509 OFFCURVE",
"411 507 CURVE",
"431 888 LINE SMOOTH",
"432 901 OFFCURVE",
"443 906 OFFCURVE",
"468 906 CURVE SMOOTH",
"491 906 OFFCURVE",
"500 901 OFFCURVE",
"501 888 CURVE SMOOTH",
"521 509 LINE",
"601 516 OFFCURVE",
"661 529 OFFCURVE",
"732 553 CURVE SMOOTH",
"752 560 OFFCURVE",
"774 567 OFFCURVE",
"809 578 CURVE",
"810 578 OFFCURVE",
"811 578 OFFCURVE",
"814 578 CURVE SMOOTH",
"822 578 OFFCURVE",
"827 575 OFFCURVE",
"831 568 CURVE",
"831 565 OFFCURVE",
"832 562 OFFCURVE",
"832 560 CURVE SMOOTH",
"832 553 OFFCURVE",
"830 549 OFFCURVE",
"824 546 CURVE",
"815 539 OFFCURVE",
"804 530 OFFCURVE",
"768 502 CURVE SMOOTH",
"722 464 OFFCURVE",
"688 441 OFFCURVE",
"648 422 CURVE SMOOTH",
"620 408 OFFCURVE",
"585 400 OFFCURVE",
"528 393 CURVE",
"548 19 LINE",
"548 5 OFFCURVE",
"543 0 OFFCURVE",
"531 0 CURVE SMOOTH",
"531 0 OFFCURVE",
"531 0 OFFCURVE",
"530 0 CURVE SMOOTH",
"401 0 LINE SMOOTH"
);
}
);
width = 932;
}
);
unicode = 0038;
},
{
glyphname = "nine";
lastChange = "2013-06-18 05:02:05 +0330";
layers = (
{
layerId = "3D323242-F336-407C-B164-DE86AA499667";
name = "Regular";
paths = (
{
closed = 1;
nodes = (
"741 623 OFFCURVE",
"694 577 OFFCURVE",
"639 577 CURVE SMOOTH",
"584 577 OFFCURVE",
"536 622 OFFCURVE",
"536 676 CURVE SMOOTH",
"536 734 OFFCURVE",
"584 782 OFFCURVE",
"642 782 CURVE SMOOTH",
"696 782 OFFCURVE",
"741 734 OFFCURVE",
"741 677 CURVE SMOOTH"
);
},
{
closed = 1;
nodes = (
"759 227 OFFCURVE",
"712 181 OFFCURVE",
"657 181 CURVE SMOOTH",
"602 181 OFFCURVE",
"554 226 OFFCURVE",
"554 280 CURVE SMOOTH",
"554 338 OFFCURVE",
"602 386 OFFCURVE",
"660 386 CURVE SMOOTH",
"714 386 OFFCURVE",
"759 338 OFFCURVE",
"759 281 CURVE SMOOTH"
);
},
{
closed = 1;
nodes = (
"384 228 OFFCURVE",
"337 182 OFFCURVE",
"282 182 CURVE SMOOTH",
"227 182 OFFCURVE",
"179 227 OFFCURVE",
"179 281 CURVE SMOOTH",
"179 339 OFFCURVE",
"227 387 OFFCURVE",
"285 387 CURVE SMOOTH",
"339 387 OFFCURVE",
"384 339 OFFCURVE",
"384 282 CURVE SMOOTH"
);
},
{
closed = 1;
nodes = (
"398 624 OFFCURVE",
"351 578 OFFCURVE",
"296 578 CURVE SMOOTH",
"241 578 OFFCURVE",
"193 623 OFFCURVE",
"193 677 CURVE SMOOTH",
"193 735 OFFCURVE",
"241 783 OFFCURVE",
"299 783 CURVE SMOOTH",
"353 783 OFFCURVE",
"398 735 OFFCURVE",
"398 678 CURVE SMOOTH"
);
},
{
closed = 1;
nodes = (
"389 0 OFFCURVE",
"384 5 OFFCURVE",
"384 18 CURVE",
"404 391 LINE",
"347 398 OFFCURVE",
"312 406 OFFCURVE",
"283 420 CURVE SMOOTH",
"243 439 OFFCURVE",
"209 462 OFFCURVE",
"163 500 CURVE SMOOTH",
"163 500 OFFCURVE",
"147 513 OFFCURVE",
"107 544 CURVE",
"102 547 OFFCURVE",
"100 551 OFFCURVE",
"100 558 CURVE SMOOTH",
"100 562 OFFCURVE",
"101 565 OFFCURVE",
"101 567 CURVE",
"104 575 OFFCURVE",
"109 578 OFFCURVE",
"117 578 CURVE SMOOTH",
"118 578 OFFCURVE",
"119 578 OFFCURVE",
"120 577 CURVE",
"121 577 OFFCURVE",
"122 577 OFFCURVE",
"123 577 CURVE",
"151 568 OFFCURVE",
"163 564 OFFCURVE",
"182 558 CURVE SMOOTH",
"211 548 OFFCURVE",
"228 543 OFFCURVE",
"243 538 CURVE SMOOTH",
"293 525 OFFCURVE",
"320 518 OFFCURVE",
"337 516 CURVE SMOOTH",
"346 512 OFFCURVE",
"367 509 OFFCURVE",
"411 507 CURVE",
"431 888 LINE SMOOTH",
"432 901 OFFCURVE",
"443 906 OFFCURVE",
"468 906 CURVE SMOOTH",
"491 906 OFFCURVE",
"500 901 OFFCURVE",
"501 888 CURVE SMOOTH",
"521 509 LINE",
"601 516 OFFCURVE",
"661 529 OFFCURVE",
"732 553 CURVE SMOOTH",
"752 560 OFFCURVE",
"774 567 OFFCURVE",
"809 578 CURVE",
"810 578 OFFCURVE",
"811 578 OFFCURVE",
"814 578 CURVE SMOOTH",
"822 578 OFFCURVE",
"827 575 OFFCURVE",
"831 568 CURVE",
"831 565 OFFCURVE",
"832 562 OFFCURVE",
"832 560 CURVE SMOOTH",
"832 553 OFFCURVE",
"830 549 OFFCURVE",
"824 546 CURVE",
"815 539 OFFCURVE",
"804 530 OFFCURVE",
"768 502 CURVE SMOOTH",
"722 464 OFFCURVE",
"688 441 OFFCURVE",
"648 422 CURVE SMOOTH",
"620 408 OFFCURVE",
"585 400 OFFCURVE",
"528 393 CURVE",
"548 19 LINE",
"548 5 OFFCURVE",
"543 0 OFFCURVE",
"531 0 CURVE SMOOTH",
"531 0 OFFCURVE",
"531 0 OFFCURVE",
"530 0 CURVE SMOOTH",
"401 0 LINE SMOOTH"
);
}
);
width = 932;
}
);
unicode = 0039;
},
{
glyphname = "zero-persian";
lastChange = "2013-06-18 05:11:38 +0330";
layers = (
{
layerId = "3D323242-F336-407C-B164-DE86AA499667";
name = "Regular";
paths = (
{
closed = 1;
nodes = (
"429 60 OFFCURVE",
"379 12 OFFCURVE",
"306 12 CURVE SMOOTH",
"233 12 OFFCURVE",
"183 59 OFFCURVE",
"183 132 CURVE SMOOTH",
"183 208 OFFCURVE",
"233 259 OFFCURVE",
"309 259 CURVE SMOOTH",
"382 259 OFFCURVE",
"429 208 OFFCURVE",
"429 133 CURVE SMOOTH"
);
},
{
closed = 1;
nodes = (
"127 -27 LINE",
"522 259 LINE",
"496 295 LINE",
"100 9 LINE"
);
}
);
width = 622;
}
);
unicode = 06F0;
},
{
glyphname = "one-persian";
lastChange = "2013-06-18 05:11:40 +0330";
layers = (
{
layerId = "3D323242-F336-407C-B164-DE86AA499667";
name = "Regular";
paths = (
{
closed = 1;
nodes = (
"371 60 OFFCURVE",
"309 0 OFFCURVE",
"236 0 CURVE SMOOTH",
"163 0 OFFCURVE",
"100 59 OFFCURVE",
"100 132 CURVE SMOOTH",
"100 208 OFFCURVE",
"163 271 OFFCURVE",
"239 271 CURVE SMOOTH",
"312 271 OFFCURVE",
"371 208 OFFCURVE",
"371 133 CURVE SMOOTH"
);
}
);
width = 471;
}
);
unicode = 06F1;
},
{
glyphname = "two-persian";
lastChange = "2013-06-18 05:10:30 +0330";
layers = (
{
layerId = "3D323242-F336-407C-B164-DE86AA499667";
name = "Regular";
paths = (
{
closed = 1;
nodes = (
"347 55 OFFCURVE",
"290 0 OFFCURVE",
"224 0 CURVE SMOOTH",
"158 0 OFFCURVE",
"100 54 OFFCURVE",
"100 120 CURVE SMOOTH",
"100 189 OFFCURVE",
"158 247 OFFCURVE",
"227 247 CURVE SMOOTH",
"293 247 OFFCURVE",
"347 189 OFFCURVE",
"347 121 CURVE SMOOTH"
);
},
{
closed = 1;
nodes = (
"347 355 OFFCURVE",
"290 300 OFFCURVE",
"224 300 CURVE SMOOTH",
"158 300 OFFCURVE",
"100 354 OFFCURVE",
"100 420 CURVE SMOOTH",
"100 489 OFFCURVE",
"158 547 OFFCURVE",
"227 547 CURVE SMOOTH",
"293 547 OFFCURVE",
"347 489 OFFCURVE",
"347 421 CURVE SMOOTH"
);
}
);
width = 447;
}
);
unicode = 06F2;
},
{
glyphname = "three-persian";
lastChange = "2013-06-18 05:10:28 +0330";
layers = (
{
layerId = "3D323242-F336-407C-B164-DE86AA499667";
name = "Regular";
paths = (
{
closed = 1;
nodes = (
"347 55 OFFCURVE",
"290 0 OFFCURVE",
"224 0 CURVE SMOOTH",
"158 0 OFFCURVE",
"100 54 OFFCURVE",
"100 120 CURVE SMOOTH",
"100 189 OFFCURVE",
"158 247 OFFCURVE",
"227 247 CURVE SMOOTH",
"293 247 OFFCURVE",
"347 189 OFFCURVE",
"347 121 CURVE SMOOTH"
);
},
{
closed = 1;
nodes = (
"747 55 OFFCURVE",
"690 0 OFFCURVE",
"624 0 CURVE SMOOTH",
"558 0 OFFCURVE",
"500 54 OFFCURVE",
"500 120 CURVE SMOOTH",
"500 189 OFFCURVE",
"558 247 OFFCURVE",
"627 247 CURVE SMOOTH",
"693 247 OFFCURVE",
"747 189 OFFCURVE",
"747 121 CURVE SMOOTH"
);
},
{
closed = 1;
nodes = (
"557 351 OFFCURVE",
"500 296 OFFCURVE",
"434 296 CURVE SMOOTH",
"368 296 OFFCURVE",
"310 350 OFFCURVE",
"310 416 CURVE SMOOTH",
"310 485 OFFCURVE",
"368 543 OFFCURVE",
"437 543 CURVE SMOOTH",
"503 543 OFFCURVE",
"557 485 OFFCURVE",
"557 417 CURVE SMOOTH"
);
}
);
width = 847;
}
);
unicode = 06F3;
},
{
glyphname = "four-persian";
lastChange = "2013-06-18 05:11:48 +0330";
layers = (
{
layerId = "3D323242-F336-407C-B164-DE86AA499667";
name = "Regular";
paths = (
{
closed = 1;
nodes = (
"325 279 OFFCURVE",
"273 229 OFFCURVE",
"213 229 CURVE SMOOTH",
"153 229 OFFCURVE",
"100 278 OFFCURVE",
"100 338 CURVE SMOOTH",
"100 401 OFFCURVE",
"153 454 OFFCURVE",
"216 454 CURVE SMOOTH",
"276 454 OFFCURVE",
"325 401 OFFCURVE",
"325 339 CURVE SMOOTH"
);
},
{
closed = 1;
nodes = (
"689 279 OFFCURVE",
"637 229 OFFCURVE",
"577 229 CURVE SMOOTH",
"517 229 OFFCURVE",
"464 278 OFFCURVE",
"464 338 CURVE SMOOTH",
"464 401 OFFCURVE",
"517 454 OFFCURVE",
"580 454 CURVE SMOOTH",
"640 454 OFFCURVE",
"689 401 OFFCURVE",
"689 339 CURVE SMOOTH"
);
},
{
closed = 1;
nodes = (
"516 504 OFFCURVE",
"464 454 OFFCURVE",
"404 454 CURVE SMOOTH",
"344 454 OFFCURVE",
"291 503 OFFCURVE",
"291 563 CURVE SMOOTH",
"291 625 OFFCURVE",
"344 678 OFFCURVE",
"407 678 CURVE SMOOTH",
"467 678 OFFCURVE",
"516 625 OFFCURVE",
"516 564 CURVE SMOOTH"
);
},
{
closed = 1;
nodes = (
"516 50 OFFCURVE",
"464 0 OFFCURVE",
"404 0 CURVE SMOOTH",
"344 0 OFFCURVE",
"291 49 OFFCURVE",
"291 109 CURVE SMOOTH",
"291 172 OFFCURVE",
"344 224 OFFCURVE",
"407 224 CURVE SMOOTH",
"467 224 OFFCURVE",
"516 172 OFFCURVE",
"516 110 CURVE SMOOTH"
);
}
);
width = 789;
}
);
unicode = 06F4;
},
{
glyphname = "five-persian";
lastChange = "2013-06-18 05:10:32 +0330";
layers = (
{
layerId = "3D323242-F336-407C-B164-DE86AA499667";
name = "Regular";
paths = (
{
closed = 1;
nodes = (
"389 0 OFFCURVE",
"384 5 OFFCURVE",
"384 18 CURVE",
"404 391 LINE",
"347 398 OFFCURVE",
"312 406 OFFCURVE",
"283 420 CURVE SMOOTH",
"243 439 OFFCURVE",
"209 462 OFFCURVE",
"163 500 CURVE SMOOTH",
"163 500 OFFCURVE",
"147 513 OFFCURVE",
"107 544 CURVE",
"102 547 OFFCURVE",
"100 551 OFFCURVE",
"100 558 CURVE SMOOTH",
"100 562 OFFCURVE",
"101 565 OFFCURVE",
"101 567 CURVE",
"104 575 OFFCURVE",
"109 578 OFFCURVE",
"117 578 CURVE SMOOTH",
"118 578 OFFCURVE",
"119 578 OFFCURVE",
"120 577 CURVE",
"121 577 OFFCURVE",
"122 577 OFFCURVE",
"123 577 CURVE",
"151 568 OFFCURVE",
"163 564 OFFCURVE",
"182 558 CURVE SMOOTH",
"211 548 OFFCURVE",
"228 543 OFFCURVE",
"243 538 CURVE SMOOTH",
"293 525 OFFCURVE",
"320 518 OFFCURVE",
"337 516 CURVE SMOOTH",
"346 512 OFFCURVE",
"367 509 OFFCURVE",
"411 507 CURVE",
"431 888 LINE SMOOTH",
"432 901 OFFCURVE",
"443 906 OFFCURVE",
"468 906 CURVE SMOOTH",
"491 906 OFFCURVE",
"500 901 OFFCURVE",
"501 888 CURVE SMOOTH",
"521 509 LINE",
"601 516 OFFCURVE",
"661 529 OFFCURVE",
"732 553 CURVE SMOOTH",
"752 560 OFFCURVE",
"774 567 OFFCURVE",
"809 578 CURVE",
"810 578 OFFCURVE",
"811 578 OFFCURVE",
"814 578 CURVE SMOOTH",
"822 578 OFFCURVE",
"827 575 OFFCURVE",
"831 568 CURVE",
"831 565 OFFCURVE",
"832 562 OFFCURVE",
"832 560 CURVE SMOOTH",
"832 553 OFFCURVE",
"830 549 OFFCURVE",
"824 546 CURVE",
"815 539 OFFCURVE",
"804 530 OFFCURVE",
"768 502 CURVE SMOOTH",
"722 464 OFFCURVE",
"688 441 OFFCURVE",
"648 422 CURVE SMOOTH",
"620 408 OFFCURVE",
"585 400 OFFCURVE",
"528 393 CURVE",
"548 19 LINE",
"548 5 OFFCURVE",
"543 0 OFFCURVE",
"531 0 CURVE SMOOTH",
"531 0 OFFCURVE",
"531 0 OFFCURVE",
"530 0 CURVE SMOOTH",
"401 0 LINE SMOOTH"
);
}
);
width = 932;
}
);
unicode = 06F5;
},
{
glyphname = "six-persian";
lastChange = "2013-06-18 05:10:40 +0330";
layers = (
{
layerId = "3D323242-F336-407C-B164-DE86AA499667";
name = "Regular";
paths = (
{
closed = 1;
nodes = (
"741 623 OFFCURVE",
"694 577 OFFCURVE",
"639 577 CURVE SMOOTH",
"584 577 OFFCURVE",
"536 622 OFFCURVE",
"536 676 CURVE SMOOTH",
"536 734 OFFCURVE",
"584 782 OFFCURVE",
"642 782 CURVE SMOOTH",
"696 782 OFFCURVE",
"741 734 OFFCURVE",
"741 677 CURVE SMOOTH"
);
},
{
closed = 1;
nodes = (
"389 0 OFFCURVE",
"384 5 OFFCURVE",
"384 18 CURVE",
"404 391 LINE",
"347 398 OFFCURVE",
"312 406 OFFCURVE",
"283 420 CURVE SMOOTH",
"243 439 OFFCURVE",
"209 462 OFFCURVE",
"163 500 CURVE SMOOTH",
"163 500 OFFCURVE",
"147 513 OFFCURVE",
"107 544 CURVE",
"102 547 OFFCURVE",
"100 551 OFFCURVE",
"100 558 CURVE SMOOTH",
"100 562 OFFCURVE",
"101 565 OFFCURVE",
"101 567 CURVE",
"104 575 OFFCURVE",
"109 578 OFFCURVE",
"117 578 CURVE SMOOTH",
"118 578 OFFCURVE",
"119 578 OFFCURVE",
"120 577 CURVE",
"121 577 OFFCURVE",
"122 577 OFFCURVE",
"123 577 CURVE",
"151 568 OFFCURVE",
"163 564 OFFCURVE",
"182 558 CURVE SMOOTH",
"211 548 OFFCURVE",
"228 543 OFFCURVE",
"243 538 CURVE SMOOTH",
"293 525 OFFCURVE",
"320 518 OFFCURVE",
"337 516 CURVE SMOOTH",
"346 512 OFFCURVE",
"367 509 OFFCURVE",
"411 507 CURVE",
"431 888 LINE SMOOTH",
"432 901 OFFCURVE",
"443 906 OFFCURVE",
"468 906 CURVE SMOOTH",
"491 906 OFFCURVE",
"500 901 OFFCURVE",
"501 888 CURVE SMOOTH",
"521 509 LINE",
"601 516 OFFCURVE",
"661 529 OFFCURVE",
"732 553 CURVE SMOOTH",
"752 560 OFFCURVE",
"774 567 OFFCURVE",
"809 578 CURVE",
"810 578 OFFCURVE",
"811 578 OFFCURVE",
"814 578 CURVE SMOOTH",
"822 578 OFFCURVE",
"827 575 OFFCURVE",
"831 568 CURVE",
"831 565 OFFCURVE",
"832 562 OFFCURVE",
"832 560 CURVE SMOOTH",
"832 553 OFFCURVE",
"830 549 OFFCURVE",
"824 546 CURVE",
"815 539 OFFCURVE",
"804 530 OFFCURVE",
"768 502 CURVE SMOOTH",
"722 464 OFFCURVE",
"688 441 OFFCURVE",
"648 422 CURVE SMOOTH",
"620 408 OFFCURVE",
"585 400 OFFCURVE",
"528 393 CURVE",
"548 19 LINE",
"548 5 OFFCURVE",
"543 0 OFFCURVE",
"531 0 CURVE SMOOTH",
"531 0 OFFCURVE",
"531 0 OFFCURVE",
"530 0 CURVE SMOOTH",
"401 0 LINE SMOOTH"
);
}
);
width = 932;
}
);
unicode = 06F6;
},
{
glyphname = "seven-persian";
lastChange = "2013-06-18 05:10:45 +0330";
layers = (
{
layerId = "3D323242-F336-407C-B164-DE86AA499667";
name = "Regular";
paths = (
{
closed = 1;
nodes = (
"741 623 OFFCURVE",
"694 577 OFFCURVE",
"639 577 CURVE SMOOTH",
"584 577 OFFCURVE",
"536 622 OFFCURVE",
"536 676 CURVE SMOOTH",
"536 734 OFFCURVE",
"584 782 OFFCURVE",
"642 782 CURVE SMOOTH",
"696 782 OFFCURVE",
"741 734 OFFCURVE",
"741 677 CURVE SMOOTH"
);
},
{
closed = 1;
nodes = (
"398 624 OFFCURVE",
"351 578 OFFCURVE",
"296 578 CURVE SMOOTH",
"241 578 OFFCURVE",
"193 623 OFFCURVE",
"193 677 CURVE SMOOTH",
"193 735 OFFCURVE",
"241 783 OFFCURVE",
"299 783 CURVE SMOOTH",
"353 783 OFFCURVE",
"398 735 OFFCURVE",
"398 678 CURVE SMOOTH"
);
},
{
closed = 1;
nodes = (
"389 0 OFFCURVE",
"384 5 OFFCURVE",
"384 18 CURVE",
"404 391 LINE",
"347 398 OFFCURVE",
"312 406 OFFCURVE",
"283 420 CURVE SMOOTH",
"243 439 OFFCURVE",
"209 462 OFFCURVE",
"163 500 CURVE SMOOTH",
"163 500 OFFCURVE",
"147 513 OFFCURVE",
"107 544 CURVE",
"102 547 OFFCURVE",
"100 551 OFFCURVE",
"100 558 CURVE SMOOTH",
"100 562 OFFCURVE",
"101 565 OFFCURVE",
"101 567 CURVE",
"104 575 OFFCURVE",
"109 578 OFFCURVE",
"117 578 CURVE SMOOTH",
"118 578 OFFCURVE",
"119 578 OFFCURVE",
"120 577 CURVE",
"121 577 OFFCURVE",
"122 577 OFFCURVE",
"123 577 CURVE",
"151 568 OFFCURVE",
"163 564 OFFCURVE",
"182 558 CURVE SMOOTH",
"211 548 OFFCURVE",
"228 543 OFFCURVE",
"243 538 CURVE SMOOTH",
"293 525 OFFCURVE",
"320 518 OFFCURVE",
"337 516 CURVE SMOOTH",
"346 512 OFFCURVE",
"367 509 OFFCURVE",
"411 507 CURVE",
"431 888 LINE SMOOTH",
"432 901 OFFCURVE",
"443 906 OFFCURVE",
"468 906 CURVE SMOOTH",
"491 906 OFFCURVE",
"500 901 OFFCURVE",
"501 888 CURVE SMOOTH",
"521 509 LINE",
"601 516 OFFCURVE",
"661 529 OFFCURVE",
"732 553 CURVE SMOOTH",
"752 560 OFFCURVE",
"774 567 OFFCURVE",
"809 578 CURVE",
"810 578 OFFCURVE",
"811 578 OFFCURVE",
"814 578 CURVE SMOOTH",
"822 578 OFFCURVE",
"827 575 OFFCURVE",
"831 568 CURVE",
"831 565 OFFCURVE",
"832 562 OFFCURVE",
"832 560 CURVE SMOOTH",
"832 553 OFFCURVE",
"830 549 OFFCURVE",
"824 546 CURVE",
"815 539 OFFCURVE",
"804 530 OFFCURVE",
"768 502 CURVE SMOOTH",
"722 464 OFFCURVE",
"688 441 OFFCURVE",
"648 422 CURVE SMOOTH",
"620 408 OFFCURVE",
"585 400 OFFCURVE",
"528 393 CURVE",
"548 19 LINE",
"548 5 OFFCURVE",
"543 0 OFFCURVE",
"531 0 CURVE SMOOTH",
"531 0 OFFCURVE",
"531 0 OFFCURVE",
"530 0 CURVE SMOOTH",
"401 0 LINE SMOOTH"
);
}
);
width = 932;
}
);
unicode = 06F7;
},
{
glyphname = "eight-persian";
lastChange = "2013-06-18 05:10:42 +0330";
layers = (
{
layerId = "3D323242-F336-407C-B164-DE86AA499667";
name = "Regular";
paths = (
{
closed = 1;
nodes = (
"741 623 OFFCURVE",
"694 577 OFFCURVE",
"639 577 CURVE SMOOTH",
"584 577 OFFCURVE",
"536 622 OFFCURVE",
"536 676 CURVE SMOOTH",
"536 734 OFFCURVE",
"584 782 OFFCURVE",
"642 782 CURVE SMOOTH",
"696 782 OFFCURVE",
"741 734 OFFCURVE",
"741 677 CURVE SMOOTH"
);
},
{
closed = 1;
nodes = (
"759 227 OFFCURVE",
"712 181 OFFCURVE",
"657 181 CURVE SMOOTH",
"602 181 OFFCURVE",
"554 226 OFFCURVE",
"554 280 CURVE SMOOTH",
"554 338 OFFCURVE",
"602 386 OFFCURVE",
"660 386 CURVE SMOOTH",
"714 386 OFFCURVE",
"759 338 OFFCURVE",
"759 281 CURVE SMOOTH"
);
},
{
closed = 1;
nodes = (
"398 624 OFFCURVE",
"351 578 OFFCURVE",
"296 578 CURVE SMOOTH",
"241 578 OFFCURVE",
"193 623 OFFCURVE",
"193 677 CURVE SMOOTH",
"193 735 OFFCURVE",
"241 783 OFFCURVE",
"299 783 CURVE SMOOTH",
"353 783 OFFCURVE",
"398 735 OFFCURVE",
"398 678 CURVE SMOOTH"
);
},
{
closed = 1;
nodes = (
"389 0 OFFCURVE",
"384 5 OFFCURVE",
"384 18 CURVE",
"404 391 LINE",
"347 398 OFFCURVE",
"312 406 OFFCURVE",
"283 420 CURVE SMOOTH",
"243 439 OFFCURVE",
"209 462 OFFCURVE",
"163 500 CURVE SMOOTH",
"163 500 OFFCURVE",
"147 513 OFFCURVE",
"107 544 CURVE",
"102 547 OFFCURVE",
"100 551 OFFCURVE",
"100 558 CURVE SMOOTH",
"100 562 OFFCURVE",
"101 565 OFFCURVE",
"101 567 CURVE",
"104 575 OFFCURVE",
"109 578 OFFCURVE",
"117 578 CURVE SMOOTH",
"118 578 OFFCURVE",
"119 578 OFFCURVE",
"120 577 CURVE",
"121 577 OFFCURVE",
"122 577 OFFCURVE",
"123 577 CURVE",
"151 568 OFFCURVE",
"163 564 OFFCURVE",
"182 558 CURVE SMOOTH",
"211 548 OFFCURVE",
"228 543 OFFCURVE",
"243 538 CURVE SMOOTH",
"293 525 OFFCURVE",
"320 518 OFFCURVE",
"337 516 CURVE SMOOTH",
"346 512 OFFCURVE",
"367 509 OFFCURVE",
"411 507 CURVE",
"431 888 LINE SMOOTH",
"432 901 OFFCURVE",
"443 906 OFFCURVE",
"468 906 CURVE SMOOTH",
"491 906 OFFCURVE",
"500 901 OFFCURVE",
"501 888 CURVE SMOOTH",
"521 509 LINE",
"601 516 OFFCURVE",
"661 529 OFFCURVE",
"732 553 CURVE SMOOTH",
"752 560 OFFCURVE",
"774 567 OFFCURVE",
"809 578 CURVE",
"810 578 OFFCURVE",
"811 578 OFFCURVE",
"814 578 CURVE SMOOTH",
"822 578 OFFCURVE",
"827 575 OFFCURVE",
"831 568 CURVE",
"831 565 OFFCURVE",
"832 562 OFFCURVE",
"832 560 CURVE SMOOTH",
"832 553 OFFCURVE",
"830 549 OFFCURVE",
"824 546 CURVE",
"815 539 OFFCURVE",
"804 530 OFFCURVE",
"768 502 CURVE SMOOTH",
"722 464 OFFCURVE",
"688 441 OFFCURVE",
"648 422 CURVE SMOOTH",
"620 408 OFFCURVE",
"585 400 OFFCURVE",
"528 393 CURVE",
"548 19 LINE",
"548 5 OFFCURVE",
"543 0 OFFCURVE",
"531 0 CURVE SMOOTH",
"531 0 OFFCURVE",
"531 0 OFFCURVE",
"530 0 CURVE SMOOTH",
"401 0 LINE SMOOTH"
);
}
);
width = 932;
}
);
unicode = 06F8;
},
{
glyphname = "nine-persian";
lastChange = "2013-06-18 05:10:48 +0330";
layers = (
{
layerId = "3D323242-F336-407C-B164-DE86AA499667";
name = "Regular";
paths = (
{
closed = 1;
nodes = (
"741 623 OFFCURVE",
"694 577 OFFCURVE",
"639 577 CURVE SMOOTH",
"584 577 OFFCURVE",
"536 622 OFFCURVE",
"536 676 CURVE SMOOTH",
"536 734 OFFCURVE",
"584 782 OFFCURVE",
"642 782 CURVE SMOOTH",
"696 782 OFFCURVE",
"741 734 OFFCURVE",
"741 677 CURVE SMOOTH"
);
},
{
closed = 1;
nodes = (
"759 227 OFFCURVE",
"712 181 OFFCURVE",
"657 181 CURVE SMOOTH",
"602 181 OFFCURVE",
"554 226 OFFCURVE",
"554 280 CURVE SMOOTH",
"554 338 OFFCURVE",
"602 386 OFFCURVE",
"660 386 CURVE SMOOTH",
"714 386 OFFCURVE",
"759 338 OFFCURVE",
"759 281 CURVE SMOOTH"
);
},
{
closed = 1;
nodes = (
"384 228 OFFCURVE",
"337 182 OFFCURVE",
"282 182 CURVE SMOOTH",
"227 182 OFFCURVE",
"179 227 OFFCURVE",
"179 281 CURVE SMOOTH",
"179 339 OFFCURVE",
"227 387 OFFCURVE",
"285 387 CURVE SMOOTH",
"339 387 OFFCURVE",
"384 339 OFFCURVE",
"384 282 CURVE SMOOTH"
);
},
{
closed = 1;
nodes = (
"398 624 OFFCURVE",
"351 578 OFFCURVE",
"296 578 CURVE SMOOTH",
"241 578 OFFCURVE",
"193 623 OFFCURVE",
"193 677 CURVE SMOOTH",
"193 735 OFFCURVE",
"241 783 OFFCURVE",
"299 783 CURVE SMOOTH",
"353 783 OFFCURVE",
"398 735 OFFCURVE",
"398 678 CURVE SMOOTH"
);
},
{
closed = 1;
nodes = (
"389 0 OFFCURVE",
"384 5 OFFCURVE",
"384 18 CURVE",
"404 391 LINE",
"347 398 OFFCURVE",
"312 406 OFFCURVE",
"283 420 CURVE SMOOTH",
"243 439 OFFCURVE",
"209 462 OFFCURVE",
"163 500 CURVE SMOOTH",
"163 500 OFFCURVE",
"147 513 OFFCURVE",
"107 544 CURVE",
"102 547 OFFCURVE",
"100 551 OFFCURVE",
"100 558 CURVE SMOOTH",
"100 562 OFFCURVE",
"101 565 OFFCURVE",
"101 567 CURVE",
"104 575 OFFCURVE",
"109 578 OFFCURVE",
"117 578 CURVE SMOOTH",
"118 578 OFFCURVE",
"119 578 OFFCURVE",
"120 577 CURVE",
"121 577 OFFCURVE",
"122 577 OFFCURVE",
"123 577 CURVE",
"151 568 OFFCURVE",
"163 564 OFFCURVE",
"182 558 CURVE SMOOTH",
"211 548 OFFCURVE",
"228 543 OFFCURVE",
"243 538 CURVE SMOOTH",
"293 525 OFFCURVE",
"320 518 OFFCURVE",
"337 516 CURVE SMOOTH",
"346 512 OFFCURVE",
"367 509 OFFCURVE",
"411 507 CURVE",
"431 888 LINE SMOOTH",
"432 901 OFFCURVE",
"443 906 OFFCURVE",
"468 906 CURVE SMOOTH",
"491 906 OFFCURVE",
"500 901 OFFCURVE",
"501 888 CURVE SMOOTH",
"521 509 LINE",
"601 516 OFFCURVE",
"661 529 OFFCURVE",
"732 553 CURVE SMOOTH",
"752 560 OFFCURVE",
"774 567 OFFCURVE",
"809 578 CURVE",
"810 578 OFFCURVE",
"811 578 OFFCURVE",
"814 578 CURVE SMOOTH",
"822 578 OFFCURVE",
"827 575 OFFCURVE",
"831 568 CURVE",
"831 565 OFFCURVE",
"832 562 OFFCURVE",
"832 560 CURVE SMOOTH",
"832 553 OFFCURVE",
"830 549 OFFCURVE",
"824 546 CURVE",
"815 539 OFFCURVE",
"804 530 OFFCURVE",
"768 502 CURVE SMOOTH",
"722 464 OFFCURVE",
"688 441 OFFCURVE",
"648 422 CURVE SMOOTH",
"620 408 OFFCURVE",
"585 400 OFFCURVE",
"528 393 CURVE",
"548 19 LINE",
"548 5 OFFCURVE",
"543 0 OFFCURVE",
"531 0 CURVE SMOOTH",
"531 0 OFFCURVE",
"531 0 OFFCURVE",
"530 0 CURVE SMOOTH",
"401 0 LINE SMOOTH"
);
}
);
width = 932;
}
);
unicode = 06F9;
},
{
glyphname = "space";
lastChange = "2013-06-18 11:10:45 +0330";
layers = (
{
layerId = "3D323242-F336-407C-B164-DE86AA499667";
name = "Regular";
paths = (
{
closed = 1;
nodes = (
"341 89 OFFCURVE",
"365 118 OFFCURVE",
"365 154 CURVE SMOOTH",
"365 190 OFFCURVE",
"341 219 OFFCURVE",
"310 219 CURVE SMOOTH",
"280 219 OFFCURVE",
"255 190 OFFCURVE",
"255 154 CURVE SMOOTH",
"255 118 OFFCURVE",
"280 89 OFFCURVE",
"310 89 CURVE SMOOTH"
);
}
);
width = 600;
}
);
unicode = 0020;
},
{
glyphname = "uniE191";
lastChange = "2013-06-18 07:13:30 +0330";
layers = (
{
layerId = "3D323242-F336-407C-B164-DE86AA499667";
name = "Regular";
paths = (
{
closed = 1;
nodes = (
"987 22 OFFCURVE",
"988 20 OFFCURVE",
"973 15 CURVE",
"972 15 LINE",
"968 12 OFFCURVE",
"964 11 OFFCURVE",
"960 11 CURVE SMOOTH",
"881 13 OFFCURVE",
"810 14 OFFCURVE",
"747 15 CURVE SMOOTH",
"647 18 OFFCURVE",
"653 17 OFFCURVE",
"606 26 CURVE SMOOTH",
"582 30 OFFCURVE",
"563 32 OFFCURVE",
"550 32 CURVE SMOOTH",
"545 32 OFFCURVE",
"541 32 OFFCURVE",
"539 31 CURVE",
"521 30 OFFCURVE",
"495 25 OFFCURVE",
"462 15 CURVE SMOOTH",
"428 5 OFFCURVE",
"402 0 OFFCURVE",
"383 0 CURVE SMOOTH",
"370 0 OFFCURVE",
"357 1 OFFCURVE",
"344 4 CURVE SMOOTH",
"313 11 OFFCURVE",
"280 30 OFFCURVE",
"247 60 CURVE SMOOTH",
"213 89 OFFCURVE",
"186 108 OFFCURVE",
"165 117 CURVE",
"161 118 OFFCURVE",
"157 119 OFFCURVE",
"154 119 CURVE SMOOTH",
"151 119 OFFCURVE",
"144 117 OFFCURVE",
"131 114 CURVE SMOOTH",
"118 111 OFFCURVE",
"107 109 OFFCURVE",
"99 109 CURVE SMOOTH",
"94 109 LINE",
"87 109 LINE",
"70 109 LINE SMOOTH",
"63 109 OFFCURVE",
"57 110 OFFCURVE",
"52 111 CURVE SMOOTH",
"40 113 OFFCURVE",
"29 119 OFFCURVE",
"18 130 CURVE",
"6 145 OFFCURVE",
"0 161 OFFCURVE",
"0 177 CURVE SMOOTH",
"0 178 LINE SMOOTH",
"0 210 OFFCURVE",
"27 240 OFFCURVE",
"72 252 CURVE",
"57 261 OFFCURVE",
"41 275 OFFCURVE",
"25 295 CURVE",
"19 304 OFFCURVE",
"16 311 OFFCURVE",
"16 318 CURVE SMOOTH",
"16 324 OFFCURVE",
"18 329 OFFCURVE",
"21 333 CURVE",
"32 342 OFFCURVE",
"43 347 OFFCURVE",
"54 347 CURVE SMOOTH",
"66 347 OFFCURVE",
"82 343 OFFCURVE",
"93 319 CURVE SMOOTH",
"104 294 OFFCURVE",
"116 285 OFFCURVE",
"129 285 CURVE SMOOTH",
"134 285 OFFCURVE",
"138 286 OFFCURVE",
"141 289 CURVE",
"148 294 OFFCURVE",
"154 303 OFFCURVE",
"161 316 CURVE",
"167 329 OFFCURVE",
"174 337 OFFCURVE",
"183 340 CURVE",
"187 342 OFFCURVE",
"191 343 OFFCURVE",
"194 343 CURVE SMOOTH",
"205 343 OFFCURVE",
"216 337 OFFCURVE",
"225 325 CURVE",
"228 320 OFFCURVE",
"229 316 OFFCURVE",
"229 312 CURVE SMOOTH",
"229 303 OFFCURVE",
"225 285 OFFCURVE",
"197 261 CURVE SMOOTH",
"184 250 OFFCURVE",
"177 244 OFFCURVE",
"176 243 CURVE",
"181 240 OFFCURVE",
"193 233 OFFCURVE",
"197 230 CURVE",
"213 221 OFFCURVE",
"236 202 OFFCURVE",
"267 175 CURVE SMOOTH",
"297 148 OFFCURVE",
"325 131 OFFCURVE",
"351 125 CURVE",
"358 123 OFFCURVE",
"367 122 OFFCURVE",
"379 122 CURVE SMOOTH",
"394 122 OFFCURVE",
"418 127 OFFCURVE",
"452 138 CURVE SMOOTH",
"485 148 OFFCURVE",
"513 153 OFFCURVE",
"535 153 CURVE SMOOTH",
"543 153 LINE SMOOTH",
"576 152 OFFCURVE",
"602 143 OFFCURVE",
"635 128 CURVE",
"652 121 OFFCURVE",
"665 115 OFFCURVE",
"674 112 CURVE",
"678 111 OFFCURVE",
"689 106 OFFCURVE",
"707 98 CURVE",
"725 89 OFFCURVE",
"739 84 OFFCURVE",
"750 83 CURVE",
"781 79 OFFCURVE",
"815 77 OFFCURVE",
"851 77 CURVE SMOOTH",
"858 77 OFFCURVE",
"869 77 OFFCURVE",
"884 78 CURVE",
"899 78 OFFCURVE",
"910 78 OFFCURVE",
"919 78 CURVE SMOOTH",
"937 78 OFFCURVE",
"951 78 OFFCURVE",
"961 77 CURVE",
"967 77 OFFCURVE",
"972 75 OFFCURVE",
"976 70 CURVE",
"978 69 LINE",
"979 68 OFFCURVE",
"979 68 OFFCURVE",
"980 67 CURVE",
"990 60 OFFCURVE",
"995 52 OFFCURVE",
"995 41 CURVE"
);
},
{
closed = 1;
nodes = (
"723 56 OFFCURVE",
"702 63 OFFCURVE",
"661 74 CURVE",
"650 78 OFFCURVE",
"636 84 OFFCURVE",
"620 91 CURVE SMOOTH",
"588 106 OFFCURVE",
"570 112 OFFCURVE",
"541 113 CURVE SMOOTH",
"535 113 LINE SMOOTH",
"515 113 OFFCURVE",
"489 108 OFFCURVE",
"457 98 CURVE SMOOTH",
"424 87 OFFCURVE",
"398 82 OFFCURVE",
"379 82 CURVE SMOOTH",
"366 82 OFFCURVE",
"353 83 OFFCURVE",
"342 86 CURVE",
"311 93 OFFCURVE",
"279 111 OFFCURVE",
"245 141 CURVE SMOOTH",
"177 201 OFFCURVE",
"146 217 OFFCURVE",
"126 217 CURVE SMOOTH",
"124 217 LINE",
"79 214 OFFCURVE",
"63 212 OFFCURVE",
"46 193 CURVE",
"45 192 OFFCURVE",
"43 190 OFFCURVE",
"42 187 CURVE",
"41 186 OFFCURVE",
"41 186 OFFCURVE",
"41 185 CURVE",
"40 184 OFFCURVE",
"40 181 OFFCURVE",
"40 178 CURVE SMOOTH",
"40 171 OFFCURVE",
"43 163 OFFCURVE",
"49 156 CURVE SMOOTH",
"56 148 OFFCURVE",
"61 149 OFFCURVE",
"70 149 CURVE SMOOTH",
"87 149 LINE",
"96 149 LINE",
"99 149 LINE SMOOTH",
"104 149 OFFCURVE",
"113 151 OFFCURVE",
"125 154 CURVE SMOOTH",
"136 157 OFFCURVE",
"146 159 OFFCURVE",
"154 159 CURVE SMOOTH",
"163 159 OFFCURVE",
"172 157 OFFCURVE",
"181 154 CURVE",
"202 145 OFFCURVE",
"222 133 OFFCURVE",
"241 116 CURVE SMOOTH",
"280 82 OFFCURVE",
"312 52 OFFCURVE",
"353 43 CURVE",
"363 40 OFFCURVE",
"373 39 OFFCURVE",
"383 39 CURVE SMOOTH",
"400 39 OFFCURVE",
"424 44 OFFCURVE",
"455 54 CURVE SMOOTH",
"486 64 OFFCURVE",
"514 70 OFFCURVE",
"537 71 CURVE",
"538 71 OFFCURVE",
"541 71 OFFCURVE",
"544 72 CURVE",
"547 72 OFFCURVE",
"549 72 OFFCURVE",
"550 72 CURVE SMOOTH",
"567 72 OFFCURVE",
"588 70 OFFCURVE",
"612 66 CURVE SMOOTH",
"660 57 OFFCURVE",
"685 55 OFFCURVE",
"725 55 CURVE"
);
}
);
width = 995;
}
);
unicode = E191;
},
{
glyphname = "uniE298";
lastChange = "2013-06-18 07:14:41 +0330";
layers = (
{
layerId = "3D323242-F336-407C-B164-DE86AA499667";
name = "Regular";
paths = (
{
closed = 1;
nodes = (
"420 92 OFFCURVE",
"327 0 OFFCURVE",
"214 0 CURVE SMOOTH",
"97 0 OFFCURVE",
"0 97 OFFCURVE",
"0 214 CURVE SMOOTH",
"0 323 OFFCURVE",
"98 405 OFFCURVE",
"211 405 CURVE SMOOTH",
"256 405 OFFCURVE",
"294 394 OFFCURVE",
"325 373 CURVE",
"326 375 OFFCURVE",
"329 377 OFFCURVE",
"334 379 CURVE SMOOTH",
"339 381 OFFCURVE",
"343 382 OFFCURVE",
"344 383 CURVE",
"491 506 LINE",
"498 511 OFFCURVE",
"506 514 OFFCURVE",
"513 514 CURVE SMOOTH",
"536 514 OFFCURVE",
"548 498 OFFCURVE",
"548 479 CURVE SMOOTH",
"548 468 OFFCURVE",
"544 459 OFFCURVE",
"536 452 CURVE SMOOTH",
"389 329 LINE",
"385 326 OFFCURVE",
"382 325 OFFCURVE",
"379 324 CURVE",
"406 288 OFFCURVE",
"420 248 OFFCURVE",
"420 205 CURVE SMOOTH"
);
},
{
closed = 1;
nodes = (
"298 350 OFFCURVE",
"258 365 OFFCURVE",
"211 365 CURVE SMOOTH",
"118 365 OFFCURVE",
"40 299 OFFCURVE",
"40 214 CURVE SMOOTH",
"40 118 OFFCURVE",
"118 40 OFFCURVE",
"214 40 CURVE SMOOTH",
"305 40 OFFCURVE",
"380 114 OFFCURVE",
"380 205 CURVE SMOOTH",
"380 250 OFFCURVE",
"364 288 OFFCURVE",
"331 319 CURVE SMOOTH"
);
}
